<?xml version="1.0" encoding="utf-8" standalone="no"?>
<!DOCTYPE svg PUBLIC "-//W3C//DTD SVG 1.1//EN"
  "http://www.w3.org/Graphics/SVG/1.1/DTD/svg11.dtd">
<!-- Created with matplotlib (http://matplotlib.org/) -->
<svg height="211pt" version="1.1" viewBox="0 0 187 211" width="187pt" xmlns="http://www.w3.org/2000/svg" xmlns:xlink="http://www.w3.org/1999/xlink">
 <defs>
  <style type="text/css">
*{stroke-linecap:butt;stroke-linejoin:round;}
  </style>
 </defs>
 <g id="figure_1">
  <g id="patch_1">
   <path d="M 0 211.042181 
L 187.70125 211.042181 
L 187.70125 0 
L 0 0 
z
" style="fill:#ffffff;"/>
  </g>
  <g id="axes_1">
   <g id="patch_2">
    <path d="M 35.165 136.5 
L 174.14 136.5 
L 174.14 7.2 
L 35.165 7.2 
z
" style="fill:#ffffff;"/>
   </g>
   <g id="matplotlib.axis_1">
    <g id="xtick_1">
     <g id="line2d_1">
      <path clip-path="url(#p73ec320074)" d="M 35.165 136.5 
L 35.165 7.2 
" style="fill:none;stroke:#cccccc;stroke-linecap:round;stroke-width:0.8;"/>
     </g>
     <g id="line2d_2"/>
     <g id="text_1">
      <!-- 0.0 -->
      <defs>
       <path d="M 31.78125 66.40625 
Q 24.171875 66.40625 20.328125 58.90625 
Q 16.5 51.421875 16.5 36.375 
Q 16.5 21.390625 20.328125 13.890625 
Q 24.171875 6.390625 31.78125 6.390625 
Q 39.453125 6.390625 43.28125 13.890625 
Q 47.125 21.390625 47.125 36.375 
Q 47.125 51.421875 43.28125 58.90625 
Q 39.453125 66.40625 31.78125 66.40625 
M 31.78125 74.21875 
Q 44.046875 74.21875 50.515625 64.515625 
Q 56.984375 54.828125 56.984375 36.375 
Q 56.984375 17.96875 50.515625 8.265625 
Q 44.046875 -1.421875 31.78125 -1.421875 
Q 19.53125 -1.421875 13.0625 8.265625 
Q 6.59375 17.96875 6.59375 36.375 
Q 6.59375 54.828125 13.0625 64.515625 
Q 19.53125 74.21875 31.78125 74.21875 
" id="DejaVuSans-30"/>
       <path d="M 10.6875 12.40625 
L 21 12.40625 
L 21 0 
L 10.6875 0 
z
" id="DejaVuSans-2e"/>
      </defs>
      <g style="fill:#262626;" transform="translate(28.80375 146.07875)scale(0.08 -0.08)">
       <use xlink:href="#DejaVuSans-30"/>
       <use x="63.623047" xlink:href="#DejaVuSans-2e"/>
       <use x="95.410156" xlink:href="#DejaVuSans-30"/>
      </g>
     </g>
    </g>
    <g id="xtick_2">
     <g id="line2d_3">
      <path clip-path="url(#p73ec320074)" d="M 62.96 136.5 
L 62.96 7.2 
" style="fill:none;stroke:#cccccc;stroke-linecap:round;stroke-width:0.8;"/>
     </g>
     <g id="line2d_4"/>
     <g id="text_2">
      <!-- 0.2 -->
      <defs>
       <path d="M 19.1875 8.296875 
L 53.609375 8.296875 
L 53.609375 0 
L 7.328125 0 
L 7.328125 8.296875 
Q 12.9375 14.109375 22.625 23.890625 
Q 32.328125 33.6875 34.8125 36.53125 
Q 39.546875 41.84375 41.421875 45.53125 
Q 43.3125 49.21875 43.3125 52.78125 
Q 43.3125 58.59375 39.234375 62.25 
Q 35.15625 65.921875 28.609375 65.921875 
Q 23.96875 65.921875 18.8125 64.3125 
Q 13.671875 62.703125 7.8125 59.421875 
L 7.8125 69.390625 
Q 13.765625 71.78125 18.9375 73 
Q 24.125 74.21875 28.421875 74.21875 
Q 39.75 74.21875 46.484375 68.546875 
Q 53.21875 62.890625 53.21875 53.421875 
Q 53.21875 48.921875 51.53125 44.890625 
Q 49.859375 40.875 45.40625 35.40625 
Q 44.1875 33.984375 37.640625 27.21875 
Q 31.109375 20.453125 19.1875 8.296875 
" id="DejaVuSans-32"/>
      </defs>
      <g style="fill:#262626;" transform="translate(56.59875 146.07875)scale(0.08 -0.08)">
       <use xlink:href="#DejaVuSans-30"/>
       <use x="63.623047" xlink:href="#DejaVuSans-2e"/>
       <use x="95.410156" xlink:href="#DejaVuSans-32"/>
      </g>
     </g>
    </g>
    <g id="xtick_3">
     <g id="line2d_5">
      <path clip-path="url(#p73ec320074)" d="M 90.755 136.5 
L 90.755 7.2 
" style="fill:none;stroke:#cccccc;stroke-linecap:round;stroke-width:0.8;"/>
     </g>
     <g id="line2d_6"/>
     <g id="text_3">
      <!-- 0.4 -->
      <defs>
       <path d="M 37.796875 64.3125 
L 12.890625 25.390625 
L 37.796875 25.390625 
z
M 35.203125 72.90625 
L 47.609375 72.90625 
L 47.609375 25.390625 
L 58.015625 25.390625 
L 58.015625 17.1875 
L 47.609375 17.1875 
L 47.609375 0 
L 37.796875 0 
L 37.796875 17.1875 
L 4.890625 17.1875 
L 4.890625 26.703125 
z
" id="DejaVuSans-34"/>
      </defs>
      <g style="fill:#262626;" transform="translate(84.39375 146.07875)scale(0.08 -0.08)">
       <use xlink:href="#DejaVuSans-30"/>
       <use x="63.623047" xlink:href="#DejaVuSans-2e"/>
       <use x="95.410156" xlink:href="#DejaVuSans-34"/>
      </g>
     </g>
    </g>
    <g id="xtick_4">
     <g id="line2d_7">
      <path clip-path="url(#p73ec320074)" d="M 118.55 136.5 
L 118.55 7.2 
" style="fill:none;stroke:#cccccc;stroke-linecap:round;stroke-width:0.8;"/>
     </g>
     <g id="line2d_8"/>
     <g id="text_4">
      <!-- 0.6 -->
      <defs>
       <path d="M 33.015625 40.375 
Q 26.375 40.375 22.484375 35.828125 
Q 18.609375 31.296875 18.609375 23.390625 
Q 18.609375 15.53125 22.484375 10.953125 
Q 26.375 6.390625 33.015625 6.390625 
Q 39.65625 6.390625 43.53125 10.953125 
Q 47.40625 15.53125 47.40625 23.390625 
Q 47.40625 31.296875 43.53125 35.828125 
Q 39.65625 40.375 33.015625 40.375 
M 52.59375 71.296875 
L 52.59375 62.3125 
Q 48.875 64.0625 45.09375 64.984375 
Q 41.3125 65.921875 37.59375 65.921875 
Q 27.828125 65.921875 22.671875 59.328125 
Q 17.53125 52.734375 16.796875 39.40625 
Q 19.671875 43.65625 24.015625 45.921875 
Q 28.375 48.1875 33.59375 48.1875 
Q 44.578125 48.1875 50.953125 41.515625 
Q 57.328125 34.859375 57.328125 23.390625 
Q 57.328125 12.15625 50.6875 5.359375 
Q 44.046875 -1.421875 33.015625 -1.421875 
Q 20.359375 -1.421875 13.671875 8.265625 
Q 6.984375 17.96875 6.984375 36.375 
Q 6.984375 53.65625 15.1875 63.9375 
Q 23.390625 74.21875 37.203125 74.21875 
Q 40.921875 74.21875 44.703125 73.484375 
Q 48.484375 72.75 52.59375 71.296875 
" id="DejaVuSans-36"/>
      </defs>
      <g style="fill:#262626;" transform="translate(112.18875 146.07875)scale(0.08 -0.08)">
       <use xlink:href="#DejaVuSans-30"/>
       <use x="63.623047" xlink:href="#DejaVuSans-2e"/>
       <use x="95.410156" xlink:href="#DejaVuSans-36"/>
      </g>
     </g>
    </g>
    <g id="xtick_5">
     <g id="line2d_9">
      <path clip-path="url(#p73ec320074)" d="M 146.345 136.5 
L 146.345 7.2 
" style="fill:none;stroke:#cccccc;stroke-linecap:round;stroke-width:0.8;"/>
     </g>
     <g id="line2d_10"/>
     <g id="text_5">
      <!-- 0.8 -->
      <defs>
       <path d="M 31.78125 34.625 
Q 24.75 34.625 20.71875 30.859375 
Q 16.703125 27.09375 16.703125 20.515625 
Q 16.703125 13.921875 20.71875 10.15625 
Q 24.75 6.390625 31.78125 6.390625 
Q 38.8125 6.390625 42.859375 10.171875 
Q 46.921875 13.96875 46.921875 20.515625 
Q 46.921875 27.09375 42.890625 30.859375 
Q 38.875 34.625 31.78125 34.625 
M 21.921875 38.8125 
Q 15.578125 40.375 12.03125 44.71875 
Q 8.5 49.078125 8.5 55.328125 
Q 8.5 64.0625 14.71875 69.140625 
Q 20.953125 74.21875 31.78125 74.21875 
Q 42.671875 74.21875 48.875 69.140625 
Q 55.078125 64.0625 55.078125 55.328125 
Q 55.078125 49.078125 51.53125 44.71875 
Q 48 40.375 41.703125 38.8125 
Q 48.828125 37.15625 52.796875 32.3125 
Q 56.78125 27.484375 56.78125 20.515625 
Q 56.78125 9.90625 50.3125 4.234375 
Q 43.84375 -1.421875 31.78125 -1.421875 
Q 19.734375 -1.421875 13.25 4.234375 
Q 6.78125 9.90625 6.78125 20.515625 
Q 6.78125 27.484375 10.78125 32.3125 
Q 14.796875 37.15625 21.921875 38.8125 
M 18.3125 54.390625 
Q 18.3125 48.734375 21.84375 45.5625 
Q 25.390625 42.390625 31.78125 42.390625 
Q 38.140625 42.390625 41.71875 45.5625 
Q 45.3125 48.734375 45.3125 54.390625 
Q 45.3125 60.0625 41.71875 63.234375 
Q 38.140625 66.40625 31.78125 66.40625 
Q 25.390625 66.40625 21.84375 63.234375 
Q 18.3125 60.0625 18.3125 54.390625 
" id="DejaVuSans-38"/>
      </defs>
      <g style="fill:#262626;" transform="translate(139.98375 146.07875)scale(0.08 -0.08)">
       <use xlink:href="#DejaVuSans-30"/>
       <use x="63.623047" xlink:href="#DejaVuSans-2e"/>
       <use x="95.410156" xlink:href="#DejaVuSans-38"/>
      </g>
     </g>
    </g>
    <g id="xtick_6">
     <g id="line2d_11">
      <path clip-path="url(#p73ec320074)" d="M 174.14 136.5 
L 174.14 7.2 
" style="fill:none;stroke:#cccccc;stroke-linecap:round;stroke-width:0.8;"/>
     </g>
     <g id="line2d_12"/>
     <g id="text_6">
      <!-- 1.0 -->
      <defs>
       <path d="M 12.40625 8.296875 
L 28.515625 8.296875 
L 28.515625 63.921875 
L 10.984375 60.40625 
L 10.984375 69.390625 
L 28.421875 72.90625 
L 38.28125 72.90625 
L 38.28125 8.296875 
L 54.390625 8.296875 
L 54.390625 0 
L 12.40625 0 
z
" id="DejaVuSans-31"/>
      </defs>
      <g style="fill:#262626;" transform="translate(167.77875 146.07875)scale(0.08 -0.08)">
       <use xlink:href="#DejaVuSans-31"/>
       <use x="63.623047" xlink:href="#DejaVuSans-2e"/>
       <use x="95.410156" xlink:href="#DejaVuSans-30"/>
      </g>
     </g>
    </g>
    <g id="text_7">
     <!-- Recall -->
     <defs>
      <path d="M 44.390625 34.1875 
Q 47.5625 33.109375 50.5625 29.59375 
Q 53.5625 26.078125 56.59375 19.921875 
L 66.609375 0 
L 56 0 
L 46.6875 18.703125 
Q 43.0625 26.03125 39.671875 28.421875 
Q 36.28125 30.8125 30.421875 30.8125 
L 19.671875 30.8125 
L 19.671875 0 
L 9.8125 0 
L 9.8125 72.90625 
L 32.078125 72.90625 
Q 44.578125 72.90625 50.734375 67.671875 
Q 56.890625 62.453125 56.890625 51.90625 
Q 56.890625 45.015625 53.6875 40.46875 
Q 50.484375 35.9375 44.390625 34.1875 
M 19.671875 64.796875 
L 19.671875 38.921875 
L 32.078125 38.921875 
Q 39.203125 38.921875 42.84375 42.21875 
Q 46.484375 45.515625 46.484375 51.90625 
Q 46.484375 58.296875 42.84375 61.546875 
Q 39.203125 64.796875 32.078125 64.796875 
z
" id="DejaVuSans-52"/>
      <path d="M 56.203125 29.59375 
L 56.203125 25.203125 
L 14.890625 25.203125 
Q 15.484375 15.921875 20.484375 11.0625 
Q 25.484375 6.203125 34.421875 6.203125 
Q 39.59375 6.203125 44.453125 7.46875 
Q 49.3125 8.734375 54.109375 11.28125 
L 54.109375 2.78125 
Q 49.265625 0.734375 44.1875 -0.34375 
Q 39.109375 -1.421875 33.890625 -1.421875 
Q 20.796875 -1.421875 13.15625 6.1875 
Q 5.515625 13.8125 5.515625 26.8125 
Q 5.515625 40.234375 12.765625 48.109375 
Q 20.015625 56 32.328125 56 
Q 43.359375 56 49.78125 48.890625 
Q 56.203125 41.796875 56.203125 29.59375 
M 47.21875 32.234375 
Q 47.125 39.59375 43.09375 43.984375 
Q 39.0625 48.390625 32.421875 48.390625 
Q 24.90625 48.390625 20.390625 44.140625 
Q 15.875 39.890625 15.1875 32.171875 
z
" id="DejaVuSans-65"/>
      <path d="M 48.78125 52.59375 
L 48.78125 44.1875 
Q 44.96875 46.296875 41.140625 47.34375 
Q 37.3125 48.390625 33.40625 48.390625 
Q 24.65625 48.390625 19.8125 42.84375 
Q 14.984375 37.3125 14.984375 27.296875 
Q 14.984375 17.28125 19.8125 11.734375 
Q 24.65625 6.203125 33.40625 6.203125 
Q 37.3125 6.203125 41.140625 7.25 
Q 44.96875 8.296875 48.78125 10.40625 
L 48.78125 2.09375 
Q 45.015625 0.34375 40.984375 -0.53125 
Q 36.96875 -1.421875 32.421875 -1.421875 
Q 20.0625 -1.421875 12.78125 6.34375 
Q 5.515625 14.109375 5.515625 27.296875 
Q 5.515625 40.671875 12.859375 48.328125 
Q 20.21875 56 33.015625 56 
Q 37.15625 56 41.109375 55.140625 
Q 45.0625 54.296875 48.78125 52.59375 
" id="DejaVuSans-63"/>
      <path d="M 34.28125 27.484375 
Q 23.390625 27.484375 19.1875 25 
Q 14.984375 22.515625 14.984375 16.5 
Q 14.984375 11.71875 18.140625 8.90625 
Q 21.296875 6.109375 26.703125 6.109375 
Q 34.1875 6.109375 38.703125 11.40625 
Q 43.21875 16.703125 43.21875 25.484375 
L 43.21875 27.484375 
z
M 52.203125 31.203125 
L 52.203125 0 
L 43.21875 0 
L 43.21875 8.296875 
Q 40.140625 3.328125 35.546875 0.953125 
Q 30.953125 -1.421875 24.3125 -1.421875 
Q 15.921875 -1.421875 10.953125 3.296875 
Q 6 8.015625 6 15.921875 
Q 6 25.140625 12.171875 29.828125 
Q 18.359375 34.515625 30.609375 34.515625 
L 43.21875 34.515625 
L 43.21875 35.40625 
Q 43.21875 41.609375 39.140625 45 
Q 35.0625 48.390625 27.6875 48.390625 
Q 23 48.390625 18.546875 47.265625 
Q 14.109375 46.140625 10.015625 43.890625 
L 10.015625 52.203125 
Q 14.9375 54.109375 19.578125 55.046875 
Q 24.21875 56 28.609375 56 
Q 40.484375 56 46.34375 49.84375 
Q 52.203125 43.703125 52.203125 31.203125 
" id="DejaVuSans-61"/>
      <path d="M 9.421875 75.984375 
L 18.40625 75.984375 
L 18.40625 0 
L 9.421875 0 
z
" id="DejaVuSans-6c"/>
     </defs>
     <g style="fill:#262626;" transform="translate(92.54125 157.82125)scale(0.08 -0.08)">
      <use xlink:href="#DejaVuSans-52"/>
      <use x="69.419922" xlink:href="#DejaVuSans-65"/>
      <use x="130.943359" xlink:href="#DejaVuSans-63"/>
      <use x="185.923828" xlink:href="#DejaVuSans-61"/>
      <use x="247.203125" xlink:href="#DejaVuSans-6c"/>
      <use x="274.986328" xlink:href="#DejaVuSans-6c"/>
     </g>
    </g>
   </g>
   <g id="matplotlib.axis_2">
    <g id="ytick_1">
     <g id="line2d_13">
      <path clip-path="url(#p73ec320074)" d="M 35.165 136.5 
L 174.14 136.5 
" style="fill:none;stroke:#cccccc;stroke-linecap:round;stroke-width:0.8;"/>
     </g>
     <g id="line2d_14"/>
     <g id="text_8">
      <!-- 0.0 -->
      <g style="fill:#262626;" transform="translate(18.9425 139.539375)scale(0.08 -0.08)">
       <use xlink:href="#DejaVuSans-30"/>
       <use x="63.623047" xlink:href="#DejaVuSans-2e"/>
       <use x="95.410156" xlink:href="#DejaVuSans-30"/>
      </g>
     </g>
    </g>
    <g id="ytick_2">
     <g id="line2d_15">
      <path clip-path="url(#p73ec320074)" d="M 35.165 111.871429 
L 174.14 111.871429 
" style="fill:none;stroke:#cccccc;stroke-linecap:round;stroke-width:0.8;"/>
     </g>
     <g id="line2d_16"/>
     <g id="text_9">
      <!-- 0.2 -->
      <g style="fill:#262626;" transform="translate(18.9425 114.910804)scale(0.08 -0.08)">
       <use xlink:href="#DejaVuSans-30"/>
       <use x="63.623047" xlink:href="#DejaVuSans-2e"/>
       <use x="95.410156" xlink:href="#DejaVuSans-32"/>
      </g>
     </g>
    </g>
    <g id="ytick_3">
     <g id="line2d_17">
      <path clip-path="url(#p73ec320074)" d="M 35.165 87.242857 
L 174.14 87.242857 
" style="fill:none;stroke:#cccccc;stroke-linecap:round;stroke-width:0.8;"/>
     </g>
     <g id="line2d_18"/>
     <g id="text_10">
      <!-- 0.4 -->
      <g style="fill:#262626;" transform="translate(18.9425 90.282232)scale(0.08 -0.08)">
       <use xlink:href="#DejaVuSans-30"/>
       <use x="63.623047" xlink:href="#DejaVuSans-2e"/>
       <use x="95.410156" xlink:href="#DejaVuSans-34"/>
      </g>
     </g>
    </g>
    <g id="ytick_4">
     <g id="line2d_19">
      <path clip-path="url(#p73ec320074)" d="M 35.165 62.614286 
L 174.14 62.614286 
" style="fill:none;stroke:#cccccc;stroke-linecap:round;stroke-width:0.8;"/>
     </g>
     <g id="line2d_20"/>
     <g id="text_11">
      <!-- 0.6 -->
      <g style="fill:#262626;" transform="translate(18.9425 65.653661)scale(0.08 -0.08)">
       <use xlink:href="#DejaVuSans-30"/>
       <use x="63.623047" xlink:href="#DejaVuSans-2e"/>
       <use x="95.410156" xlink:href="#DejaVuSans-36"/>
      </g>
     </g>
    </g>
    <g id="ytick_5">
     <g id="line2d_21">
      <path clip-path="url(#p73ec320074)" d="M 35.165 37.985714 
L 174.14 37.985714 
" style="fill:none;stroke:#cccccc;stroke-linecap:round;stroke-width:0.8;"/>
     </g>
     <g id="line2d_22"/>
     <g id="text_12">
      <!-- 0.8 -->
      <g style="fill:#262626;" transform="translate(18.9425 41.025089)scale(0.08 -0.08)">
       <use xlink:href="#DejaVuSans-30"/>
       <use x="63.623047" xlink:href="#DejaVuSans-2e"/>
       <use x="95.410156" xlink:href="#DejaVuSans-38"/>
      </g>
     </g>
    </g>
    <g id="ytick_6">
     <g id="line2d_23">
      <path clip-path="url(#p73ec320074)" d="M 35.165 13.357143 
L 174.14 13.357143 
" style="fill:none;stroke:#cccccc;stroke-linecap:round;stroke-width:0.8;"/>
     </g>
     <g id="line2d_24"/>
     <g id="text_13">
      <!-- 1.0 -->
      <g style="fill:#262626;" transform="translate(18.9425 16.396518)scale(0.08 -0.08)">
       <use xlink:href="#DejaVuSans-31"/>
       <use x="63.623047" xlink:href="#DejaVuSans-2e"/>
       <use x="95.410156" xlink:href="#DejaVuSans-30"/>
      </g>
     </g>
    </g>
    <g id="text_14">
     <!-- Precision -->
     <defs>
      <path d="M 19.671875 64.796875 
L 19.671875 37.40625 
L 32.078125 37.40625 
Q 38.96875 37.40625 42.71875 40.96875 
Q 46.484375 44.53125 46.484375 51.125 
Q 46.484375 57.671875 42.71875 61.234375 
Q 38.96875 64.796875 32.078125 64.796875 
z
M 9.8125 72.90625 
L 32.078125 72.90625 
Q 44.34375 72.90625 50.609375 67.359375 
Q 56.890625 61.8125 56.890625 51.125 
Q 56.890625 40.328125 50.609375 34.8125 
Q 44.34375 29.296875 32.078125 29.296875 
L 19.671875 29.296875 
L 19.671875 0 
L 9.8125 0 
z
" id="DejaVuSans-50"/>
      <path d="M 41.109375 46.296875 
Q 39.59375 47.171875 37.8125 47.578125 
Q 36.03125 48 33.890625 48 
Q 26.265625 48 22.1875 43.046875 
Q 18.109375 38.09375 18.109375 28.8125 
L 18.109375 0 
L 9.078125 0 
L 9.078125 54.6875 
L 18.109375 54.6875 
L 18.109375 46.1875 
Q 20.953125 51.171875 25.484375 53.578125 
Q 30.03125 56 36.53125 56 
Q 37.453125 56 38.578125 55.875 
Q 39.703125 55.765625 41.0625 55.515625 
z
" id="DejaVuSans-72"/>
      <path d="M 9.421875 54.6875 
L 18.40625 54.6875 
L 18.40625 0 
L 9.421875 0 
z
M 9.421875 75.984375 
L 18.40625 75.984375 
L 18.40625 64.59375 
L 9.421875 64.59375 
z
" id="DejaVuSans-69"/>
      <path d="M 44.28125 53.078125 
L 44.28125 44.578125 
Q 40.484375 46.53125 36.375 47.5 
Q 32.28125 48.484375 27.875 48.484375 
Q 21.1875 48.484375 17.84375 46.4375 
Q 14.5 44.390625 14.5 40.28125 
Q 14.5 37.15625 16.890625 35.375 
Q 19.28125 33.59375 26.515625 31.984375 
L 29.59375 31.296875 
Q 39.15625 29.25 43.1875 25.515625 
Q 47.21875 21.78125 47.21875 15.09375 
Q 47.21875 7.46875 41.1875 3.015625 
Q 35.15625 -1.421875 24.609375 -1.421875 
Q 20.21875 -1.421875 15.453125 -0.5625 
Q 10.6875 0.296875 5.421875 2 
L 5.421875 11.28125 
Q 10.40625 8.6875 15.234375 7.390625 
Q 20.0625 6.109375 24.8125 6.109375 
Q 31.15625 6.109375 34.5625 8.28125 
Q 37.984375 10.453125 37.984375 14.40625 
Q 37.984375 18.0625 35.515625 20.015625 
Q 33.0625 21.96875 24.703125 23.78125 
L 21.578125 24.515625 
Q 13.234375 26.265625 9.515625 29.90625 
Q 5.8125 33.546875 5.8125 39.890625 
Q 5.8125 47.609375 11.28125 51.796875 
Q 16.75 56 26.8125 56 
Q 31.78125 56 36.171875 55.265625 
Q 40.578125 54.546875 44.28125 53.078125 
" id="DejaVuSans-73"/>
      <path d="M 30.609375 48.390625 
Q 23.390625 48.390625 19.1875 42.75 
Q 14.984375 37.109375 14.984375 27.296875 
Q 14.984375 17.484375 19.15625 11.84375 
Q 23.34375 6.203125 30.609375 6.203125 
Q 37.796875 6.203125 41.984375 11.859375 
Q 46.1875 17.53125 46.1875 27.296875 
Q 46.1875 37.015625 41.984375 42.703125 
Q 37.796875 48.390625 30.609375 48.390625 
M 30.609375 56 
Q 42.328125 56 49.015625 48.375 
Q 55.71875 40.765625 55.71875 27.296875 
Q 55.71875 13.875 49.015625 6.21875 
Q 42.328125 -1.421875 30.609375 -1.421875 
Q 18.84375 -1.421875 12.171875 6.21875 
Q 5.515625 13.875 5.515625 27.296875 
Q 5.515625 40.765625 12.171875 48.375 
Q 18.84375 56 30.609375 56 
" id="DejaVuSans-6f"/>
      <path d="M 54.890625 33.015625 
L 54.890625 0 
L 45.90625 0 
L 45.90625 32.71875 
Q 45.90625 40.484375 42.875 44.328125 
Q 39.84375 48.1875 33.796875 48.1875 
Q 26.515625 48.1875 22.3125 43.546875 
Q 18.109375 38.921875 18.109375 30.90625 
L 18.109375 0 
L 9.078125 0 
L 9.078125 54.6875 
L 18.109375 54.6875 
L 18.109375 46.1875 
Q 21.34375 51.125 25.703125 53.5625 
Q 30.078125 56 35.796875 56 
Q 45.21875 56 50.046875 50.171875 
Q 54.890625 44.34375 54.890625 33.015625 
" id="DejaVuSans-6e"/>
     </defs>
     <g style="fill:#262626;" transform="translate(13.27875 89.85375)rotate(-90)scale(0.08 -0.08)">
      <use xlink:href="#DejaVuSans-50"/>
      <use x="60.287109" xlink:href="#DejaVuSans-72"/>
      <use x="101.369141" xlink:href="#DejaVuSans-65"/>
      <use x="162.892578" xlink:href="#DejaVuSans-63"/>
      <use x="217.873047" xlink:href="#DejaVuSans-69"/>
      <use x="245.65625" xlink:href="#DejaVuSans-73"/>
      <use x="297.755859" xlink:href="#DejaVuSans-69"/>
      <use x="325.539062" xlink:href="#DejaVuSans-6f"/>
      <use x="386.720703" xlink:href="#DejaVuSans-6e"/>
     </g>
    </g>
   </g>
   <g id="line2d_25">
    <path clip-path="url(#p73ec320074)" d="M 174.14 127.982685 
L 172.841168 128.056829 
L 172.841168 128.056829 
L 172.841168 128.056829 
L 172.841168 127.974107 
L 170.243505 128.052205 
L 170.243505 128.013017 
L 170.243505 127.384799 
L 168.944673 127.466015 
L 168.944673 127.355289 
L 168.944673 127.153121 
L 166.347009 127.300719 
L 166.347009 127.211405 
L 166.347009 127.063408 
L 165.048178 127.149745 
L 165.048178 127.042023 
L 165.048178 126.998236 
L 163.749346 127.08599 
L 163.749346 126.97567 
L 163.749346 126.945813 
L 161.151682 127.034978 
L 161.151682 127.019955 
L 161.151682 126.851489 
L 159.85285 126.943238 
L 159.85285 126.83384 
L 159.85285 126.291266 
L 158.554019 126.388875 
L 158.554019 126.282907 
L 158.554019 125.970233 
L 155.956355 126.135941 
L 155.956355 126.069867 
L 155.956355 125.974002 
L 154.657523 126.077605 
L 154.657523 125.971057 
L 154.657523 125.720606 
L 150.761028 125.941508 
L 150.761028 125.931327 
L 150.761028 125.807596 
L 149.462196 125.917411 
L 149.462196 125.813046 
L 149.462196 125.293618 
L 145.565701 125.585357 
L 145.565701 125.539641 
L 145.565701 125.171923 
L 141.669206 125.440072 
L 141.669206 125.427945 
L 141.669206 125.1287 
L 139.071542 125.317902 
L 139.071542 125.279694 
L 139.071542 125.189519 
L 137.77271 125.318062 
L 137.77271 125.214286 
L 137.77271 124.987236 
L 135.175047 125.238717 
L 135.175047 125.144311 
L 135.175047 124.779357 
L 132.577383 125.055497 
L 132.577383 124.955357 
L 132.577383 124.136259 
L 131.278551 124.284757 
L 131.278551 124.185714 
L 131.278551 123.948249 
L 129.97972 124.100788 
L 129.97972 123.997318 
L 129.97972 123.490697 
L 128.680888 123.650311 
L 128.680888 123.556517 
L 128.680888 123.480491 
L 127.382056 123.642437 
L 127.382056 123.547196 
L 127.382056 123.469981 
L 126.083224 123.634328 
L 126.083224 123.537594 
L 126.083224 123.478852 
L 120.887897 124.053708 
L 120.887897 124.034619 
L 120.887897 123.996264 
L 119.589065 124.16674 
L 119.589065 124.070985 
L 119.589065 123.713601 
L 116.991402 123.966882 
L 116.991402 123.14716 
L 115.69257 123.336453 
L 115.69257 123.24504 
L 115.69257 122.866327 
L 114.393738 123.062228 
L 114.393738 122.96538 
L 114.393738 122.940949 
L 111.796075 123.266068 
L 111.796075 123.241919 
L 111.796075 122.970338 
L 110.497243 123.17484 
L 110.497243 123.074651 
L 110.497243 122.468004 
L 109.198411 122.68279 
L 109.198411 122.573129 
L 109.198411 121.967613 
L 107.899579 122.192946 
L 107.899579 122.10334 
L 107.899579 121.920719 
L 106.600748 122.150726 
L 106.600748 122.05894 
L 106.600748 121.776398 
L 105.301916 122.012605 
L 105.301916 121.917293 
L 105.301916 121.722857 
L 102.704252 122.174656 
L 102.704252 122.110273 
L 102.704252 121.397574 
L 101.405421 121.652989 
L 101.405421 121.546939 
L 101.405421 120.954738 
L 100.106589 121.22173 
L 100.106589 121.145529 
L 100.106589 120.912297 
L 98.807757 121.185279 
L 98.807757 121.107143 
L 98.807757 120.827273 
L 97.508925 121.107143 
L 97.508925 121.026552 
L 97.508925 119.942977 
L 96.210093 120.242376 
L 96.210093 120.150525 
L 96.210093 118.126304 
L 94.911262 118.459964 
L 94.911262 118.402328 
L 94.911262 118.344322 
L 93.61243 118.681902 
L 93.61243 118.624424 
L 93.61243 118.508349 
L 92.313598 118.850861 
L 92.313598 118.793184 
L 92.313598 118.558657 
L 91.014766 118.908163 
L 91.014766 118.849524 
L 91.014766 118.611004 
L 89.715935 118.967797 
L 89.715935 118.908163 
L 89.715935 117.344444 
L 88.417103 117.731014 
L 88.417103 117.660981 
L 88.417103 117.229553 
L 87.118271 117.627531 
L 87.118271 117.554945 
L 87.118271 115.449939 
L 85.819439 115.888105 
L 85.819439 115.799261 
L 85.819439 115.709647 
L 84.520607 116.154658 
L 84.520607 116.065814 
L 84.520607 115.326115 
L 83.221776 115.78961 
L 83.221776 115.695042 
L 83.221776 115.307973 
L 81.922944 115.784379 
L 81.922944 115.687123 
L 81.922944 114.874913 
L 80.624112 115.372549 
L 80.624112 115.268473 
L 80.624112 115.057214 
L 79.32528 115.565714 
L 79.32528 115.460517 
L 79.32528 115.246918 
L 78.026449 115.766764 
L 78.026449 115.66044 
L 78.026449 113.14532 
L 76.727617 113.72213 
L 76.727617 111.716532 
L 75.428785 112.33906 
L 75.428785 110.879674 
L 74.129953 111.53861 
L 74.129953 111.368805 
L 72.831121 112.040117 
L 72.831121 111.526973 
L 71.53229 112.21831 
L 71.53229 111.694245 
L 68.934626 113.129823 
L 68.934626 109.594838 
L 67.635794 110.410412 
L 67.635794 104.093985 
L 66.336963 105.059271 
L 66.336963 100.458188 
L 65.038131 101.53351 
L 65.038131 101.096429 
L 63.739299 102.207052 
L 63.739299 97.23706 
L 62.440467 98.470588 
L 62.440467 88.611111 
L 59.842804 91.505495 
L 59.842804 85.636646 
L 58.543972 87.242857 
L 58.543972 83.72449 
L 57.24514 85.440767 
L 57.24514 73.062771 
L 55.946308 74.928571 
L 55.946308 72.942396 
L 53.348645 77.051724 
L 50.750981 81.769841 
L 50.750981 79.664835 
L 48.153318 85.190476 
L 48.153318 74.928571 
L 46.854486 78.169173 
L 46.854486 74.928571 
L 45.555654 78.55042 
L 44.256822 82.625 
L 44.256822 70.192308 
L 42.957991 74.928571 
L 41.659159 80.525974 
L 40.360327 87.242857 
L 40.360327 66.132653 
L 39.061495 74.928571 
L 39.061495 62.614286 
L 37.762664 74.928571 
L 37.762664 13.357143 
L 35.165 13.357143 
L 35.165 13.357143 
" style="fill:none;stroke:#0000ff;stroke-linecap:round;stroke-width:2;"/>
   </g>
   <g id="line2d_26">
    <path clip-path="url(#p73ec320074)" d="M 174.14 125.226358 
L 163.449615 126.019757 
L 163.449615 126.019757 
L 163.449615 126.019757 
L 163.449615 125.305195 
L 152.759231 126.15976 
L 152.759231 126.08022 
L 152.759231 124.617794 
L 142.068846 125.602402 
L 142.068846 125.505102 
L 142.068846 123.80486 
L 131.378462 124.955357 
L 131.378462 123.306122 
L 120.688077 124.630809 
L 120.688077 124.337743 
L 99.307308 127.147378 
L 99.307308 127.027473 
L 99.307308 126.515444 
L 88.616923 128.065558 
L 88.616923 92.520408 
L 77.926538 98.60989 
L 77.926538 87.242857 
L 67.236154 95.452381 
L 56.545769 105.714286 
L 56.545769 101.316327 
L 45.855385 115.97619 
L 45.855385 74.928571 
L 35.165 136.5 
L 35.165 13.357143 
L 35.165 13.357143 
" style="fill:none;stroke:#008000;stroke-linecap:round;stroke-width:2;"/>
   </g>
   <g id="line2d_27">
    <path clip-path="url(#p73ec320074)" d="M 174.14 128.197362 
L 172.841168 128.269771 
L 172.841168 128.269771 
L 172.841168 128.269771 
L 172.841168 128.25938 
L 170.243505 128.404642 
L 170.243505 128.295735 
L 170.243505 128.194645 
L 167.645841 128.268957 
L 167.645841 128.236466 
L 167.645841 128.176228 
L 166.347009 128.252368 
L 166.347009 128.141513 
L 166.347009 128.113332 
L 165.048178 128.190765 
L 165.048178 128.082853 
L 165.048178 127.894629 
L 162.450514 128.037167 
L 162.450514 127.947201 
L 162.450514 127.898432 
L 161.151682 127.98013 
L 161.151682 127.869323 
L 161.151682 127.825449 
L 159.85285 127.908638 
L 159.85285 127.801167 
L 159.85285 127.631497 
L 154.657523 127.936778 
L 154.657523 127.864983 
L 154.657523 127.858396 
L 153.358692 127.945802 
L 153.358692 127.840031 
L 153.358692 127.826625 
L 152.05986 127.915293 
L 152.05986 127.807563 
L 152.05986 127.793906 
L 150.761028 127.883872 
L 150.761028 127.774113 
L 150.761028 127.23566 
L 149.462196 127.332004 
L 149.462196 127.222114 
L 149.462196 127.052248 
L 146.864533 127.193949 
L 146.864533 127.144624 
L 146.864533 127.052823 
L 144.266869 127.16426 
L 144.266869 127.147378 
L 144.266869 126.328909 
L 142.968037 126.440101 
L 142.968037 126.329993 
L 142.968037 126.091795 
L 141.669206 126.206713 
L 141.669206 126.100706 
L 141.669206 125.791925 
L 140.370374 125.911283 
L 140.370374 125.809141 
L 140.370374 125.693314 
L 136.473879 125.968045 
L 136.473879 125.956484 
L 136.473879 125.318227 
L 135.175047 125.448718 
L 135.175047 125.344706 
L 135.175047 125.252076 
L 133.876215 125.384968 
L 133.876215 125.278349 
L 133.876215 125.210667 
L 132.577383 125.345756 
L 132.577383 125.236934 
L 132.577383 124.628902 
L 131.278551 124.772109 
L 131.278551 124.665492 
L 131.278551 124.57255 
L 128.680888 124.864454 
L 128.680888 124.756575 
L 128.680888 121.965105 
L 124.784393 122.432356 
L 124.784393 122.409026 
L 124.784393 122.385619 
L 123.485561 122.567031 
L 123.485561 122.473678 
L 123.485561 122.379065 
L 122.186729 122.563224 
L 122.186729 122.468416 
L 122.186729 121.71403 
L 119.589065 121.999482 
L 119.589065 121.866937 
L 118.290234 122.065672 
L 118.290234 121.959146 
L 118.290234 121.601809 
L 115.69257 121.901803 
L 115.69257 121.617238 
L 114.393738 121.828683 
L 114.393738 121.742212 
L 114.393738 121.476571 
L 113.094907 121.693244 
L 113.094907 121.603687 
L 113.094907 121.482578 
L 111.796075 121.702793 
L 111.796075 121.611827 
L 111.796075 121.236495 
L 110.497243 121.463609 
L 110.497243 121.368039 
L 110.497243 121.040507 
L 107.899579 121.508696 
L 107.899579 121.410284 
L 107.899579 121.310573 
L 106.600748 121.54888 
L 106.600748 121.449206 
L 106.600748 121.245817 
L 105.301916 121.489358 
L 105.301916 121.387013 
L 105.301916 120.853613 
L 101.405421 121.511251 
L 101.405421 120.478863 
L 100.106589 120.752832 
L 100.106589 120.671869 
L 100.106589 120.59007 
L 98.807757 120.867876 
L 98.807757 120.786458 
L 98.807757 120.191892 
L 97.508925 120.481417 
L 97.508925 120.394122 
L 97.508925 118.960365 
L 94.911262 119.590832 
L 94.911262 119.489275 
L 94.911262 119.438038 
L 93.61243 119.758524 
L 93.61243 119.656752 
L 93.61243 117.966794 
L 92.313598 118.317833 
L 92.313598 118.256614 
L 92.313598 118.13293 
L 91.014766 118.48931 
L 91.014766 118.42784 
L 91.014766 118.114087 
L 89.715935 118.479094 
L 89.715935 118.416084 
L 89.715935 116.983019 
L 88.417103 117.375541 
L 88.417103 117.302825 
L 88.417103 116.70056 
L 87.118271 117.107424 
L 87.118271 117.030774 
L 87.118271 116.87564 
L 85.819439 117.289714 
L 85.819439 117.212565 
L 85.819439 116.736332 
L 81.922944 118.028571 
L 81.922944 117.951285 
L 81.922944 116.884324 
L 80.624112 117.344444 
L 80.624112 117.258929 
L 80.624112 116.638249 
L 79.32528 117.116402 
L 79.32528 117.026246 
L 79.32528 115.460517 
L 78.026449 115.97619 
L 78.026449 115.872009 
L 78.026449 114.768908 
L 76.727617 115.314132 
L 76.727617 115.199614 
L 76.727617 114.236885 
L 75.428785 114.810065 
L 75.428785 114.686122 
L 74.129953 115.268473 
L 74.129953 114.378529 
L 70.233458 116.102103 
L 70.233458 115.322566 
L 68.934626 115.97619 
L 68.934626 115.843779 
L 67.635794 116.509276 
L 67.635794 116.11211 
L 66.336963 116.797143 
L 66.336963 114.768908 
L 65.038131 115.520106 
L 65.038131 113.284543 
L 63.739299 114.11039 
L 63.739299 108.855685 
L 62.440467 109.840206 
L 62.440467 108.989362 
L 61.141636 110.017665 
L 61.141636 108.191297 
L 58.543972 110.422689 
L 58.543972 109.79432 
L 54.647477 113.410714 
L 53.348645 114.677215 
L 53.348645 113.513333 
L 52.049813 114.866795 
L 52.049813 107.393506 
L 50.750981 109.134921 
L 50.750981 108.618598 
L 49.45215 110.450549 
L 49.45215 104.248299 
L 48.153318 106.465157 
L 48.153318 103.218147 
L 46.854486 105.714286 
L 46.854486 100.748848 
L 45.555654 103.661905 
L 45.555654 95.452381 
L 44.256822 99.021739 
L 44.256822 82.625 
L 42.957991 87.242857 
L 42.957991 69.331169 
L 41.659159 74.928571 
L 40.360327 81.769841 
L 40.360327 66.132653 
L 39.061495 74.928571 
L 37.762664 87.242857 
L 36.463832 105.714286 
L 36.463832 13.357143 
L 35.165 13.357143 
L 35.165 13.357143 
" style="fill:none;stroke:#ffa500;stroke-linecap:round;stroke-width:2;"/>
   </g>
   <g id="patch_3">
    <path d="M 35.165 136.5 
L 35.165 7.2 
" style="fill:none;stroke:#cccccc;stroke-linecap:square;stroke-linejoin:miter;"/>
   </g>
   <g id="patch_4">
    <path d="M 174.14 136.5 
L 174.14 7.2 
" style="fill:none;stroke:#cccccc;stroke-linecap:square;stroke-linejoin:miter;"/>
   </g>
   <g id="patch_5">
    <path d="M 35.165 136.5 
L 174.14 136.5 
" style="fill:none;stroke:#cccccc;stroke-linecap:square;stroke-linejoin:miter;"/>
   </g>
   <g id="patch_6">
    <path d="M 35.165 7.2 
L 174.14 7.2 
" style="fill:none;stroke:#cccccc;stroke-linecap:square;stroke-linejoin:miter;"/>
   </g>
   <g id="legend_1">
    <g id="line2d_28">
     <path d="M 42.097578 174.640228 
L 57.097578 174.640228 
" style="fill:none;stroke:#0000ff;stroke-linecap:round;stroke-width:2;"/>
    </g>
    <g id="line2d_29"/>
    <g id="text_15">
     <!-- Training (AUPR = 20.2%) -->
     <defs>
      <path d="M -0.296875 72.90625 
L 61.375 72.90625 
L 61.375 64.59375 
L 35.5 64.59375 
L 35.5 0 
L 25.59375 0 
L 25.59375 64.59375 
L -0.296875 64.59375 
z
" id="DejaVuSans-54"/>
      <path d="M 45.40625 27.984375 
Q 45.40625 37.75 41.375 43.109375 
Q 37.359375 48.484375 30.078125 48.484375 
Q 22.859375 48.484375 18.828125 43.109375 
Q 14.796875 37.75 14.796875 27.984375 
Q 14.796875 18.265625 18.828125 12.890625 
Q 22.859375 7.515625 30.078125 7.515625 
Q 37.359375 7.515625 41.375 12.890625 
Q 45.40625 18.265625 45.40625 27.984375 
M 54.390625 6.78125 
Q 54.390625 -7.171875 48.1875 -13.984375 
Q 42 -20.796875 29.203125 -20.796875 
Q 24.46875 -20.796875 20.265625 -20.09375 
Q 16.0625 -19.390625 12.109375 -17.921875 
L 12.109375 -9.1875 
Q 16.0625 -11.328125 19.921875 -12.34375 
Q 23.78125 -13.375 27.78125 -13.375 
Q 36.625 -13.375 41.015625 -8.765625 
Q 45.40625 -4.15625 45.40625 5.171875 
L 45.40625 9.625 
Q 42.625 4.78125 38.28125 2.390625 
Q 33.9375 0 27.875 0 
Q 17.828125 0 11.671875 7.65625 
Q 5.515625 15.328125 5.515625 27.984375 
Q 5.515625 40.671875 11.671875 48.328125 
Q 17.828125 56 27.875 56 
Q 33.9375 56 38.28125 53.609375 
Q 42.625 51.21875 45.40625 46.390625 
L 45.40625 54.6875 
L 54.390625 54.6875 
z
" id="DejaVuSans-67"/>
      <path id="DejaVuSans-20"/>
      <path d="M 31 75.875 
Q 24.46875 64.65625 21.28125 53.65625 
Q 18.109375 42.671875 18.109375 31.390625 
Q 18.109375 20.125 21.3125 9.0625 
Q 24.515625 -2 31 -13.1875 
L 23.1875 -13.1875 
Q 15.875 -1.703125 12.234375 9.375 
Q 8.59375 20.453125 8.59375 31.390625 
Q 8.59375 42.28125 12.203125 53.3125 
Q 15.828125 64.359375 23.1875 75.875 
z
" id="DejaVuSans-28"/>
      <path d="M 34.1875 63.1875 
L 20.796875 26.90625 
L 47.609375 26.90625 
z
M 28.609375 72.90625 
L 39.796875 72.90625 
L 67.578125 0 
L 57.328125 0 
L 50.6875 18.703125 
L 17.828125 18.703125 
L 11.1875 0 
L 0.78125 0 
z
" id="DejaVuSans-41"/>
      <path d="M 8.6875 72.90625 
L 18.609375 72.90625 
L 18.609375 28.609375 
Q 18.609375 16.890625 22.84375 11.734375 
Q 27.09375 6.59375 36.625 6.59375 
Q 46.09375 6.59375 50.34375 11.734375 
Q 54.59375 16.890625 54.59375 28.609375 
L 54.59375 72.90625 
L 64.5 72.90625 
L 64.5 27.390625 
Q 64.5 13.140625 57.4375 5.859375 
Q 50.390625 -1.421875 36.625 -1.421875 
Q 22.796875 -1.421875 15.734375 5.859375 
Q 8.6875 13.140625 8.6875 27.390625 
z
" id="DejaVuSans-55"/>
      <path d="M 10.59375 45.40625 
L 73.1875 45.40625 
L 73.1875 37.203125 
L 10.59375 37.203125 
z
M 10.59375 25.484375 
L 73.1875 25.484375 
L 73.1875 17.1875 
L 10.59375 17.1875 
z
" id="DejaVuSans-3d"/>
      <path d="M 72.703125 32.078125 
Q 68.453125 32.078125 66.03125 28.46875 
Q 63.625 24.859375 63.625 18.40625 
Q 63.625 12.0625 66.03125 8.421875 
Q 68.453125 4.78125 72.703125 4.78125 
Q 76.859375 4.78125 79.265625 8.421875 
Q 81.6875 12.0625 81.6875 18.40625 
Q 81.6875 24.8125 79.265625 28.4375 
Q 76.859375 32.078125 72.703125 32.078125 
M 72.703125 38.28125 
Q 80.421875 38.28125 84.953125 32.90625 
Q 89.5 27.546875 89.5 18.40625 
Q 89.5 9.28125 84.9375 3.921875 
Q 80.375 -1.421875 72.703125 -1.421875 
Q 64.890625 -1.421875 60.34375 3.921875 
Q 55.8125 9.28125 55.8125 18.40625 
Q 55.8125 27.59375 60.375 32.9375 
Q 64.9375 38.28125 72.703125 38.28125 
M 22.3125 68.015625 
Q 18.109375 68.015625 15.6875 64.375 
Q 13.28125 60.75 13.28125 54.390625 
Q 13.28125 47.953125 15.671875 44.328125 
Q 18.0625 40.71875 22.3125 40.71875 
Q 26.5625 40.71875 28.96875 44.328125 
Q 31.390625 47.953125 31.390625 54.390625 
Q 31.390625 60.6875 28.953125 64.34375 
Q 26.515625 68.015625 22.3125 68.015625 
M 66.40625 74.21875 
L 74.21875 74.21875 
L 28.609375 -1.421875 
L 20.796875 -1.421875 
z
M 22.3125 74.21875 
Q 30.03125 74.21875 34.609375 68.875 
Q 39.203125 63.53125 39.203125 54.390625 
Q 39.203125 45.171875 34.640625 39.84375 
Q 30.078125 34.515625 22.3125 34.515625 
Q 14.546875 34.515625 10.03125 39.859375 
Q 5.515625 45.21875 5.515625 54.390625 
Q 5.515625 63.484375 10.046875 68.84375 
Q 14.59375 74.21875 22.3125 74.21875 
" id="DejaVuSans-25"/>
      <path d="M 8.015625 75.875 
L 15.828125 75.875 
Q 23.140625 64.359375 26.78125 53.3125 
Q 30.421875 42.28125 30.421875 31.390625 
Q 30.421875 20.453125 26.78125 9.375 
Q 23.140625 -1.703125 15.828125 -13.1875 
L 8.015625 -13.1875 
Q 14.5 -2 17.703125 9.0625 
Q 20.90625 20.125 20.90625 31.390625 
Q 20.90625 42.671875 17.703125 53.65625 
Q 14.5 64.65625 8.015625 75.875 
" id="DejaVuSans-29"/>
     </defs>
     <g style="fill:#262626;" transform="translate(63.097578 177.265228)scale(0.075 -0.075)">
      <use xlink:href="#DejaVuSans-54"/>
      <use x="60.865234" xlink:href="#DejaVuSans-72"/>
      <use x="101.978516" xlink:href="#DejaVuSans-61"/>
      <use x="163.257812" xlink:href="#DejaVuSans-69"/>
      <use x="191.041016" xlink:href="#DejaVuSans-6e"/>
      <use x="254.419922" xlink:href="#DejaVuSans-69"/>
      <use x="282.203125" xlink:href="#DejaVuSans-6e"/>
      <use x="345.582031" xlink:href="#DejaVuSans-67"/>
      <use x="409.058594" xlink:href="#DejaVuSans-20"/>
      <use x="440.845703" xlink:href="#DejaVuSans-28"/>
      <use x="479.859375" xlink:href="#DejaVuSans-41"/>
      <use x="548.267578" xlink:href="#DejaVuSans-55"/>
      <use x="621.460938" xlink:href="#DejaVuSans-50"/>
      <use x="681.763672" xlink:href="#DejaVuSans-52"/>
      <use x="751.246094" xlink:href="#DejaVuSans-20"/>
      <use x="783.033203" xlink:href="#DejaVuSans-3d"/>
      <use x="866.822266" xlink:href="#DejaVuSans-20"/>
      <use x="898.609375" xlink:href="#DejaVuSans-32"/>
      <use x="962.232422" xlink:href="#DejaVuSans-30"/>
      <use x="1025.855469" xlink:href="#DejaVuSans-2e"/>
      <use x="1057.642578" xlink:href="#DejaVuSans-32"/>
      <use x="1121.265625" xlink:href="#DejaVuSans-25"/>
      <use x="1216.285156" xlink:href="#DejaVuSans-29"/>
     </g>
    </g>
    <g id="line2d_30">
     <path d="M 42.097578 185.648822 
L 57.097578 185.648822 
" style="fill:none;stroke:#008000;stroke-linecap:round;stroke-width:2;"/>
    </g>
    <g id="line2d_31"/>
    <g id="text_16">
     <!-- Testing (AUPR = 16.8%) -->
     <defs>
      <path d="M 18.3125 70.21875 
L 18.3125 54.6875 
L 36.8125 54.6875 
L 36.8125 47.703125 
L 18.3125 47.703125 
L 18.3125 18.015625 
Q 18.3125 11.328125 20.140625 9.421875 
Q 21.96875 7.515625 27.59375 7.515625 
L 36.8125 7.515625 
L 36.8125 0 
L 27.59375 0 
Q 17.1875 0 13.234375 3.875 
Q 9.28125 7.765625 9.28125 18.015625 
L 9.28125 47.703125 
L 2.6875 47.703125 
L 2.6875 54.6875 
L 9.28125 54.6875 
L 9.28125 70.21875 
z
" id="DejaVuSans-74"/>
     </defs>
     <g style="fill:#262626;" transform="translate(63.097578 188.273822)scale(0.075 -0.075)">
      <use xlink:href="#DejaVuSans-54"/>
      <use x="60.818359" xlink:href="#DejaVuSans-65"/>
      <use x="122.341797" xlink:href="#DejaVuSans-73"/>
      <use x="174.441406" xlink:href="#DejaVuSans-74"/>
      <use x="213.650391" xlink:href="#DejaVuSans-69"/>
      <use x="241.433594" xlink:href="#DejaVuSans-6e"/>
      <use x="304.8125" xlink:href="#DejaVuSans-67"/>
      <use x="368.289062" xlink:href="#DejaVuSans-20"/>
      <use x="400.076172" xlink:href="#DejaVuSans-28"/>
      <use x="439.089844" xlink:href="#DejaVuSans-41"/>
      <use x="507.498047" xlink:href="#DejaVuSans-55"/>
      <use x="580.691406" xlink:href="#DejaVuSans-50"/>
      <use x="640.994141" xlink:href="#DejaVuSans-52"/>
      <use x="710.476562" xlink:href="#DejaVuSans-20"/>
      <use x="742.263672" xlink:href="#DejaVuSans-3d"/>
      <use x="826.052734" xlink:href="#DejaVuSans-20"/>
      <use x="857.839844" xlink:href="#DejaVuSans-31"/>
      <use x="921.462891" xlink:href="#DejaVuSans-36"/>
      <use x="985.085938" xlink:href="#DejaVuSans-2e"/>
      <use x="1016.873047" xlink:href="#DejaVuSans-38"/>
      <use x="1080.496094" xlink:href="#DejaVuSans-25"/>
      <use x="1175.515625" xlink:href="#DejaVuSans-29"/>
     </g>
    </g>
    <g id="line2d_32">
     <path d="M 42.097578 196.657416 
L 57.097578 196.657416 
" style="fill:none;stroke:#ffa500;stroke-linecap:round;stroke-width:2;"/>
    </g>
    <g id="line2d_33"/>
    <g id="text_17">
     <!-- CV (AUPR = 15.8%) -->
     <defs>
      <path d="M 64.40625 67.28125 
L 64.40625 56.890625 
Q 59.421875 61.53125 53.78125 63.8125 
Q 48.140625 66.109375 41.796875 66.109375 
Q 29.296875 66.109375 22.65625 58.46875 
Q 16.015625 50.828125 16.015625 36.375 
Q 16.015625 21.96875 22.65625 14.328125 
Q 29.296875 6.6875 41.796875 6.6875 
Q 48.140625 6.6875 53.78125 8.984375 
Q 59.421875 11.28125 64.40625 15.921875 
L 64.40625 5.609375 
Q 59.234375 2.09375 53.4375 0.328125 
Q 47.65625 -1.421875 41.21875 -1.421875 
Q 24.65625 -1.421875 15.125 8.703125 
Q 5.609375 18.84375 5.609375 36.375 
Q 5.609375 53.953125 15.125 64.078125 
Q 24.65625 74.21875 41.21875 74.21875 
Q 47.75 74.21875 53.53125 72.484375 
Q 59.328125 70.75 64.40625 67.28125 
" id="DejaVuSans-43"/>
      <path d="M 28.609375 0 
L 0.78125 72.90625 
L 11.078125 72.90625 
L 34.1875 11.53125 
L 57.328125 72.90625 
L 67.578125 72.90625 
L 39.796875 0 
z
" id="DejaVuSans-56"/>
      <path d="M 10.796875 72.90625 
L 49.515625 72.90625 
L 49.515625 64.59375 
L 19.828125 64.59375 
L 19.828125 46.734375 
Q 21.96875 47.46875 24.109375 47.828125 
Q 26.265625 48.1875 28.421875 48.1875 
Q 40.625 48.1875 47.75 41.5 
Q 54.890625 34.8125 54.890625 23.390625 
Q 54.890625 11.625 47.5625 5.09375 
Q 40.234375 -1.421875 26.90625 -1.421875 
Q 22.3125 -1.421875 17.546875 -0.640625 
Q 12.796875 0.140625 7.71875 1.703125 
L 7.71875 11.625 
Q 12.109375 9.234375 16.796875 8.0625 
Q 21.484375 6.890625 26.703125 6.890625 
Q 35.15625 6.890625 40.078125 11.328125 
Q 45.015625 15.765625 45.015625 23.390625 
Q 45.015625 31 40.078125 35.4375 
Q 35.15625 39.890625 26.703125 39.890625 
Q 22.75 39.890625 18.8125 39.015625 
Q 14.890625 38.140625 10.796875 36.28125 
z
" id="DejaVuSans-35"/>
     </defs>
     <g style="fill:#262626;" transform="translate(63.097578 199.282416)scale(0.075 -0.075)">
      <use xlink:href="#DejaVuSans-43"/>
      <use x="69.824219" xlink:href="#DejaVuSans-56"/>
      <use x="138.232422" xlink:href="#DejaVuSans-20"/>
      <use x="170.019531" xlink:href="#DejaVuSans-28"/>
      <use x="209.033203" xlink:href="#DejaVuSans-41"/>
      <use x="277.441406" xlink:href="#DejaVuSans-55"/>
      <use x="350.634766" xlink:href="#DejaVuSans-50"/>
      <use x="410.9375" xlink:href="#DejaVuSans-52"/>
      <use x="480.419922" xlink:href="#DejaVuSans-20"/>
      <use x="512.207031" xlink:href="#DejaVuSans-3d"/>
      <use x="595.996094" xlink:href="#DejaVuSans-20"/>
      <use x="627.783203" xlink:href="#DejaVuSans-31"/>
      <use x="691.40625" xlink:href="#DejaVuSans-35"/>
      <use x="755.029297" xlink:href="#DejaVuSans-2e"/>
      <use x="786.816406" xlink:href="#DejaVuSans-38"/>
      <use x="850.439453" xlink:href="#DejaVuSans-25"/>
      <use x="945.458984" xlink:href="#DejaVuSans-29"/>
     </g>
    </g>
   </g>
  </g>
 </g>
 <defs>
  <clipPath id="p73ec320074">
   <rect height="129.3" width="138.975" x="35.165" y="7.2"/>
  </clipPath>
 </defs>
</svg>
