<?xml version="1.0" encoding="utf-8" standalone="no"?>
<!DOCTYPE svg PUBLIC "-//W3C//DTD SVG 1.1//EN"
  "http://www.w3.org/Graphics/SVG/1.1/DTD/svg11.dtd">
<!-- Created with matplotlib (http://matplotlib.org/) -->
<svg height="211pt" version="1.1" viewBox="0 0 187 211" width="187pt" xmlns="http://www.w3.org/2000/svg" xmlns:xlink="http://www.w3.org/1999/xlink">
 <defs>
  <style type="text/css">
*{stroke-linecap:butt;stroke-linejoin:round;}
  </style>
 </defs>
 <g id="figure_1">
  <g id="patch_1">
   <path d="M 0 211.042181 
L 187.70125 211.042181 
L 187.70125 0 
L 0 0 
z
" style="fill:#ffffff;"/>
  </g>
  <g id="axes_1">
   <g id="patch_2">
    <path d="M 35.165 136.5 
L 174.14 136.5 
L 174.14 7.2 
L 35.165 7.2 
z
" style="fill:#ffffff;"/>
   </g>
   <g id="matplotlib.axis_1">
    <g id="xtick_1">
     <g id="line2d_1">
      <path clip-path="url(#p329bd73afd)" d="M 35.165 136.5 
L 35.165 7.2 
" style="fill:none;stroke:#cccccc;stroke-linecap:round;stroke-width:0.8;"/>
     </g>
     <g id="line2d_2"/>
     <g id="text_1">
      <!-- 0.0 -->
      <defs>
       <path d="M 31.78125 66.40625 
Q 24.171875 66.40625 20.328125 58.90625 
Q 16.5 51.421875 16.5 36.375 
Q 16.5 21.390625 20.328125 13.890625 
Q 24.171875 6.390625 31.78125 6.390625 
Q 39.453125 6.390625 43.28125 13.890625 
Q 47.125 21.390625 47.125 36.375 
Q 47.125 51.421875 43.28125 58.90625 
Q 39.453125 66.40625 31.78125 66.40625 
M 31.78125 74.21875 
Q 44.046875 74.21875 50.515625 64.515625 
Q 56.984375 54.828125 56.984375 36.375 
Q 56.984375 17.96875 50.515625 8.265625 
Q 44.046875 -1.421875 31.78125 -1.421875 
Q 19.53125 -1.421875 13.0625 8.265625 
Q 6.59375 17.96875 6.59375 36.375 
Q 6.59375 54.828125 13.0625 64.515625 
Q 19.53125 74.21875 31.78125 74.21875 
" id="DejaVuSans-30"/>
       <path d="M 10.6875 12.40625 
L 21 12.40625 
L 21 0 
L 10.6875 0 
z
" id="DejaVuSans-2e"/>
      </defs>
      <g style="fill:#262626;" transform="translate(28.80375 146.07875)scale(0.08 -0.08)">
       <use xlink:href="#DejaVuSans-30"/>
       <use x="63.623047" xlink:href="#DejaVuSans-2e"/>
       <use x="95.410156" xlink:href="#DejaVuSans-30"/>
      </g>
     </g>
    </g>
    <g id="xtick_2">
     <g id="line2d_3">
      <path clip-path="url(#p329bd73afd)" d="M 62.96 136.5 
L 62.96 7.2 
" style="fill:none;stroke:#cccccc;stroke-linecap:round;stroke-width:0.8;"/>
     </g>
     <g id="line2d_4"/>
     <g id="text_2">
      <!-- 0.2 -->
      <defs>
       <path d="M 19.1875 8.296875 
L 53.609375 8.296875 
L 53.609375 0 
L 7.328125 0 
L 7.328125 8.296875 
Q 12.9375 14.109375 22.625 23.890625 
Q 32.328125 33.6875 34.8125 36.53125 
Q 39.546875 41.84375 41.421875 45.53125 
Q 43.3125 49.21875 43.3125 52.78125 
Q 43.3125 58.59375 39.234375 62.25 
Q 35.15625 65.921875 28.609375 65.921875 
Q 23.96875 65.921875 18.8125 64.3125 
Q 13.671875 62.703125 7.8125 59.421875 
L 7.8125 69.390625 
Q 13.765625 71.78125 18.9375 73 
Q 24.125 74.21875 28.421875 74.21875 
Q 39.75 74.21875 46.484375 68.546875 
Q 53.21875 62.890625 53.21875 53.421875 
Q 53.21875 48.921875 51.53125 44.890625 
Q 49.859375 40.875 45.40625 35.40625 
Q 44.1875 33.984375 37.640625 27.21875 
Q 31.109375 20.453125 19.1875 8.296875 
" id="DejaVuSans-32"/>
      </defs>
      <g style="fill:#262626;" transform="translate(56.59875 146.07875)scale(0.08 -0.08)">
       <use xlink:href="#DejaVuSans-30"/>
       <use x="63.623047" xlink:href="#DejaVuSans-2e"/>
       <use x="95.410156" xlink:href="#DejaVuSans-32"/>
      </g>
     </g>
    </g>
    <g id="xtick_3">
     <g id="line2d_5">
      <path clip-path="url(#p329bd73afd)" d="M 90.755 136.5 
L 90.755 7.2 
" style="fill:none;stroke:#cccccc;stroke-linecap:round;stroke-width:0.8;"/>
     </g>
     <g id="line2d_6"/>
     <g id="text_3">
      <!-- 0.4 -->
      <defs>
       <path d="M 37.796875 64.3125 
L 12.890625 25.390625 
L 37.796875 25.390625 
z
M 35.203125 72.90625 
L 47.609375 72.90625 
L 47.609375 25.390625 
L 58.015625 25.390625 
L 58.015625 17.1875 
L 47.609375 17.1875 
L 47.609375 0 
L 37.796875 0 
L 37.796875 17.1875 
L 4.890625 17.1875 
L 4.890625 26.703125 
z
" id="DejaVuSans-34"/>
      </defs>
      <g style="fill:#262626;" transform="translate(84.39375 146.07875)scale(0.08 -0.08)">
       <use xlink:href="#DejaVuSans-30"/>
       <use x="63.623047" xlink:href="#DejaVuSans-2e"/>
       <use x="95.410156" xlink:href="#DejaVuSans-34"/>
      </g>
     </g>
    </g>
    <g id="xtick_4">
     <g id="line2d_7">
      <path clip-path="url(#p329bd73afd)" d="M 118.55 136.5 
L 118.55 7.2 
" style="fill:none;stroke:#cccccc;stroke-linecap:round;stroke-width:0.8;"/>
     </g>
     <g id="line2d_8"/>
     <g id="text_4">
      <!-- 0.6 -->
      <defs>
       <path d="M 33.015625 40.375 
Q 26.375 40.375 22.484375 35.828125 
Q 18.609375 31.296875 18.609375 23.390625 
Q 18.609375 15.53125 22.484375 10.953125 
Q 26.375 6.390625 33.015625 6.390625 
Q 39.65625 6.390625 43.53125 10.953125 
Q 47.40625 15.53125 47.40625 23.390625 
Q 47.40625 31.296875 43.53125 35.828125 
Q 39.65625 40.375 33.015625 40.375 
M 52.59375 71.296875 
L 52.59375 62.3125 
Q 48.875 64.0625 45.09375 64.984375 
Q 41.3125 65.921875 37.59375 65.921875 
Q 27.828125 65.921875 22.671875 59.328125 
Q 17.53125 52.734375 16.796875 39.40625 
Q 19.671875 43.65625 24.015625 45.921875 
Q 28.375 48.1875 33.59375 48.1875 
Q 44.578125 48.1875 50.953125 41.515625 
Q 57.328125 34.859375 57.328125 23.390625 
Q 57.328125 12.15625 50.6875 5.359375 
Q 44.046875 -1.421875 33.015625 -1.421875 
Q 20.359375 -1.421875 13.671875 8.265625 
Q 6.984375 17.96875 6.984375 36.375 
Q 6.984375 53.65625 15.1875 63.9375 
Q 23.390625 74.21875 37.203125 74.21875 
Q 40.921875 74.21875 44.703125 73.484375 
Q 48.484375 72.75 52.59375 71.296875 
" id="DejaVuSans-36"/>
      </defs>
      <g style="fill:#262626;" transform="translate(112.18875 146.07875)scale(0.08 -0.08)">
       <use xlink:href="#DejaVuSans-30"/>
       <use x="63.623047" xlink:href="#DejaVuSans-2e"/>
       <use x="95.410156" xlink:href="#DejaVuSans-36"/>
      </g>
     </g>
    </g>
    <g id="xtick_5">
     <g id="line2d_9">
      <path clip-path="url(#p329bd73afd)" d="M 146.345 136.5 
L 146.345 7.2 
" style="fill:none;stroke:#cccccc;stroke-linecap:round;stroke-width:0.8;"/>
     </g>
     <g id="line2d_10"/>
     <g id="text_5">
      <!-- 0.8 -->
      <defs>
       <path d="M 31.78125 34.625 
Q 24.75 34.625 20.71875 30.859375 
Q 16.703125 27.09375 16.703125 20.515625 
Q 16.703125 13.921875 20.71875 10.15625 
Q 24.75 6.390625 31.78125 6.390625 
Q 38.8125 6.390625 42.859375 10.171875 
Q 46.921875 13.96875 46.921875 20.515625 
Q 46.921875 27.09375 42.890625 30.859375 
Q 38.875 34.625 31.78125 34.625 
M 21.921875 38.8125 
Q 15.578125 40.375 12.03125 44.71875 
Q 8.5 49.078125 8.5 55.328125 
Q 8.5 64.0625 14.71875 69.140625 
Q 20.953125 74.21875 31.78125 74.21875 
Q 42.671875 74.21875 48.875 69.140625 
Q 55.078125 64.0625 55.078125 55.328125 
Q 55.078125 49.078125 51.53125 44.71875 
Q 48 40.375 41.703125 38.8125 
Q 48.828125 37.15625 52.796875 32.3125 
Q 56.78125 27.484375 56.78125 20.515625 
Q 56.78125 9.90625 50.3125 4.234375 
Q 43.84375 -1.421875 31.78125 -1.421875 
Q 19.734375 -1.421875 13.25 4.234375 
Q 6.78125 9.90625 6.78125 20.515625 
Q 6.78125 27.484375 10.78125 32.3125 
Q 14.796875 37.15625 21.921875 38.8125 
M 18.3125 54.390625 
Q 18.3125 48.734375 21.84375 45.5625 
Q 25.390625 42.390625 31.78125 42.390625 
Q 38.140625 42.390625 41.71875 45.5625 
Q 45.3125 48.734375 45.3125 54.390625 
Q 45.3125 60.0625 41.71875 63.234375 
Q 38.140625 66.40625 31.78125 66.40625 
Q 25.390625 66.40625 21.84375 63.234375 
Q 18.3125 60.0625 18.3125 54.390625 
" id="DejaVuSans-38"/>
      </defs>
      <g style="fill:#262626;" transform="translate(139.98375 146.07875)scale(0.08 -0.08)">
       <use xlink:href="#DejaVuSans-30"/>
       <use x="63.623047" xlink:href="#DejaVuSans-2e"/>
       <use x="95.410156" xlink:href="#DejaVuSans-38"/>
      </g>
     </g>
    </g>
    <g id="xtick_6">
     <g id="line2d_11">
      <path clip-path="url(#p329bd73afd)" d="M 174.14 136.5 
L 174.14 7.2 
" style="fill:none;stroke:#cccccc;stroke-linecap:round;stroke-width:0.8;"/>
     </g>
     <g id="line2d_12"/>
     <g id="text_6">
      <!-- 1.0 -->
      <defs>
       <path d="M 12.40625 8.296875 
L 28.515625 8.296875 
L 28.515625 63.921875 
L 10.984375 60.40625 
L 10.984375 69.390625 
L 28.421875 72.90625 
L 38.28125 72.90625 
L 38.28125 8.296875 
L 54.390625 8.296875 
L 54.390625 0 
L 12.40625 0 
z
" id="DejaVuSans-31"/>
      </defs>
      <g style="fill:#262626;" transform="translate(167.77875 146.07875)scale(0.08 -0.08)">
       <use xlink:href="#DejaVuSans-31"/>
       <use x="63.623047" xlink:href="#DejaVuSans-2e"/>
       <use x="95.410156" xlink:href="#DejaVuSans-30"/>
      </g>
     </g>
    </g>
    <g id="text_7">
     <!-- False Positive Rate -->
     <defs>
      <path d="M 9.8125 72.90625 
L 51.703125 72.90625 
L 51.703125 64.59375 
L 19.671875 64.59375 
L 19.671875 43.109375 
L 48.578125 43.109375 
L 48.578125 34.8125 
L 19.671875 34.8125 
L 19.671875 0 
L 9.8125 0 
z
" id="DejaVuSans-46"/>
      <path d="M 34.28125 27.484375 
Q 23.390625 27.484375 19.1875 25 
Q 14.984375 22.515625 14.984375 16.5 
Q 14.984375 11.71875 18.140625 8.90625 
Q 21.296875 6.109375 26.703125 6.109375 
Q 34.1875 6.109375 38.703125 11.40625 
Q 43.21875 16.703125 43.21875 25.484375 
L 43.21875 27.484375 
z
M 52.203125 31.203125 
L 52.203125 0 
L 43.21875 0 
L 43.21875 8.296875 
Q 40.140625 3.328125 35.546875 0.953125 
Q 30.953125 -1.421875 24.3125 -1.421875 
Q 15.921875 -1.421875 10.953125 3.296875 
Q 6 8.015625 6 15.921875 
Q 6 25.140625 12.171875 29.828125 
Q 18.359375 34.515625 30.609375 34.515625 
L 43.21875 34.515625 
L 43.21875 35.40625 
Q 43.21875 41.609375 39.140625 45 
Q 35.0625 48.390625 27.6875 48.390625 
Q 23 48.390625 18.546875 47.265625 
Q 14.109375 46.140625 10.015625 43.890625 
L 10.015625 52.203125 
Q 14.9375 54.109375 19.578125 55.046875 
Q 24.21875 56 28.609375 56 
Q 40.484375 56 46.34375 49.84375 
Q 52.203125 43.703125 52.203125 31.203125 
" id="DejaVuSans-61"/>
      <path d="M 9.421875 75.984375 
L 18.40625 75.984375 
L 18.40625 0 
L 9.421875 0 
z
" id="DejaVuSans-6c"/>
      <path d="M 44.28125 53.078125 
L 44.28125 44.578125 
Q 40.484375 46.53125 36.375 47.5 
Q 32.28125 48.484375 27.875 48.484375 
Q 21.1875 48.484375 17.84375 46.4375 
Q 14.5 44.390625 14.5 40.28125 
Q 14.5 37.15625 16.890625 35.375 
Q 19.28125 33.59375 26.515625 31.984375 
L 29.59375 31.296875 
Q 39.15625 29.25 43.1875 25.515625 
Q 47.21875 21.78125 47.21875 15.09375 
Q 47.21875 7.46875 41.1875 3.015625 
Q 35.15625 -1.421875 24.609375 -1.421875 
Q 20.21875 -1.421875 15.453125 -0.5625 
Q 10.6875 0.296875 5.421875 2 
L 5.421875 11.28125 
Q 10.40625 8.6875 15.234375 7.390625 
Q 20.0625 6.109375 24.8125 6.109375 
Q 31.15625 6.109375 34.5625 8.28125 
Q 37.984375 10.453125 37.984375 14.40625 
Q 37.984375 18.0625 35.515625 20.015625 
Q 33.0625 21.96875 24.703125 23.78125 
L 21.578125 24.515625 
Q 13.234375 26.265625 9.515625 29.90625 
Q 5.8125 33.546875 5.8125 39.890625 
Q 5.8125 47.609375 11.28125 51.796875 
Q 16.75 56 26.8125 56 
Q 31.78125 56 36.171875 55.265625 
Q 40.578125 54.546875 44.28125 53.078125 
" id="DejaVuSans-73"/>
      <path d="M 56.203125 29.59375 
L 56.203125 25.203125 
L 14.890625 25.203125 
Q 15.484375 15.921875 20.484375 11.0625 
Q 25.484375 6.203125 34.421875 6.203125 
Q 39.59375 6.203125 44.453125 7.46875 
Q 49.3125 8.734375 54.109375 11.28125 
L 54.109375 2.78125 
Q 49.265625 0.734375 44.1875 -0.34375 
Q 39.109375 -1.421875 33.890625 -1.421875 
Q 20.796875 -1.421875 13.15625 6.1875 
Q 5.515625 13.8125 5.515625 26.8125 
Q 5.515625 40.234375 12.765625 48.109375 
Q 20.015625 56 32.328125 56 
Q 43.359375 56 49.78125 48.890625 
Q 56.203125 41.796875 56.203125 29.59375 
M 47.21875 32.234375 
Q 47.125 39.59375 43.09375 43.984375 
Q 39.0625 48.390625 32.421875 48.390625 
Q 24.90625 48.390625 20.390625 44.140625 
Q 15.875 39.890625 15.1875 32.171875 
z
" id="DejaVuSans-65"/>
      <path id="DejaVuSans-20"/>
      <path d="M 19.671875 64.796875 
L 19.671875 37.40625 
L 32.078125 37.40625 
Q 38.96875 37.40625 42.71875 40.96875 
Q 46.484375 44.53125 46.484375 51.125 
Q 46.484375 57.671875 42.71875 61.234375 
Q 38.96875 64.796875 32.078125 64.796875 
z
M 9.8125 72.90625 
L 32.078125 72.90625 
Q 44.34375 72.90625 50.609375 67.359375 
Q 56.890625 61.8125 56.890625 51.125 
Q 56.890625 40.328125 50.609375 34.8125 
Q 44.34375 29.296875 32.078125 29.296875 
L 19.671875 29.296875 
L 19.671875 0 
L 9.8125 0 
z
" id="DejaVuSans-50"/>
      <path d="M 30.609375 48.390625 
Q 23.390625 48.390625 19.1875 42.75 
Q 14.984375 37.109375 14.984375 27.296875 
Q 14.984375 17.484375 19.15625 11.84375 
Q 23.34375 6.203125 30.609375 6.203125 
Q 37.796875 6.203125 41.984375 11.859375 
Q 46.1875 17.53125 46.1875 27.296875 
Q 46.1875 37.015625 41.984375 42.703125 
Q 37.796875 48.390625 30.609375 48.390625 
M 30.609375 56 
Q 42.328125 56 49.015625 48.375 
Q 55.71875 40.765625 55.71875 27.296875 
Q 55.71875 13.875 49.015625 6.21875 
Q 42.328125 -1.421875 30.609375 -1.421875 
Q 18.84375 -1.421875 12.171875 6.21875 
Q 5.515625 13.875 5.515625 27.296875 
Q 5.515625 40.765625 12.171875 48.375 
Q 18.84375 56 30.609375 56 
" id="DejaVuSans-6f"/>
      <path d="M 9.421875 54.6875 
L 18.40625 54.6875 
L 18.40625 0 
L 9.421875 0 
z
M 9.421875 75.984375 
L 18.40625 75.984375 
L 18.40625 64.59375 
L 9.421875 64.59375 
z
" id="DejaVuSans-69"/>
      <path d="M 18.3125 70.21875 
L 18.3125 54.6875 
L 36.8125 54.6875 
L 36.8125 47.703125 
L 18.3125 47.703125 
L 18.3125 18.015625 
Q 18.3125 11.328125 20.140625 9.421875 
Q 21.96875 7.515625 27.59375 7.515625 
L 36.8125 7.515625 
L 36.8125 0 
L 27.59375 0 
Q 17.1875 0 13.234375 3.875 
Q 9.28125 7.765625 9.28125 18.015625 
L 9.28125 47.703125 
L 2.6875 47.703125 
L 2.6875 54.6875 
L 9.28125 54.6875 
L 9.28125 70.21875 
z
" id="DejaVuSans-74"/>
      <path d="M 2.984375 54.6875 
L 12.5 54.6875 
L 29.59375 8.796875 
L 46.6875 54.6875 
L 56.203125 54.6875 
L 35.6875 0 
L 23.484375 0 
z
" id="DejaVuSans-76"/>
      <path d="M 44.390625 34.1875 
Q 47.5625 33.109375 50.5625 29.59375 
Q 53.5625 26.078125 56.59375 19.921875 
L 66.609375 0 
L 56 0 
L 46.6875 18.703125 
Q 43.0625 26.03125 39.671875 28.421875 
Q 36.28125 30.8125 30.421875 30.8125 
L 19.671875 30.8125 
L 19.671875 0 
L 9.8125 0 
L 9.8125 72.90625 
L 32.078125 72.90625 
Q 44.578125 72.90625 50.734375 67.671875 
Q 56.890625 62.453125 56.890625 51.90625 
Q 56.890625 45.015625 53.6875 40.46875 
Q 50.484375 35.9375 44.390625 34.1875 
M 19.671875 64.796875 
L 19.671875 38.921875 
L 32.078125 38.921875 
Q 39.203125 38.921875 42.84375 42.21875 
Q 46.484375 45.515625 46.484375 51.90625 
Q 46.484375 58.296875 42.84375 61.546875 
Q 39.203125 64.796875 32.078125 64.796875 
z
" id="DejaVuSans-52"/>
     </defs>
     <g style="fill:#262626;" transform="translate(66.888125 157.82125)scale(0.08 -0.08)">
      <use xlink:href="#DejaVuSans-46"/>
      <use x="57.378906" xlink:href="#DejaVuSans-61"/>
      <use x="118.658203" xlink:href="#DejaVuSans-6c"/>
      <use x="146.441406" xlink:href="#DejaVuSans-73"/>
      <use x="198.541016" xlink:href="#DejaVuSans-65"/>
      <use x="260.064453" xlink:href="#DejaVuSans-20"/>
      <use x="291.851562" xlink:href="#DejaVuSans-50"/>
      <use x="352.107422" xlink:href="#DejaVuSans-6f"/>
      <use x="413.289062" xlink:href="#DejaVuSans-73"/>
      <use x="465.388672" xlink:href="#DejaVuSans-69"/>
      <use x="493.171875" xlink:href="#DejaVuSans-74"/>
      <use x="532.380859" xlink:href="#DejaVuSans-69"/>
      <use x="560.164062" xlink:href="#DejaVuSans-76"/>
      <use x="619.34375" xlink:href="#DejaVuSans-65"/>
      <use x="680.867188" xlink:href="#DejaVuSans-20"/>
      <use x="712.654297" xlink:href="#DejaVuSans-52"/>
      <use x="782.105469" xlink:href="#DejaVuSans-61"/>
      <use x="843.384766" xlink:href="#DejaVuSans-74"/>
      <use x="882.59375" xlink:href="#DejaVuSans-65"/>
     </g>
    </g>
   </g>
   <g id="matplotlib.axis_2">
    <g id="ytick_1">
     <g id="line2d_13">
      <path clip-path="url(#p329bd73afd)" d="M 35.165 136.5 
L 174.14 136.5 
" style="fill:none;stroke:#cccccc;stroke-linecap:round;stroke-width:0.8;"/>
     </g>
     <g id="line2d_14"/>
     <g id="text_8">
      <!-- 0.0 -->
      <g style="fill:#262626;" transform="translate(18.9425 139.539375)scale(0.08 -0.08)">
       <use xlink:href="#DejaVuSans-30"/>
       <use x="63.623047" xlink:href="#DejaVuSans-2e"/>
       <use x="95.410156" xlink:href="#DejaVuSans-30"/>
      </g>
     </g>
    </g>
    <g id="ytick_2">
     <g id="line2d_15">
      <path clip-path="url(#p329bd73afd)" d="M 35.165 111.871429 
L 174.14 111.871429 
" style="fill:none;stroke:#cccccc;stroke-linecap:round;stroke-width:0.8;"/>
     </g>
     <g id="line2d_16"/>
     <g id="text_9">
      <!-- 0.2 -->
      <g style="fill:#262626;" transform="translate(18.9425 114.910804)scale(0.08 -0.08)">
       <use xlink:href="#DejaVuSans-30"/>
       <use x="63.623047" xlink:href="#DejaVuSans-2e"/>
       <use x="95.410156" xlink:href="#DejaVuSans-32"/>
      </g>
     </g>
    </g>
    <g id="ytick_3">
     <g id="line2d_17">
      <path clip-path="url(#p329bd73afd)" d="M 35.165 87.242857 
L 174.14 87.242857 
" style="fill:none;stroke:#cccccc;stroke-linecap:round;stroke-width:0.8;"/>
     </g>
     <g id="line2d_18"/>
     <g id="text_10">
      <!-- 0.4 -->
      <g style="fill:#262626;" transform="translate(18.9425 90.282232)scale(0.08 -0.08)">
       <use xlink:href="#DejaVuSans-30"/>
       <use x="63.623047" xlink:href="#DejaVuSans-2e"/>
       <use x="95.410156" xlink:href="#DejaVuSans-34"/>
      </g>
     </g>
    </g>
    <g id="ytick_4">
     <g id="line2d_19">
      <path clip-path="url(#p329bd73afd)" d="M 35.165 62.614286 
L 174.14 62.614286 
" style="fill:none;stroke:#cccccc;stroke-linecap:round;stroke-width:0.8;"/>
     </g>
     <g id="line2d_20"/>
     <g id="text_11">
      <!-- 0.6 -->
      <g style="fill:#262626;" transform="translate(18.9425 65.653661)scale(0.08 -0.08)">
       <use xlink:href="#DejaVuSans-30"/>
       <use x="63.623047" xlink:href="#DejaVuSans-2e"/>
       <use x="95.410156" xlink:href="#DejaVuSans-36"/>
      </g>
     </g>
    </g>
    <g id="ytick_5">
     <g id="line2d_21">
      <path clip-path="url(#p329bd73afd)" d="M 35.165 37.985714 
L 174.14 37.985714 
" style="fill:none;stroke:#cccccc;stroke-linecap:round;stroke-width:0.8;"/>
     </g>
     <g id="line2d_22"/>
     <g id="text_12">
      <!-- 0.8 -->
      <g style="fill:#262626;" transform="translate(18.9425 41.025089)scale(0.08 -0.08)">
       <use xlink:href="#DejaVuSans-30"/>
       <use x="63.623047" xlink:href="#DejaVuSans-2e"/>
       <use x="95.410156" xlink:href="#DejaVuSans-38"/>
      </g>
     </g>
    </g>
    <g id="ytick_6">
     <g id="line2d_23">
      <path clip-path="url(#p329bd73afd)" d="M 35.165 13.357143 
L 174.14 13.357143 
" style="fill:none;stroke:#cccccc;stroke-linecap:round;stroke-width:0.8;"/>
     </g>
     <g id="line2d_24"/>
     <g id="text_13">
      <!-- 1.0 -->
      <g style="fill:#262626;" transform="translate(18.9425 16.396518)scale(0.08 -0.08)">
       <use xlink:href="#DejaVuSans-31"/>
       <use x="63.623047" xlink:href="#DejaVuSans-2e"/>
       <use x="95.410156" xlink:href="#DejaVuSans-30"/>
      </g>
     </g>
    </g>
    <g id="text_14">
     <!-- True Positive Rate -->
     <defs>
      <path d="M -0.296875 72.90625 
L 61.375 72.90625 
L 61.375 64.59375 
L 35.5 64.59375 
L 35.5 0 
L 25.59375 0 
L 25.59375 64.59375 
L -0.296875 64.59375 
z
" id="DejaVuSans-54"/>
      <path d="M 41.109375 46.296875 
Q 39.59375 47.171875 37.8125 47.578125 
Q 36.03125 48 33.890625 48 
Q 26.265625 48 22.1875 43.046875 
Q 18.109375 38.09375 18.109375 28.8125 
L 18.109375 0 
L 9.078125 0 
L 9.078125 54.6875 
L 18.109375 54.6875 
L 18.109375 46.1875 
Q 20.953125 51.171875 25.484375 53.578125 
Q 30.03125 56 36.53125 56 
Q 37.453125 56 38.578125 55.875 
Q 39.703125 55.765625 41.0625 55.515625 
z
" id="DejaVuSans-72"/>
      <path d="M 8.5 21.578125 
L 8.5 54.6875 
L 17.484375 54.6875 
L 17.484375 21.921875 
Q 17.484375 14.15625 20.5 10.265625 
Q 23.53125 6.390625 29.59375 6.390625 
Q 36.859375 6.390625 41.078125 11.03125 
Q 45.3125 15.671875 45.3125 23.6875 
L 45.3125 54.6875 
L 54.296875 54.6875 
L 54.296875 0 
L 45.3125 0 
L 45.3125 8.40625 
Q 42.046875 3.421875 37.71875 1 
Q 33.40625 -1.421875 27.6875 -1.421875 
Q 18.265625 -1.421875 13.375 4.4375 
Q 8.5 10.296875 8.5 21.578125 
M 31.109375 56 
z
" id="DejaVuSans-75"/>
     </defs>
     <g style="fill:#262626;" transform="translate(13.27875 108.286875)rotate(-90)scale(0.08 -0.08)">
      <use xlink:href="#DejaVuSans-54"/>
      <use x="60.865234" xlink:href="#DejaVuSans-72"/>
      <use x="101.978516" xlink:href="#DejaVuSans-75"/>
      <use x="165.357422" xlink:href="#DejaVuSans-65"/>
      <use x="226.880859" xlink:href="#DejaVuSans-20"/>
      <use x="258.667969" xlink:href="#DejaVuSans-50"/>
      <use x="318.923828" xlink:href="#DejaVuSans-6f"/>
      <use x="380.105469" xlink:href="#DejaVuSans-73"/>
      <use x="432.205078" xlink:href="#DejaVuSans-69"/>
      <use x="459.988281" xlink:href="#DejaVuSans-74"/>
      <use x="499.197266" xlink:href="#DejaVuSans-69"/>
      <use x="526.980469" xlink:href="#DejaVuSans-76"/>
      <use x="586.160156" xlink:href="#DejaVuSans-65"/>
      <use x="647.683594" xlink:href="#DejaVuSans-20"/>
      <use x="679.470703" xlink:href="#DejaVuSans-52"/>
      <use x="748.921875" xlink:href="#DejaVuSans-61"/>
      <use x="810.201172" xlink:href="#DejaVuSans-74"/>
      <use x="849.410156" xlink:href="#DejaVuSans-65"/>
     </g>
    </g>
   </g>
   <g id="line2d_25">
    <path clip-path="url(#p329bd73afd)" d="M 35.165 135.349132 
L 36.00501 135.349132 
L 36.00501 133.047397 
L 36.098345 133.047397 
L 36.565017 133.047397 
L 36.565017 131.896529 
L 36.658351 131.896529 
L 37.591696 131.896529 
L 37.591696 130.745661 
L 37.68503 130.745661 
L 37.778365 130.745661 
L 37.778365 129.594793 
L 37.871699 129.594793 
L 38.058368 129.594793 
L 38.058368 128.443925 
L 38.151702 128.443925 
L 38.338371 128.443925 
L 38.338371 127.293057 
L 38.431706 127.293057 
L 38.805044 127.293057 
L 38.898378 124.991322 
L 39.551719 124.991322 
L 39.551719 123.840454 
L 39.645054 123.840454 
L 39.925057 123.840454 
L 40.018392 120.38785 
L 40.20506 120.38785 
L 40.20506 119.236983 
L 40.298395 119.236983 
L 40.485064 119.236983 
L 40.485064 118.086115 
L 40.578398 118.086115 
L 41.138405 118.086115 
L 41.138405 116.935247 
L 41.231739 116.935247 
L 41.325074 116.935247 
L 41.418408 114.633511 
L 41.511743 114.633511 
L 41.511743 113.482644 
L 41.605077 113.482644 
L 42.071749 113.482644 
L 42.165084 111.180908 
L 42.631756 111.180908 
L 42.631756 110.03004 
L 42.725091 110.03004 
L 42.91176 110.03004 
L 43.005094 107.728304 
L 44.498445 107.728304 
L 44.498445 106.577437 
L 44.59178 106.577437 
L 45.058452 106.577437 
L 45.058452 105.426569 
L 45.151786 105.426569 
L 46.085131 105.426569 
L 46.085131 104.275701 
L 46.178465 104.275701 
L 46.551803 104.275701 
L 46.645138 101.973965 
L 48.138489 101.973965 
L 48.138489 100.823097 
L 48.231823 100.823097 
L 49.351837 100.823097 
L 49.351837 99.67223 
L 49.445171 99.67223 
L 49.538506 99.67223 
L 49.538506 97.370494 
L 49.63184 97.370494 
L 50.565185 97.370494 
L 50.565185 96.219626 
L 50.658519 96.219626 
L 51.405195 96.219626 
L 51.405195 95.068758 
L 51.498529 95.068758 
L 51.591864 95.068758 
L 51.591864 93.917891 
L 51.685198 93.917891 
L 53.831891 93.917891 
L 53.831891 92.767023 
L 53.925225 92.767023 
L 54.485232 92.767023 
L 54.485232 91.616155 
L 54.578566 91.616155 
L 55.231907 91.616155 
L 55.231907 90.465287 
L 55.325242 90.465287 
L 55.418576 90.465287 
L 55.418576 89.314419 
L 55.511911 89.314419 
L 56.071917 89.314419 
L 56.071917 88.163551 
L 56.165252 88.163551 
L 57.005262 88.163551 
L 57.005262 87.012684 
L 57.098596 87.012684 
L 57.471934 87.012684 
L 57.471934 85.861816 
L 57.565269 85.861816 
L 58.591948 85.861816 
L 58.685282 83.56008 
L 59.05862 83.56008 
L 59.05862 82.409212 
L 59.151954 82.409212 
L 63.072001 82.409212 
L 63.072001 81.258344 
L 63.165336 81.258344 
L 65.498697 81.258344 
L 65.498697 80.107477 
L 65.592032 80.107477 
L 66.058704 80.107477 
L 66.058704 78.956609 
L 66.152038 78.956609 
L 66.432042 78.956609 
L 66.432042 77.805741 
L 66.525376 77.805741 
L 66.898714 77.805741 
L 66.898714 76.654873 
L 66.992048 76.654873 
L 67.178717 76.654873 
L 67.178717 75.504005 
L 67.272052 75.504005 
L 68.205396 75.504005 
L 68.205396 74.353138 
L 68.298731 74.353138 
L 68.765403 74.353138 
L 68.765403 73.20227 
L 68.858737 73.20227 
L 72.032109 73.20227 
L 72.032109 72.051402 
L 72.125443 72.051402 
L 72.405447 72.051402 
L 72.405447 70.900534 
L 72.498781 70.900534 
L 73.058788 70.900534 
L 73.058788 69.749666 
L 73.152122 69.749666 
L 75.298815 69.749666 
L 75.298815 68.598798 
L 75.392149 68.598798 
L 75.672152 68.598798 
L 75.765487 66.297063 
L 76.138825 66.297063 
L 76.138825 65.146195 
L 76.232159 65.146195 
L 79.965537 65.146195 
L 79.965537 63.995327 
L 80.058872 63.995327 
L 80.898882 63.995327 
L 80.992216 61.693591 
L 81.458889 61.693591 
L 81.458889 60.542724 
L 81.552223 60.542724 
L 82.485567 60.542724 
L 82.485567 59.391856 
L 82.578902 59.391856 
L 85.192267 59.391856 
L 85.192267 58.240988 
L 85.285601 58.240988 
L 85.845608 58.240988 
L 85.845608 57.09012 
L 85.938942 57.09012 
L 86.685618 57.09012 
L 86.778952 54.788385 
L 89.298983 54.788385 
L 89.298983 53.637517 
L 89.392317 53.637517 
L 89.67232 53.637517 
L 89.67232 52.486649 
L 89.765655 52.486649 
L 90.138993 52.486649 
L 90.138993 51.335781 
L 90.232327 51.335781 
L 90.605665 51.335781 
L 90.605665 50.184913 
L 90.698999 50.184913 
L 90.979003 50.184913 
L 90.979003 49.034045 
L 91.072337 49.034045 
L 91.725678 49.034045 
L 91.725678 47.883178 
L 91.819013 47.883178 
L 93.405698 47.883178 
L 93.405698 46.73231 
L 93.499033 46.73231 
L 93.872371 46.73231 
L 93.872371 45.581442 
L 93.965705 45.581442 
L 98.352424 45.581442 
L 98.445759 43.279706 
L 103.579154 43.279706 
L 103.579154 42.128838 
L 103.672488 42.128838 
L 105.165839 42.128838 
L 105.165839 40.977971 
L 105.259174 40.977971 
L 105.352508 40.977971 
L 105.352508 39.827103 
L 105.445843 39.827103 
L 109.085887 39.827103 
L 109.085887 38.676235 
L 109.179221 38.676235 
L 112.259258 38.676235 
L 112.259258 37.525367 
L 112.352592 37.525367 
L 113.005934 37.525367 
L 113.005934 36.374499 
L 113.099268 36.374499 
L 114.312616 36.374499 
L 114.312616 35.223632 
L 114.40595 35.223632 
L 115.619298 35.223632 
L 115.619298 34.072764 
L 115.712633 34.072764 
L 116.739312 34.072764 
L 116.739312 32.921896 
L 116.832646 32.921896 
L 116.925981 32.921896 
L 116.925981 31.771028 
L 117.019315 31.771028 
L 117.112649 31.771028 
L 117.112649 30.62016 
L 117.205984 30.62016 
L 117.299318 30.62016 
L 117.299318 29.469292 
L 117.392653 29.469292 
L 129.992804 29.469292 
L 129.992804 28.318425 
L 130.086138 28.318425 
L 131.112817 28.318425 
L 131.112817 27.167557 
L 131.206152 27.167557 
L 133.166175 27.167557 
L 133.166175 26.016689 
L 133.25951 26.016689 
L 135.686206 26.016689 
L 135.686206 24.865821 
L 135.77954 24.865821 
L 144.646313 24.865821 
L 144.646313 23.714953 
L 144.739647 23.714953 
L 145.486323 23.714953 
L 145.486323 22.564085 
L 145.579657 22.564085 
L 152.393073 22.564085 
L 152.393073 21.413218 
L 152.486407 21.413218 
L 152.953079 21.413218 
L 152.953079 19.111482 
L 153.046414 19.111482 
L 153.60642 19.111482 
L 153.60642 17.960614 
L 153.699755 17.960614 
L 154.259762 17.960614 
L 154.259762 16.809746 
L 154.353096 16.809746 
L 161.446514 16.809746 
L 161.446514 15.658879 
L 161.539849 15.658879 
L 163.686541 15.658879 
L 163.686541 14.508011 
L 163.779876 14.508011 
L 169.753281 14.508011 
L 169.753281 13.357143 
L 169.846615 13.357143 
L 174.14 13.357143 
L 174.14 13.357143 
" style="fill:none;stroke:#0000ff;stroke-linecap:round;stroke-width:2;"/>
   </g>
   <g id="line2d_26">
    <path clip-path="url(#p329bd73afd)" d="M 35.165 136.5 
L 37.691818 136.5 
L 37.691818 117.554945 
L 43.587727 117.554945 
L 43.587727 108.082418 
L 46.114545 108.082418 
L 46.114545 98.60989 
L 47.799091 98.60989 
L 47.799091 89.137363 
L 48.641364 89.137363 
L 48.641364 79.664835 
L 54.537273 79.664835 
L 54.537273 70.192308 
L 62.96 70.192308 
L 62.96 60.71978 
L 76.436364 60.71978 
L 76.436364 51.247253 
L 91.597273 51.247253 
L 91.597273 41.774725 
L 110.127273 41.774725 
L 110.127273 32.302198 
L 139.606818 32.302198 
L 139.606818 22.82967 
L 143.818182 22.82967 
L 143.818182 13.357143 
L 174.14 13.357143 
L 174.14 13.357143 
" style="fill:none;stroke:#008000;stroke-linecap:round;stroke-width:2;"/>
   </g>
   <g id="line2d_27">
    <path clip-path="url(#p329bd73afd)" d="M 35.165 136.5 
L 37.218358 136.5 
L 37.218358 135.349132 
L 37.311692 135.349132 
L 37.778365 135.349132 
L 37.778365 133.047397 
L 37.871699 133.047397 
L 37.965034 133.047397 
L 37.965034 131.896529 
L 38.058368 131.896529 
L 38.151702 131.896529 
L 38.151702 130.745661 
L 38.245037 130.745661 
L 38.431706 130.745661 
L 38.431706 128.443925 
L 38.52504 128.443925 
L 40.111726 128.443925 
L 40.20506 126.14219 
L 40.765067 126.14219 
L 40.765067 124.991322 
L 40.858402 124.991322 
L 42.351753 124.991322 
L 42.351753 123.840454 
L 42.445087 123.840454 
L 42.538422 123.840454 
L 42.538422 121.538718 
L 42.631756 121.538718 
L 43.285097 121.538718 
L 43.285097 120.38785 
L 43.378432 120.38785 
L 44.218442 120.38785 
L 44.311776 118.086115 
L 44.405111 118.086115 
L 44.405111 116.935247 
L 44.498445 116.935247 
L 44.59178 116.935247 
L 44.59178 115.784379 
L 44.685114 115.784379 
L 45.151786 115.784379 
L 45.151786 114.633511 
L 45.245121 114.633511 
L 46.085131 114.633511 
L 46.085131 112.331776 
L 46.178465 112.331776 
L 46.365134 112.331776 
L 46.365134 111.180908 
L 46.458469 111.180908 
L 47.391813 111.180908 
L 47.391813 110.03004 
L 47.485148 110.03004 
L 49.351837 110.03004 
L 49.351837 108.879172 
L 49.445171 108.879172 
L 49.818509 108.879172 
L 49.818509 107.728304 
L 49.911844 107.728304 
L 51.31186 107.728304 
L 51.31186 106.577437 
L 51.405195 106.577437 
L 52.245205 106.577437 
L 52.245205 105.426569 
L 52.338539 105.426569 
L 53.365218 105.426569 
L 53.365218 104.275701 
L 53.458553 104.275701 
L 54.018559 104.275701 
L 54.018559 103.124833 
L 54.111894 103.124833 
L 55.231907 103.124833 
L 55.231907 101.973965 
L 55.325242 101.973965 
L 55.511911 101.973965 
L 55.511911 100.823097 
L 55.605245 100.823097 
L 55.69858 100.823097 
L 55.69858 99.67223 
L 55.791914 99.67223 
L 56.631924 99.67223 
L 56.631924 98.521362 
L 56.725259 98.521362 
L 58.685282 98.521362 
L 58.685282 96.219626 
L 58.778617 96.219626 
L 60.458637 96.219626 
L 60.458637 95.068758 
L 60.551971 95.068758 
L 61.111978 95.068758 
L 61.111978 93.917891 
L 61.205312 93.917891 
L 61.671985 93.917891 
L 61.671985 91.616155 
L 61.765319 91.616155 
L 61.858653 91.616155 
L 61.858653 90.465287 
L 61.951988 90.465287 
L 62.325326 90.465287 
L 62.325326 89.314419 
L 62.41866 89.314419 
L 63.538674 89.314419 
L 63.538674 88.163551 
L 63.632008 88.163551 
L 67.085383 88.163551 
L 67.085383 85.861816 
L 67.178717 85.861816 
L 67.272052 85.861816 
L 67.272052 84.710948 
L 67.365386 84.710948 
L 68.952072 84.710948 
L 68.952072 82.409212 
L 69.045406 82.409212 
L 71.565437 82.409212 
L 71.565437 81.258344 
L 71.658771 81.258344 
L 72.312112 81.258344 
L 72.312112 80.107477 
L 72.405447 80.107477 
L 73.152122 80.107477 
L 73.152122 78.956609 
L 73.245457 78.956609 
L 79.965537 78.956609 
L 79.965537 77.805741 
L 80.058872 77.805741 
L 81.925561 77.805741 
L 81.925561 76.654873 
L 82.018895 76.654873 
L 82.578902 76.654873 
L 82.578902 75.504005 
L 82.672236 75.504005 
L 86.405615 75.504005 
L 86.405615 74.353138 
L 86.498949 74.353138 
L 89.018979 74.353138 
L 89.018979 73.20227 
L 89.112314 73.20227 
L 92.659023 73.20227 
L 92.659023 72.051402 
L 92.752357 72.051402 
L 93.032361 72.051402 
L 93.032361 70.900534 
L 93.125695 70.900534 
L 95.272388 70.900534 
L 95.272388 69.749666 
L 95.365722 69.749666 
L 95.73906 69.749666 
L 95.73906 68.598798 
L 95.832394 68.598798 
L 96.765739 68.598798 
L 96.765739 66.297063 
L 96.859073 66.297063 
L 97.139077 66.297063 
L 97.139077 65.146195 
L 97.232411 65.146195 
L 97.792418 65.146195 
L 97.792418 63.995327 
L 97.885752 63.995327 
L 97.979087 63.995327 
L 97.979087 62.844459 
L 98.072421 62.844459 
L 98.912431 62.844459 
L 98.912431 61.693591 
L 99.005766 61.693591 
L 101.992468 61.693591 
L 101.992468 60.542724 
L 102.085803 60.542724 
L 102.179137 60.542724 
L 102.179137 59.391856 
L 102.272471 59.391856 
L 104.605833 59.391856 
L 104.605833 58.240988 
L 104.699167 58.240988 
L 105.072505 58.240988 
L 105.072505 55.939252 
L 105.165839 55.939252 
L 107.219197 55.939252 
L 107.219197 54.788385 
L 107.312532 54.788385 
L 112.819265 54.788385 
L 112.819265 53.637517 
L 112.912599 53.637517 
L 113.659275 53.637517 
L 113.659275 52.486649 
L 113.752609 52.486649 
L 114.125947 52.486649 
L 114.125947 51.335781 
L 114.219281 51.335781 
L 115.152626 51.335781 
L 115.152626 50.184913 
L 115.24596 50.184913 
L 115.339295 50.184913 
L 115.339295 47.883178 
L 115.432629 47.883178 
L 118.979338 47.883178 
L 118.979338 46.73231 
L 119.072673 46.73231 
L 120.47269 46.73231 
L 120.47269 45.581442 
L 120.566024 45.581442 
L 122.339379 45.581442 
L 122.339379 44.430574 
L 122.432713 44.430574 
L 122.712717 44.430574 
L 122.712717 42.128838 
L 122.806051 42.128838 
L 124.206068 42.128838 
L 124.206068 40.977971 
L 124.299402 40.977971 
L 125.139412 40.977971 
L 125.139412 39.827103 
L 125.232747 39.827103 
L 129.619466 39.827103 
L 129.619466 38.676235 
L 129.712801 38.676235 
L 129.899469 38.676235 
L 129.899469 37.525367 
L 129.992804 37.525367 
L 131.392821 37.525367 
L 131.392821 36.374499 
L 131.486155 36.374499 
L 135.77954 36.374499 
L 135.872874 34.072764 
L 140.726266 34.072764 
L 140.726266 32.921896 
L 140.8196 32.921896 
L 141.286273 32.921896 
L 141.286273 31.771028 
L 141.379607 31.771028 
L 143.806303 31.771028 
L 143.806303 30.62016 
L 143.899637 30.62016 
L 145.20632 30.62016 
L 145.20632 29.469292 
L 145.299654 29.469292 
L 145.486323 29.469292 
L 145.486323 28.318425 
L 145.579657 28.318425 
L 148.659694 28.318425 
L 148.659694 27.167557 
L 148.753029 27.167557 
L 150.806387 27.167557 
L 150.806387 26.016689 
L 150.899721 26.016689 
L 153.979758 26.016689 
L 153.979758 24.865821 
L 154.073093 24.865821 
L 159.579825 24.865821 
L 159.579825 23.714953 
L 159.67316 23.714953 
L 161.35318 23.714953 
L 161.35318 22.564085 
L 161.446514 22.564085 
L 161.633183 22.564085 
L 161.633183 21.413218 
L 161.726518 21.413218 
L 163.0332 21.413218 
L 163.0332 20.26235 
L 163.126535 20.26235 
L 168.259929 20.26235 
L 168.259929 19.111482 
L 168.353264 19.111482 
L 170.406622 19.111482 
L 170.406622 17.960614 
L 170.499956 17.960614 
L 170.593291 17.960614 
L 170.686625 15.658879 
L 171.899973 15.658879 
L 171.899973 14.508011 
L 171.993308 14.508011 
L 173.019987 14.508011 
L 173.019987 13.357143 
L 173.113321 13.357143 
L 174.14 13.357143 
L 174.14 13.357143 
" style="fill:none;stroke:#ffa500;stroke-linecap:round;stroke-width:2;"/>
   </g>
   <g id="patch_3">
    <path d="M 35.165 136.5 
L 35.165 7.2 
" style="fill:none;stroke:#cccccc;stroke-linecap:square;stroke-linejoin:miter;"/>
   </g>
   <g id="patch_4">
    <path d="M 174.14 136.5 
L 174.14 7.2 
" style="fill:none;stroke:#cccccc;stroke-linecap:square;stroke-linejoin:miter;"/>
   </g>
   <g id="patch_5">
    <path d="M 35.165 136.5 
L 174.14 136.5 
" style="fill:none;stroke:#cccccc;stroke-linecap:square;stroke-linejoin:miter;"/>
   </g>
   <g id="patch_6">
    <path d="M 35.165 7.2 
L 174.14 7.2 
" style="fill:none;stroke:#cccccc;stroke-linecap:square;stroke-linejoin:miter;"/>
   </g>
   <g id="legend_1">
    <g id="line2d_28">
     <path d="M 35.478828 174.640228 
L 50.478828 174.640228 
" style="fill:none;stroke:#0000ff;stroke-linecap:round;stroke-width:2;"/>
    </g>
    <g id="line2d_29"/>
    <g id="text_15">
     <!-- Training (AUROC = 69.5%) -->
     <defs>
      <path d="M 54.890625 33.015625 
L 54.890625 0 
L 45.90625 0 
L 45.90625 32.71875 
Q 45.90625 40.484375 42.875 44.328125 
Q 39.84375 48.1875 33.796875 48.1875 
Q 26.515625 48.1875 22.3125 43.546875 
Q 18.109375 38.921875 18.109375 30.90625 
L 18.109375 0 
L 9.078125 0 
L 9.078125 54.6875 
L 18.109375 54.6875 
L 18.109375 46.1875 
Q 21.34375 51.125 25.703125 53.5625 
Q 30.078125 56 35.796875 56 
Q 45.21875 56 50.046875 50.171875 
Q 54.890625 44.34375 54.890625 33.015625 
" id="DejaVuSans-6e"/>
      <path d="M 45.40625 27.984375 
Q 45.40625 37.75 41.375 43.109375 
Q 37.359375 48.484375 30.078125 48.484375 
Q 22.859375 48.484375 18.828125 43.109375 
Q 14.796875 37.75 14.796875 27.984375 
Q 14.796875 18.265625 18.828125 12.890625 
Q 22.859375 7.515625 30.078125 7.515625 
Q 37.359375 7.515625 41.375 12.890625 
Q 45.40625 18.265625 45.40625 27.984375 
M 54.390625 6.78125 
Q 54.390625 -7.171875 48.1875 -13.984375 
Q 42 -20.796875 29.203125 -20.796875 
Q 24.46875 -20.796875 20.265625 -20.09375 
Q 16.0625 -19.390625 12.109375 -17.921875 
L 12.109375 -9.1875 
Q 16.0625 -11.328125 19.921875 -12.34375 
Q 23.78125 -13.375 27.78125 -13.375 
Q 36.625 -13.375 41.015625 -8.765625 
Q 45.40625 -4.15625 45.40625 5.171875 
L 45.40625 9.625 
Q 42.625 4.78125 38.28125 2.390625 
Q 33.9375 0 27.875 0 
Q 17.828125 0 11.671875 7.65625 
Q 5.515625 15.328125 5.515625 27.984375 
Q 5.515625 40.671875 11.671875 48.328125 
Q 17.828125 56 27.875 56 
Q 33.9375 56 38.28125 53.609375 
Q 42.625 51.21875 45.40625 46.390625 
L 45.40625 54.6875 
L 54.390625 54.6875 
z
" id="DejaVuSans-67"/>
      <path d="M 31 75.875 
Q 24.46875 64.65625 21.28125 53.65625 
Q 18.109375 42.671875 18.109375 31.390625 
Q 18.109375 20.125 21.3125 9.0625 
Q 24.515625 -2 31 -13.1875 
L 23.1875 -13.1875 
Q 15.875 -1.703125 12.234375 9.375 
Q 8.59375 20.453125 8.59375 31.390625 
Q 8.59375 42.28125 12.203125 53.3125 
Q 15.828125 64.359375 23.1875 75.875 
z
" id="DejaVuSans-28"/>
      <path d="M 34.1875 63.1875 
L 20.796875 26.90625 
L 47.609375 26.90625 
z
M 28.609375 72.90625 
L 39.796875 72.90625 
L 67.578125 0 
L 57.328125 0 
L 50.6875 18.703125 
L 17.828125 18.703125 
L 11.1875 0 
L 0.78125 0 
z
" id="DejaVuSans-41"/>
      <path d="M 8.6875 72.90625 
L 18.609375 72.90625 
L 18.609375 28.609375 
Q 18.609375 16.890625 22.84375 11.734375 
Q 27.09375 6.59375 36.625 6.59375 
Q 46.09375 6.59375 50.34375 11.734375 
Q 54.59375 16.890625 54.59375 28.609375 
L 54.59375 72.90625 
L 64.5 72.90625 
L 64.5 27.390625 
Q 64.5 13.140625 57.4375 5.859375 
Q 50.390625 -1.421875 36.625 -1.421875 
Q 22.796875 -1.421875 15.734375 5.859375 
Q 8.6875 13.140625 8.6875 27.390625 
z
" id="DejaVuSans-55"/>
      <path d="M 39.40625 66.21875 
Q 28.65625 66.21875 22.328125 58.203125 
Q 16.015625 50.203125 16.015625 36.375 
Q 16.015625 22.609375 22.328125 14.59375 
Q 28.65625 6.59375 39.40625 6.59375 
Q 50.140625 6.59375 56.421875 14.59375 
Q 62.703125 22.609375 62.703125 36.375 
Q 62.703125 50.203125 56.421875 58.203125 
Q 50.140625 66.21875 39.40625 66.21875 
M 39.40625 74.21875 
Q 54.734375 74.21875 63.90625 63.9375 
Q 73.09375 53.65625 73.09375 36.375 
Q 73.09375 19.140625 63.90625 8.859375 
Q 54.734375 -1.421875 39.40625 -1.421875 
Q 24.03125 -1.421875 14.8125 8.828125 
Q 5.609375 19.09375 5.609375 36.375 
Q 5.609375 53.65625 14.8125 63.9375 
Q 24.03125 74.21875 39.40625 74.21875 
" id="DejaVuSans-4f"/>
      <path d="M 64.40625 67.28125 
L 64.40625 56.890625 
Q 59.421875 61.53125 53.78125 63.8125 
Q 48.140625 66.109375 41.796875 66.109375 
Q 29.296875 66.109375 22.65625 58.46875 
Q 16.015625 50.828125 16.015625 36.375 
Q 16.015625 21.96875 22.65625 14.328125 
Q 29.296875 6.6875 41.796875 6.6875 
Q 48.140625 6.6875 53.78125 8.984375 
Q 59.421875 11.28125 64.40625 15.921875 
L 64.40625 5.609375 
Q 59.234375 2.09375 53.4375 0.328125 
Q 47.65625 -1.421875 41.21875 -1.421875 
Q 24.65625 -1.421875 15.125 8.703125 
Q 5.609375 18.84375 5.609375 36.375 
Q 5.609375 53.953125 15.125 64.078125 
Q 24.65625 74.21875 41.21875 74.21875 
Q 47.75 74.21875 53.53125 72.484375 
Q 59.328125 70.75 64.40625 67.28125 
" id="DejaVuSans-43"/>
      <path d="M 10.59375 45.40625 
L 73.1875 45.40625 
L 73.1875 37.203125 
L 10.59375 37.203125 
z
M 10.59375 25.484375 
L 73.1875 25.484375 
L 73.1875 17.1875 
L 10.59375 17.1875 
z
" id="DejaVuSans-3d"/>
      <path d="M 10.984375 1.515625 
L 10.984375 10.5 
Q 14.703125 8.734375 18.5 7.8125 
Q 22.3125 6.890625 25.984375 6.890625 
Q 35.75 6.890625 40.890625 13.453125 
Q 46.046875 20.015625 46.78125 33.40625 
Q 43.953125 29.203125 39.59375 26.953125 
Q 35.25 24.703125 29.984375 24.703125 
Q 19.046875 24.703125 12.671875 31.3125 
Q 6.296875 37.9375 6.296875 49.421875 
Q 6.296875 60.640625 12.9375 67.421875 
Q 19.578125 74.21875 30.609375 74.21875 
Q 43.265625 74.21875 49.921875 64.515625 
Q 56.59375 54.828125 56.59375 36.375 
Q 56.59375 19.140625 48.40625 8.859375 
Q 40.234375 -1.421875 26.421875 -1.421875 
Q 22.703125 -1.421875 18.890625 -0.6875 
Q 15.09375 0.046875 10.984375 1.515625 
M 30.609375 32.421875 
Q 37.25 32.421875 41.125 36.953125 
Q 45.015625 41.5 45.015625 49.421875 
Q 45.015625 57.28125 41.125 61.84375 
Q 37.25 66.40625 30.609375 66.40625 
Q 23.96875 66.40625 20.09375 61.84375 
Q 16.21875 57.28125 16.21875 49.421875 
Q 16.21875 41.5 20.09375 36.953125 
Q 23.96875 32.421875 30.609375 32.421875 
" id="DejaVuSans-39"/>
      <path d="M 10.796875 72.90625 
L 49.515625 72.90625 
L 49.515625 64.59375 
L 19.828125 64.59375 
L 19.828125 46.734375 
Q 21.96875 47.46875 24.109375 47.828125 
Q 26.265625 48.1875 28.421875 48.1875 
Q 40.625 48.1875 47.75 41.5 
Q 54.890625 34.8125 54.890625 23.390625 
Q 54.890625 11.625 47.5625 5.09375 
Q 40.234375 -1.421875 26.90625 -1.421875 
Q 22.3125 -1.421875 17.546875 -0.640625 
Q 12.796875 0.140625 7.71875 1.703125 
L 7.71875 11.625 
Q 12.109375 9.234375 16.796875 8.0625 
Q 21.484375 6.890625 26.703125 6.890625 
Q 35.15625 6.890625 40.078125 11.328125 
Q 45.015625 15.765625 45.015625 23.390625 
Q 45.015625 31 40.078125 35.4375 
Q 35.15625 39.890625 26.703125 39.890625 
Q 22.75 39.890625 18.8125 39.015625 
Q 14.890625 38.140625 10.796875 36.28125 
z
" id="DejaVuSans-35"/>
      <path d="M 72.703125 32.078125 
Q 68.453125 32.078125 66.03125 28.46875 
Q 63.625 24.859375 63.625 18.40625 
Q 63.625 12.0625 66.03125 8.421875 
Q 68.453125 4.78125 72.703125 4.78125 
Q 76.859375 4.78125 79.265625 8.421875 
Q 81.6875 12.0625 81.6875 18.40625 
Q 81.6875 24.8125 79.265625 28.4375 
Q 76.859375 32.078125 72.703125 32.078125 
M 72.703125 38.28125 
Q 80.421875 38.28125 84.953125 32.90625 
Q 89.5 27.546875 89.5 18.40625 
Q 89.5 9.28125 84.9375 3.921875 
Q 80.375 -1.421875 72.703125 -1.421875 
Q 64.890625 -1.421875 60.34375 3.921875 
Q 55.8125 9.28125 55.8125 18.40625 
Q 55.8125 27.59375 60.375 32.9375 
Q 64.9375 38.28125 72.703125 38.28125 
M 22.3125 68.015625 
Q 18.109375 68.015625 15.6875 64.375 
Q 13.28125 60.75 13.28125 54.390625 
Q 13.28125 47.953125 15.671875 44.328125 
Q 18.0625 40.71875 22.3125 40.71875 
Q 26.5625 40.71875 28.96875 44.328125 
Q 31.390625 47.953125 31.390625 54.390625 
Q 31.390625 60.6875 28.953125 64.34375 
Q 26.515625 68.015625 22.3125 68.015625 
M 66.40625 74.21875 
L 74.21875 74.21875 
L 28.609375 -1.421875 
L 20.796875 -1.421875 
z
M 22.3125 74.21875 
Q 30.03125 74.21875 34.609375 68.875 
Q 39.203125 63.53125 39.203125 54.390625 
Q 39.203125 45.171875 34.640625 39.84375 
Q 30.078125 34.515625 22.3125 34.515625 
Q 14.546875 34.515625 10.03125 39.859375 
Q 5.515625 45.21875 5.515625 54.390625 
Q 5.515625 63.484375 10.046875 68.84375 
Q 14.59375 74.21875 22.3125 74.21875 
" id="DejaVuSans-25"/>
      <path d="M 8.015625 75.875 
L 15.828125 75.875 
Q 23.140625 64.359375 26.78125 53.3125 
Q 30.421875 42.28125 30.421875 31.390625 
Q 30.421875 20.453125 26.78125 9.375 
Q 23.140625 -1.703125 15.828125 -13.1875 
L 8.015625 -13.1875 
Q 14.5 -2 17.703125 9.0625 
Q 20.90625 20.125 20.90625 31.390625 
Q 20.90625 42.671875 17.703125 53.65625 
Q 14.5 64.65625 8.015625 75.875 
" id="DejaVuSans-29"/>
     </defs>
     <g style="fill:#262626;" transform="translate(56.478828 177.265228)scale(0.075 -0.075)">
      <use xlink:href="#DejaVuSans-54"/>
      <use x="60.865234" xlink:href="#DejaVuSans-72"/>
      <use x="101.978516" xlink:href="#DejaVuSans-61"/>
      <use x="163.257812" xlink:href="#DejaVuSans-69"/>
      <use x="191.041016" xlink:href="#DejaVuSans-6e"/>
      <use x="254.419922" xlink:href="#DejaVuSans-69"/>
      <use x="282.203125" xlink:href="#DejaVuSans-6e"/>
      <use x="345.582031" xlink:href="#DejaVuSans-67"/>
      <use x="409.058594" xlink:href="#DejaVuSans-20"/>
      <use x="440.845703" xlink:href="#DejaVuSans-28"/>
      <use x="479.859375" xlink:href="#DejaVuSans-41"/>
      <use x="548.267578" xlink:href="#DejaVuSans-55"/>
      <use x="621.460938" xlink:href="#DejaVuSans-52"/>
      <use x="690.943359" xlink:href="#DejaVuSans-4f"/>
      <use x="769.654297" xlink:href="#DejaVuSans-43"/>
      <use x="839.478516" xlink:href="#DejaVuSans-20"/>
      <use x="871.265625" xlink:href="#DejaVuSans-3d"/>
      <use x="955.054688" xlink:href="#DejaVuSans-20"/>
      <use x="986.841797" xlink:href="#DejaVuSans-36"/>
      <use x="1050.464844" xlink:href="#DejaVuSans-39"/>
      <use x="1114.087891" xlink:href="#DejaVuSans-2e"/>
      <use x="1145.875" xlink:href="#DejaVuSans-35"/>
      <use x="1209.498047" xlink:href="#DejaVuSans-25"/>
      <use x="1304.517578" xlink:href="#DejaVuSans-29"/>
     </g>
    </g>
    <g id="line2d_30">
     <path d="M 35.478828 185.648822 
L 50.478828 185.648822 
" style="fill:none;stroke:#008000;stroke-linecap:round;stroke-width:2;"/>
    </g>
    <g id="line2d_31"/>
    <g id="text_16">
     <!-- Testing (AUROC = 73.2%) -->
     <defs>
      <path d="M 8.203125 72.90625 
L 55.078125 72.90625 
L 55.078125 68.703125 
L 28.609375 0 
L 18.3125 0 
L 43.21875 64.59375 
L 8.203125 64.59375 
z
" id="DejaVuSans-37"/>
      <path d="M 40.578125 39.3125 
Q 47.65625 37.796875 51.625 33 
Q 55.609375 28.21875 55.609375 21.1875 
Q 55.609375 10.40625 48.1875 4.484375 
Q 40.765625 -1.421875 27.09375 -1.421875 
Q 22.515625 -1.421875 17.65625 -0.515625 
Q 12.796875 0.390625 7.625 2.203125 
L 7.625 11.71875 
Q 11.71875 9.328125 16.59375 8.109375 
Q 21.484375 6.890625 26.8125 6.890625 
Q 36.078125 6.890625 40.9375 10.546875 
Q 45.796875 14.203125 45.796875 21.1875 
Q 45.796875 27.640625 41.28125 31.265625 
Q 36.765625 34.90625 28.71875 34.90625 
L 20.21875 34.90625 
L 20.21875 43.015625 
L 29.109375 43.015625 
Q 36.375 43.015625 40.234375 45.921875 
Q 44.09375 48.828125 44.09375 54.296875 
Q 44.09375 59.90625 40.109375 62.90625 
Q 36.140625 65.921875 28.71875 65.921875 
Q 24.65625 65.921875 20.015625 65.03125 
Q 15.375 64.15625 9.8125 62.3125 
L 9.8125 71.09375 
Q 15.4375 72.65625 20.34375 73.4375 
Q 25.25 74.21875 29.59375 74.21875 
Q 40.828125 74.21875 47.359375 69.109375 
Q 53.90625 64.015625 53.90625 55.328125 
Q 53.90625 49.265625 50.4375 45.09375 
Q 46.96875 40.921875 40.578125 39.3125 
" id="DejaVuSans-33"/>
     </defs>
     <g style="fill:#262626;" transform="translate(56.478828 188.273822)scale(0.075 -0.075)">
      <use xlink:href="#DejaVuSans-54"/>
      <use x="60.818359" xlink:href="#DejaVuSans-65"/>
      <use x="122.341797" xlink:href="#DejaVuSans-73"/>
      <use x="174.441406" xlink:href="#DejaVuSans-74"/>
      <use x="213.650391" xlink:href="#DejaVuSans-69"/>
      <use x="241.433594" xlink:href="#DejaVuSans-6e"/>
      <use x="304.8125" xlink:href="#DejaVuSans-67"/>
      <use x="368.289062" xlink:href="#DejaVuSans-20"/>
      <use x="400.076172" xlink:href="#DejaVuSans-28"/>
      <use x="439.089844" xlink:href="#DejaVuSans-41"/>
      <use x="507.498047" xlink:href="#DejaVuSans-55"/>
      <use x="580.691406" xlink:href="#DejaVuSans-52"/>
      <use x="650.173828" xlink:href="#DejaVuSans-4f"/>
      <use x="728.884766" xlink:href="#DejaVuSans-43"/>
      <use x="798.708984" xlink:href="#DejaVuSans-20"/>
      <use x="830.496094" xlink:href="#DejaVuSans-3d"/>
      <use x="914.285156" xlink:href="#DejaVuSans-20"/>
      <use x="946.072266" xlink:href="#DejaVuSans-37"/>
      <use x="1009.695312" xlink:href="#DejaVuSans-33"/>
      <use x="1073.318359" xlink:href="#DejaVuSans-2e"/>
      <use x="1105.105469" xlink:href="#DejaVuSans-32"/>
      <use x="1168.728516" xlink:href="#DejaVuSans-25"/>
      <use x="1263.748047" xlink:href="#DejaVuSans-29"/>
     </g>
    </g>
    <g id="line2d_32">
     <path d="M 35.478828 196.657416 
L 50.478828 196.657416 
" style="fill:none;stroke:#ffa500;stroke-linecap:round;stroke-width:2;"/>
    </g>
    <g id="line2d_33"/>
    <g id="text_17">
     <!-- CV (AUROC = 60.3%) -->
     <defs>
      <path d="M 28.609375 0 
L 0.78125 72.90625 
L 11.078125 72.90625 
L 34.1875 11.53125 
L 57.328125 72.90625 
L 67.578125 72.90625 
L 39.796875 0 
z
" id="DejaVuSans-56"/>
     </defs>
     <g style="fill:#262626;" transform="translate(56.478828 199.282416)scale(0.075 -0.075)">
      <use xlink:href="#DejaVuSans-43"/>
      <use x="69.824219" xlink:href="#DejaVuSans-56"/>
      <use x="138.232422" xlink:href="#DejaVuSans-20"/>
      <use x="170.019531" xlink:href="#DejaVuSans-28"/>
      <use x="209.033203" xlink:href="#DejaVuSans-41"/>
      <use x="277.441406" xlink:href="#DejaVuSans-55"/>
      <use x="350.634766" xlink:href="#DejaVuSans-52"/>
      <use x="420.117188" xlink:href="#DejaVuSans-4f"/>
      <use x="498.828125" xlink:href="#DejaVuSans-43"/>
      <use x="568.652344" xlink:href="#DejaVuSans-20"/>
      <use x="600.439453" xlink:href="#DejaVuSans-3d"/>
      <use x="684.228516" xlink:href="#DejaVuSans-20"/>
      <use x="716.015625" xlink:href="#DejaVuSans-36"/>
      <use x="779.638672" xlink:href="#DejaVuSans-30"/>
      <use x="843.261719" xlink:href="#DejaVuSans-2e"/>
      <use x="875.048828" xlink:href="#DejaVuSans-33"/>
      <use x="938.671875" xlink:href="#DejaVuSans-25"/>
      <use x="1033.691406" xlink:href="#DejaVuSans-29"/>
     </g>
    </g>
   </g>
  </g>
 </g>
 <defs>
  <clipPath id="p329bd73afd">
   <rect height="129.3" width="138.975" x="35.165" y="7.2"/>
  </clipPath>
 </defs>
</svg>
