<?xml version="1.0" encoding="utf-8" standalone="no"?>
<!DOCTYPE svg PUBLIC "-//W3C//DTD SVG 1.1//EN"
  "http://www.w3.org/Graphics/SVG/1.1/DTD/svg11.dtd">
<!-- Created with matplotlib (http://matplotlib.org/) -->
<svg height="211pt" version="1.1" viewBox="0 0 187 211" width="187pt" xmlns="http://www.w3.org/2000/svg" xmlns:xlink="http://www.w3.org/1999/xlink">
 <defs>
  <style type="text/css">
*{stroke-linecap:butt;stroke-linejoin:round;}
  </style>
 </defs>
 <g id="figure_1">
  <g id="patch_1">
   <path d="M 0 211.042181 
L 187.70125 211.042181 
L 187.70125 0 
L 0 0 
z
" style="fill:#ffffff;"/>
  </g>
  <g id="axes_1">
   <g id="patch_2">
    <path d="M 35.165 136.5 
L 174.14 136.5 
L 174.14 7.2 
L 35.165 7.2 
z
" style="fill:#ffffff;"/>
   </g>
   <g id="matplotlib.axis_1">
    <g id="xtick_1">
     <g id="line2d_1">
      <path clip-path="url(#p969b077394)" d="M 35.165 136.5 
L 35.165 7.2 
" style="fill:none;stroke:#cccccc;stroke-linecap:round;stroke-width:0.8;"/>
     </g>
     <g id="line2d_2"/>
     <g id="text_1">
      <!-- 0.0 -->
      <defs>
       <path d="M 31.78125 66.40625 
Q 24.171875 66.40625 20.328125 58.90625 
Q 16.5 51.421875 16.5 36.375 
Q 16.5 21.390625 20.328125 13.890625 
Q 24.171875 6.390625 31.78125 6.390625 
Q 39.453125 6.390625 43.28125 13.890625 
Q 47.125 21.390625 47.125 36.375 
Q 47.125 51.421875 43.28125 58.90625 
Q 39.453125 66.40625 31.78125 66.40625 
M 31.78125 74.21875 
Q 44.046875 74.21875 50.515625 64.515625 
Q 56.984375 54.828125 56.984375 36.375 
Q 56.984375 17.96875 50.515625 8.265625 
Q 44.046875 -1.421875 31.78125 -1.421875 
Q 19.53125 -1.421875 13.0625 8.265625 
Q 6.59375 17.96875 6.59375 36.375 
Q 6.59375 54.828125 13.0625 64.515625 
Q 19.53125 74.21875 31.78125 74.21875 
" id="DejaVuSans-30"/>
       <path d="M 10.6875 12.40625 
L 21 12.40625 
L 21 0 
L 10.6875 0 
z
" id="DejaVuSans-2e"/>
      </defs>
      <g style="fill:#262626;" transform="translate(28.80375 146.07875)scale(0.08 -0.08)">
       <use xlink:href="#DejaVuSans-30"/>
       <use x="63.623047" xlink:href="#DejaVuSans-2e"/>
       <use x="95.410156" xlink:href="#DejaVuSans-30"/>
      </g>
     </g>
    </g>
    <g id="xtick_2">
     <g id="line2d_3">
      <path clip-path="url(#p969b077394)" d="M 62.96 136.5 
L 62.96 7.2 
" style="fill:none;stroke:#cccccc;stroke-linecap:round;stroke-width:0.8;"/>
     </g>
     <g id="line2d_4"/>
     <g id="text_2">
      <!-- 0.2 -->
      <defs>
       <path d="M 19.1875 8.296875 
L 53.609375 8.296875 
L 53.609375 0 
L 7.328125 0 
L 7.328125 8.296875 
Q 12.9375 14.109375 22.625 23.890625 
Q 32.328125 33.6875 34.8125 36.53125 
Q 39.546875 41.84375 41.421875 45.53125 
Q 43.3125 49.21875 43.3125 52.78125 
Q 43.3125 58.59375 39.234375 62.25 
Q 35.15625 65.921875 28.609375 65.921875 
Q 23.96875 65.921875 18.8125 64.3125 
Q 13.671875 62.703125 7.8125 59.421875 
L 7.8125 69.390625 
Q 13.765625 71.78125 18.9375 73 
Q 24.125 74.21875 28.421875 74.21875 
Q 39.75 74.21875 46.484375 68.546875 
Q 53.21875 62.890625 53.21875 53.421875 
Q 53.21875 48.921875 51.53125 44.890625 
Q 49.859375 40.875 45.40625 35.40625 
Q 44.1875 33.984375 37.640625 27.21875 
Q 31.109375 20.453125 19.1875 8.296875 
" id="DejaVuSans-32"/>
      </defs>
      <g style="fill:#262626;" transform="translate(56.59875 146.07875)scale(0.08 -0.08)">
       <use xlink:href="#DejaVuSans-30"/>
       <use x="63.623047" xlink:href="#DejaVuSans-2e"/>
       <use x="95.410156" xlink:href="#DejaVuSans-32"/>
      </g>
     </g>
    </g>
    <g id="xtick_3">
     <g id="line2d_5">
      <path clip-path="url(#p969b077394)" d="M 90.755 136.5 
L 90.755 7.2 
" style="fill:none;stroke:#cccccc;stroke-linecap:round;stroke-width:0.8;"/>
     </g>
     <g id="line2d_6"/>
     <g id="text_3">
      <!-- 0.4 -->
      <defs>
       <path d="M 37.796875 64.3125 
L 12.890625 25.390625 
L 37.796875 25.390625 
z
M 35.203125 72.90625 
L 47.609375 72.90625 
L 47.609375 25.390625 
L 58.015625 25.390625 
L 58.015625 17.1875 
L 47.609375 17.1875 
L 47.609375 0 
L 37.796875 0 
L 37.796875 17.1875 
L 4.890625 17.1875 
L 4.890625 26.703125 
z
" id="DejaVuSans-34"/>
      </defs>
      <g style="fill:#262626;" transform="translate(84.39375 146.07875)scale(0.08 -0.08)">
       <use xlink:href="#DejaVuSans-30"/>
       <use x="63.623047" xlink:href="#DejaVuSans-2e"/>
       <use x="95.410156" xlink:href="#DejaVuSans-34"/>
      </g>
     </g>
    </g>
    <g id="xtick_4">
     <g id="line2d_7">
      <path clip-path="url(#p969b077394)" d="M 118.55 136.5 
L 118.55 7.2 
" style="fill:none;stroke:#cccccc;stroke-linecap:round;stroke-width:0.8;"/>
     </g>
     <g id="line2d_8"/>
     <g id="text_4">
      <!-- 0.6 -->
      <defs>
       <path d="M 33.015625 40.375 
Q 26.375 40.375 22.484375 35.828125 
Q 18.609375 31.296875 18.609375 23.390625 
Q 18.609375 15.53125 22.484375 10.953125 
Q 26.375 6.390625 33.015625 6.390625 
Q 39.65625 6.390625 43.53125 10.953125 
Q 47.40625 15.53125 47.40625 23.390625 
Q 47.40625 31.296875 43.53125 35.828125 
Q 39.65625 40.375 33.015625 40.375 
M 52.59375 71.296875 
L 52.59375 62.3125 
Q 48.875 64.0625 45.09375 64.984375 
Q 41.3125 65.921875 37.59375 65.921875 
Q 27.828125 65.921875 22.671875 59.328125 
Q 17.53125 52.734375 16.796875 39.40625 
Q 19.671875 43.65625 24.015625 45.921875 
Q 28.375 48.1875 33.59375 48.1875 
Q 44.578125 48.1875 50.953125 41.515625 
Q 57.328125 34.859375 57.328125 23.390625 
Q 57.328125 12.15625 50.6875 5.359375 
Q 44.046875 -1.421875 33.015625 -1.421875 
Q 20.359375 -1.421875 13.671875 8.265625 
Q 6.984375 17.96875 6.984375 36.375 
Q 6.984375 53.65625 15.1875 63.9375 
Q 23.390625 74.21875 37.203125 74.21875 
Q 40.921875 74.21875 44.703125 73.484375 
Q 48.484375 72.75 52.59375 71.296875 
" id="DejaVuSans-36"/>
      </defs>
      <g style="fill:#262626;" transform="translate(112.18875 146.07875)scale(0.08 -0.08)">
       <use xlink:href="#DejaVuSans-30"/>
       <use x="63.623047" xlink:href="#DejaVuSans-2e"/>
       <use x="95.410156" xlink:href="#DejaVuSans-36"/>
      </g>
     </g>
    </g>
    <g id="xtick_5">
     <g id="line2d_9">
      <path clip-path="url(#p969b077394)" d="M 146.345 136.5 
L 146.345 7.2 
" style="fill:none;stroke:#cccccc;stroke-linecap:round;stroke-width:0.8;"/>
     </g>
     <g id="line2d_10"/>
     <g id="text_5">
      <!-- 0.8 -->
      <defs>
       <path d="M 31.78125 34.625 
Q 24.75 34.625 20.71875 30.859375 
Q 16.703125 27.09375 16.703125 20.515625 
Q 16.703125 13.921875 20.71875 10.15625 
Q 24.75 6.390625 31.78125 6.390625 
Q 38.8125 6.390625 42.859375 10.171875 
Q 46.921875 13.96875 46.921875 20.515625 
Q 46.921875 27.09375 42.890625 30.859375 
Q 38.875 34.625 31.78125 34.625 
M 21.921875 38.8125 
Q 15.578125 40.375 12.03125 44.71875 
Q 8.5 49.078125 8.5 55.328125 
Q 8.5 64.0625 14.71875 69.140625 
Q 20.953125 74.21875 31.78125 74.21875 
Q 42.671875 74.21875 48.875 69.140625 
Q 55.078125 64.0625 55.078125 55.328125 
Q 55.078125 49.078125 51.53125 44.71875 
Q 48 40.375 41.703125 38.8125 
Q 48.828125 37.15625 52.796875 32.3125 
Q 56.78125 27.484375 56.78125 20.515625 
Q 56.78125 9.90625 50.3125 4.234375 
Q 43.84375 -1.421875 31.78125 -1.421875 
Q 19.734375 -1.421875 13.25 4.234375 
Q 6.78125 9.90625 6.78125 20.515625 
Q 6.78125 27.484375 10.78125 32.3125 
Q 14.796875 37.15625 21.921875 38.8125 
M 18.3125 54.390625 
Q 18.3125 48.734375 21.84375 45.5625 
Q 25.390625 42.390625 31.78125 42.390625 
Q 38.140625 42.390625 41.71875 45.5625 
Q 45.3125 48.734375 45.3125 54.390625 
Q 45.3125 60.0625 41.71875 63.234375 
Q 38.140625 66.40625 31.78125 66.40625 
Q 25.390625 66.40625 21.84375 63.234375 
Q 18.3125 60.0625 18.3125 54.390625 
" id="DejaVuSans-38"/>
      </defs>
      <g style="fill:#262626;" transform="translate(139.98375 146.07875)scale(0.08 -0.08)">
       <use xlink:href="#DejaVuSans-30"/>
       <use x="63.623047" xlink:href="#DejaVuSans-2e"/>
       <use x="95.410156" xlink:href="#DejaVuSans-38"/>
      </g>
     </g>
    </g>
    <g id="xtick_6">
     <g id="line2d_11">
      <path clip-path="url(#p969b077394)" d="M 174.14 136.5 
L 174.14 7.2 
" style="fill:none;stroke:#cccccc;stroke-linecap:round;stroke-width:0.8;"/>
     </g>
     <g id="line2d_12"/>
     <g id="text_6">
      <!-- 1.0 -->
      <defs>
       <path d="M 12.40625 8.296875 
L 28.515625 8.296875 
L 28.515625 63.921875 
L 10.984375 60.40625 
L 10.984375 69.390625 
L 28.421875 72.90625 
L 38.28125 72.90625 
L 38.28125 8.296875 
L 54.390625 8.296875 
L 54.390625 0 
L 12.40625 0 
z
" id="DejaVuSans-31"/>
      </defs>
      <g style="fill:#262626;" transform="translate(167.77875 146.07875)scale(0.08 -0.08)">
       <use xlink:href="#DejaVuSans-31"/>
       <use x="63.623047" xlink:href="#DejaVuSans-2e"/>
       <use x="95.410156" xlink:href="#DejaVuSans-30"/>
      </g>
     </g>
    </g>
    <g id="text_7">
     <!-- False Positive Rate -->
     <defs>
      <path d="M 9.8125 72.90625 
L 51.703125 72.90625 
L 51.703125 64.59375 
L 19.671875 64.59375 
L 19.671875 43.109375 
L 48.578125 43.109375 
L 48.578125 34.8125 
L 19.671875 34.8125 
L 19.671875 0 
L 9.8125 0 
z
" id="DejaVuSans-46"/>
      <path d="M 34.28125 27.484375 
Q 23.390625 27.484375 19.1875 25 
Q 14.984375 22.515625 14.984375 16.5 
Q 14.984375 11.71875 18.140625 8.90625 
Q 21.296875 6.109375 26.703125 6.109375 
Q 34.1875 6.109375 38.703125 11.40625 
Q 43.21875 16.703125 43.21875 25.484375 
L 43.21875 27.484375 
z
M 52.203125 31.203125 
L 52.203125 0 
L 43.21875 0 
L 43.21875 8.296875 
Q 40.140625 3.328125 35.546875 0.953125 
Q 30.953125 -1.421875 24.3125 -1.421875 
Q 15.921875 -1.421875 10.953125 3.296875 
Q 6 8.015625 6 15.921875 
Q 6 25.140625 12.171875 29.828125 
Q 18.359375 34.515625 30.609375 34.515625 
L 43.21875 34.515625 
L 43.21875 35.40625 
Q 43.21875 41.609375 39.140625 45 
Q 35.0625 48.390625 27.6875 48.390625 
Q 23 48.390625 18.546875 47.265625 
Q 14.109375 46.140625 10.015625 43.890625 
L 10.015625 52.203125 
Q 14.9375 54.109375 19.578125 55.046875 
Q 24.21875 56 28.609375 56 
Q 40.484375 56 46.34375 49.84375 
Q 52.203125 43.703125 52.203125 31.203125 
" id="DejaVuSans-61"/>
      <path d="M 9.421875 75.984375 
L 18.40625 75.984375 
L 18.40625 0 
L 9.421875 0 
z
" id="DejaVuSans-6c"/>
      <path d="M 44.28125 53.078125 
L 44.28125 44.578125 
Q 40.484375 46.53125 36.375 47.5 
Q 32.28125 48.484375 27.875 48.484375 
Q 21.1875 48.484375 17.84375 46.4375 
Q 14.5 44.390625 14.5 40.28125 
Q 14.5 37.15625 16.890625 35.375 
Q 19.28125 33.59375 26.515625 31.984375 
L 29.59375 31.296875 
Q 39.15625 29.25 43.1875 25.515625 
Q 47.21875 21.78125 47.21875 15.09375 
Q 47.21875 7.46875 41.1875 3.015625 
Q 35.15625 -1.421875 24.609375 -1.421875 
Q 20.21875 -1.421875 15.453125 -0.5625 
Q 10.6875 0.296875 5.421875 2 
L 5.421875 11.28125 
Q 10.40625 8.6875 15.234375 7.390625 
Q 20.0625 6.109375 24.8125 6.109375 
Q 31.15625 6.109375 34.5625 8.28125 
Q 37.984375 10.453125 37.984375 14.40625 
Q 37.984375 18.0625 35.515625 20.015625 
Q 33.0625 21.96875 24.703125 23.78125 
L 21.578125 24.515625 
Q 13.234375 26.265625 9.515625 29.90625 
Q 5.8125 33.546875 5.8125 39.890625 
Q 5.8125 47.609375 11.28125 51.796875 
Q 16.75 56 26.8125 56 
Q 31.78125 56 36.171875 55.265625 
Q 40.578125 54.546875 44.28125 53.078125 
" id="DejaVuSans-73"/>
      <path d="M 56.203125 29.59375 
L 56.203125 25.203125 
L 14.890625 25.203125 
Q 15.484375 15.921875 20.484375 11.0625 
Q 25.484375 6.203125 34.421875 6.203125 
Q 39.59375 6.203125 44.453125 7.46875 
Q 49.3125 8.734375 54.109375 11.28125 
L 54.109375 2.78125 
Q 49.265625 0.734375 44.1875 -0.34375 
Q 39.109375 -1.421875 33.890625 -1.421875 
Q 20.796875 -1.421875 13.15625 6.1875 
Q 5.515625 13.8125 5.515625 26.8125 
Q 5.515625 40.234375 12.765625 48.109375 
Q 20.015625 56 32.328125 56 
Q 43.359375 56 49.78125 48.890625 
Q 56.203125 41.796875 56.203125 29.59375 
M 47.21875 32.234375 
Q 47.125 39.59375 43.09375 43.984375 
Q 39.0625 48.390625 32.421875 48.390625 
Q 24.90625 48.390625 20.390625 44.140625 
Q 15.875 39.890625 15.1875 32.171875 
z
" id="DejaVuSans-65"/>
      <path id="DejaVuSans-20"/>
      <path d="M 19.671875 64.796875 
L 19.671875 37.40625 
L 32.078125 37.40625 
Q 38.96875 37.40625 42.71875 40.96875 
Q 46.484375 44.53125 46.484375 51.125 
Q 46.484375 57.671875 42.71875 61.234375 
Q 38.96875 64.796875 32.078125 64.796875 
z
M 9.8125 72.90625 
L 32.078125 72.90625 
Q 44.34375 72.90625 50.609375 67.359375 
Q 56.890625 61.8125 56.890625 51.125 
Q 56.890625 40.328125 50.609375 34.8125 
Q 44.34375 29.296875 32.078125 29.296875 
L 19.671875 29.296875 
L 19.671875 0 
L 9.8125 0 
z
" id="DejaVuSans-50"/>
      <path d="M 30.609375 48.390625 
Q 23.390625 48.390625 19.1875 42.75 
Q 14.984375 37.109375 14.984375 27.296875 
Q 14.984375 17.484375 19.15625 11.84375 
Q 23.34375 6.203125 30.609375 6.203125 
Q 37.796875 6.203125 41.984375 11.859375 
Q 46.1875 17.53125 46.1875 27.296875 
Q 46.1875 37.015625 41.984375 42.703125 
Q 37.796875 48.390625 30.609375 48.390625 
M 30.609375 56 
Q 42.328125 56 49.015625 48.375 
Q 55.71875 40.765625 55.71875 27.296875 
Q 55.71875 13.875 49.015625 6.21875 
Q 42.328125 -1.421875 30.609375 -1.421875 
Q 18.84375 -1.421875 12.171875 6.21875 
Q 5.515625 13.875 5.515625 27.296875 
Q 5.515625 40.765625 12.171875 48.375 
Q 18.84375 56 30.609375 56 
" id="DejaVuSans-6f"/>
      <path d="M 9.421875 54.6875 
L 18.40625 54.6875 
L 18.40625 0 
L 9.421875 0 
z
M 9.421875 75.984375 
L 18.40625 75.984375 
L 18.40625 64.59375 
L 9.421875 64.59375 
z
" id="DejaVuSans-69"/>
      <path d="M 18.3125 70.21875 
L 18.3125 54.6875 
L 36.8125 54.6875 
L 36.8125 47.703125 
L 18.3125 47.703125 
L 18.3125 18.015625 
Q 18.3125 11.328125 20.140625 9.421875 
Q 21.96875 7.515625 27.59375 7.515625 
L 36.8125 7.515625 
L 36.8125 0 
L 27.59375 0 
Q 17.1875 0 13.234375 3.875 
Q 9.28125 7.765625 9.28125 18.015625 
L 9.28125 47.703125 
L 2.6875 47.703125 
L 2.6875 54.6875 
L 9.28125 54.6875 
L 9.28125 70.21875 
z
" id="DejaVuSans-74"/>
      <path d="M 2.984375 54.6875 
L 12.5 54.6875 
L 29.59375 8.796875 
L 46.6875 54.6875 
L 56.203125 54.6875 
L 35.6875 0 
L 23.484375 0 
z
" id="DejaVuSans-76"/>
      <path d="M 44.390625 34.1875 
Q 47.5625 33.109375 50.5625 29.59375 
Q 53.5625 26.078125 56.59375 19.921875 
L 66.609375 0 
L 56 0 
L 46.6875 18.703125 
Q 43.0625 26.03125 39.671875 28.421875 
Q 36.28125 30.8125 30.421875 30.8125 
L 19.671875 30.8125 
L 19.671875 0 
L 9.8125 0 
L 9.8125 72.90625 
L 32.078125 72.90625 
Q 44.578125 72.90625 50.734375 67.671875 
Q 56.890625 62.453125 56.890625 51.90625 
Q 56.890625 45.015625 53.6875 40.46875 
Q 50.484375 35.9375 44.390625 34.1875 
M 19.671875 64.796875 
L 19.671875 38.921875 
L 32.078125 38.921875 
Q 39.203125 38.921875 42.84375 42.21875 
Q 46.484375 45.515625 46.484375 51.90625 
Q 46.484375 58.296875 42.84375 61.546875 
Q 39.203125 64.796875 32.078125 64.796875 
z
" id="DejaVuSans-52"/>
     </defs>
     <g style="fill:#262626;" transform="translate(66.888125 157.82125)scale(0.08 -0.08)">
      <use xlink:href="#DejaVuSans-46"/>
      <use x="57.378906" xlink:href="#DejaVuSans-61"/>
      <use x="118.658203" xlink:href="#DejaVuSans-6c"/>
      <use x="146.441406" xlink:href="#DejaVuSans-73"/>
      <use x="198.541016" xlink:href="#DejaVuSans-65"/>
      <use x="260.064453" xlink:href="#DejaVuSans-20"/>
      <use x="291.851562" xlink:href="#DejaVuSans-50"/>
      <use x="352.107422" xlink:href="#DejaVuSans-6f"/>
      <use x="413.289062" xlink:href="#DejaVuSans-73"/>
      <use x="465.388672" xlink:href="#DejaVuSans-69"/>
      <use x="493.171875" xlink:href="#DejaVuSans-74"/>
      <use x="532.380859" xlink:href="#DejaVuSans-69"/>
      <use x="560.164062" xlink:href="#DejaVuSans-76"/>
      <use x="619.34375" xlink:href="#DejaVuSans-65"/>
      <use x="680.867188" xlink:href="#DejaVuSans-20"/>
      <use x="712.654297" xlink:href="#DejaVuSans-52"/>
      <use x="782.105469" xlink:href="#DejaVuSans-61"/>
      <use x="843.384766" xlink:href="#DejaVuSans-74"/>
      <use x="882.59375" xlink:href="#DejaVuSans-65"/>
     </g>
    </g>
   </g>
   <g id="matplotlib.axis_2">
    <g id="ytick_1">
     <g id="line2d_13">
      <path clip-path="url(#p969b077394)" d="M 35.165 136.5 
L 174.14 136.5 
" style="fill:none;stroke:#cccccc;stroke-linecap:round;stroke-width:0.8;"/>
     </g>
     <g id="line2d_14"/>
     <g id="text_8">
      <!-- 0.0 -->
      <g style="fill:#262626;" transform="translate(18.9425 139.539375)scale(0.08 -0.08)">
       <use xlink:href="#DejaVuSans-30"/>
       <use x="63.623047" xlink:href="#DejaVuSans-2e"/>
       <use x="95.410156" xlink:href="#DejaVuSans-30"/>
      </g>
     </g>
    </g>
    <g id="ytick_2">
     <g id="line2d_15">
      <path clip-path="url(#p969b077394)" d="M 35.165 111.871429 
L 174.14 111.871429 
" style="fill:none;stroke:#cccccc;stroke-linecap:round;stroke-width:0.8;"/>
     </g>
     <g id="line2d_16"/>
     <g id="text_9">
      <!-- 0.2 -->
      <g style="fill:#262626;" transform="translate(18.9425 114.910804)scale(0.08 -0.08)">
       <use xlink:href="#DejaVuSans-30"/>
       <use x="63.623047" xlink:href="#DejaVuSans-2e"/>
       <use x="95.410156" xlink:href="#DejaVuSans-32"/>
      </g>
     </g>
    </g>
    <g id="ytick_3">
     <g id="line2d_17">
      <path clip-path="url(#p969b077394)" d="M 35.165 87.242857 
L 174.14 87.242857 
" style="fill:none;stroke:#cccccc;stroke-linecap:round;stroke-width:0.8;"/>
     </g>
     <g id="line2d_18"/>
     <g id="text_10">
      <!-- 0.4 -->
      <g style="fill:#262626;" transform="translate(18.9425 90.282232)scale(0.08 -0.08)">
       <use xlink:href="#DejaVuSans-30"/>
       <use x="63.623047" xlink:href="#DejaVuSans-2e"/>
       <use x="95.410156" xlink:href="#DejaVuSans-34"/>
      </g>
     </g>
    </g>
    <g id="ytick_4">
     <g id="line2d_19">
      <path clip-path="url(#p969b077394)" d="M 35.165 62.614286 
L 174.14 62.614286 
" style="fill:none;stroke:#cccccc;stroke-linecap:round;stroke-width:0.8;"/>
     </g>
     <g id="line2d_20"/>
     <g id="text_11">
      <!-- 0.6 -->
      <g style="fill:#262626;" transform="translate(18.9425 65.653661)scale(0.08 -0.08)">
       <use xlink:href="#DejaVuSans-30"/>
       <use x="63.623047" xlink:href="#DejaVuSans-2e"/>
       <use x="95.410156" xlink:href="#DejaVuSans-36"/>
      </g>
     </g>
    </g>
    <g id="ytick_5">
     <g id="line2d_21">
      <path clip-path="url(#p969b077394)" d="M 35.165 37.985714 
L 174.14 37.985714 
" style="fill:none;stroke:#cccccc;stroke-linecap:round;stroke-width:0.8;"/>
     </g>
     <g id="line2d_22"/>
     <g id="text_12">
      <!-- 0.8 -->
      <g style="fill:#262626;" transform="translate(18.9425 41.025089)scale(0.08 -0.08)">
       <use xlink:href="#DejaVuSans-30"/>
       <use x="63.623047" xlink:href="#DejaVuSans-2e"/>
       <use x="95.410156" xlink:href="#DejaVuSans-38"/>
      </g>
     </g>
    </g>
    <g id="ytick_6">
     <g id="line2d_23">
      <path clip-path="url(#p969b077394)" d="M 35.165 13.357143 
L 174.14 13.357143 
" style="fill:none;stroke:#cccccc;stroke-linecap:round;stroke-width:0.8;"/>
     </g>
     <g id="line2d_24"/>
     <g id="text_13">
      <!-- 1.0 -->
      <g style="fill:#262626;" transform="translate(18.9425 16.396518)scale(0.08 -0.08)">
       <use xlink:href="#DejaVuSans-31"/>
       <use x="63.623047" xlink:href="#DejaVuSans-2e"/>
       <use x="95.410156" xlink:href="#DejaVuSans-30"/>
      </g>
     </g>
    </g>
    <g id="text_14">
     <!-- True Positive Rate -->
     <defs>
      <path d="M -0.296875 72.90625 
L 61.375 72.90625 
L 61.375 64.59375 
L 35.5 64.59375 
L 35.5 0 
L 25.59375 0 
L 25.59375 64.59375 
L -0.296875 64.59375 
z
" id="DejaVuSans-54"/>
      <path d="M 41.109375 46.296875 
Q 39.59375 47.171875 37.8125 47.578125 
Q 36.03125 48 33.890625 48 
Q 26.265625 48 22.1875 43.046875 
Q 18.109375 38.09375 18.109375 28.8125 
L 18.109375 0 
L 9.078125 0 
L 9.078125 54.6875 
L 18.109375 54.6875 
L 18.109375 46.1875 
Q 20.953125 51.171875 25.484375 53.578125 
Q 30.03125 56 36.53125 56 
Q 37.453125 56 38.578125 55.875 
Q 39.703125 55.765625 41.0625 55.515625 
z
" id="DejaVuSans-72"/>
      <path d="M 8.5 21.578125 
L 8.5 54.6875 
L 17.484375 54.6875 
L 17.484375 21.921875 
Q 17.484375 14.15625 20.5 10.265625 
Q 23.53125 6.390625 29.59375 6.390625 
Q 36.859375 6.390625 41.078125 11.03125 
Q 45.3125 15.671875 45.3125 23.6875 
L 45.3125 54.6875 
L 54.296875 54.6875 
L 54.296875 0 
L 45.3125 0 
L 45.3125 8.40625 
Q 42.046875 3.421875 37.71875 1 
Q 33.40625 -1.421875 27.6875 -1.421875 
Q 18.265625 -1.421875 13.375 4.4375 
Q 8.5 10.296875 8.5 21.578125 
M 31.109375 56 
z
" id="DejaVuSans-75"/>
     </defs>
     <g style="fill:#262626;" transform="translate(13.27875 108.286875)rotate(-90)scale(0.08 -0.08)">
      <use xlink:href="#DejaVuSans-54"/>
      <use x="60.865234" xlink:href="#DejaVuSans-72"/>
      <use x="101.978516" xlink:href="#DejaVuSans-75"/>
      <use x="165.357422" xlink:href="#DejaVuSans-65"/>
      <use x="226.880859" xlink:href="#DejaVuSans-20"/>
      <use x="258.667969" xlink:href="#DejaVuSans-50"/>
      <use x="318.923828" xlink:href="#DejaVuSans-6f"/>
      <use x="380.105469" xlink:href="#DejaVuSans-73"/>
      <use x="432.205078" xlink:href="#DejaVuSans-69"/>
      <use x="459.988281" xlink:href="#DejaVuSans-74"/>
      <use x="499.197266" xlink:href="#DejaVuSans-69"/>
      <use x="526.980469" xlink:href="#DejaVuSans-76"/>
      <use x="586.160156" xlink:href="#DejaVuSans-65"/>
      <use x="647.683594" xlink:href="#DejaVuSans-20"/>
      <use x="679.470703" xlink:href="#DejaVuSans-52"/>
      <use x="748.921875" xlink:href="#DejaVuSans-61"/>
      <use x="810.201172" xlink:href="#DejaVuSans-74"/>
      <use x="849.410156" xlink:href="#DejaVuSans-65"/>
     </g>
    </g>
   </g>
   <g id="line2d_25">
    <path clip-path="url(#p969b077394)" d="M 35.165 135.349132 
L 35.445003 135.349132 
L 35.445003 133.047397 
L 35.538338 133.047397 
L 36.191679 133.047397 
L 36.191679 131.896529 
L 36.285013 131.896529 
L 36.471682 131.896529 
L 36.471682 127.293057 
L 36.565017 127.293057 
L 36.751686 127.293057 
L 36.84502 124.991322 
L 37.125024 124.991322 
L 37.125024 123.840454 
L 37.218358 123.840454 
L 37.965034 123.840454 
L 37.965034 122.689586 
L 38.058368 122.689586 
L 38.151702 122.689586 
L 38.245037 120.38785 
L 38.898378 120.38785 
L 38.898378 119.236983 
L 38.991713 119.236983 
L 39.178381 119.236983 
L 39.178381 118.086115 
L 39.271716 118.086115 
L 39.458385 118.086115 
L 39.458385 116.935247 
L 39.551719 116.935247 
L 40.111726 116.935247 
L 40.111726 115.784379 
L 40.20506 115.784379 
L 40.298395 115.784379 
L 40.298395 114.633511 
L 40.391729 114.633511 
L 40.578398 114.633511 
L 40.578398 112.331776 
L 40.671733 112.331776 
L 42.071749 112.331776 
L 42.071749 111.180908 
L 42.165084 111.180908 
L 42.818425 111.180908 
L 42.818425 110.03004 
L 42.91176 110.03004 
L 44.778449 110.03004 
L 44.778449 108.879172 
L 44.871783 108.879172 
L 44.965118 108.879172 
L 44.965118 107.728304 
L 45.058452 107.728304 
L 45.805128 107.728304 
L 45.805128 106.577437 
L 45.898462 106.577437 
L 46.365134 106.577437 
L 46.365134 105.426569 
L 46.458469 105.426569 
L 47.578482 105.426569 
L 47.578482 104.275701 
L 47.671817 104.275701 
L 48.605161 104.275701 
L 48.698496 101.973965 
L 50.191847 101.973965 
L 50.191847 100.823097 
L 50.285181 100.823097 
L 52.15187 100.823097 
L 52.15187 99.67223 
L 52.245205 99.67223 
L 53.271884 99.67223 
L 53.271884 98.521362 
L 53.365218 98.521362 
L 54.018559 98.521362 
L 54.111894 96.219626 
L 54.765235 96.219626 
L 54.765235 95.068758 
L 54.85857 95.068758 
L 54.951904 95.068758 
L 54.951904 92.767023 
L 55.045238 92.767023 
L 55.605245 92.767023 
L 55.69858 90.465287 
L 56.351921 90.465287 
L 56.351921 89.314419 
L 56.445255 89.314419 
L 57.285265 89.314419 
L 57.285265 88.163551 
L 57.3786 88.163551 
L 57.658603 88.163551 
L 57.658603 87.012684 
L 57.751938 87.012684 
L 58.031941 87.012684 
L 58.031941 85.861816 
L 58.125275 85.861816 
L 58.21861 85.861816 
L 58.21861 84.710948 
L 58.311944 84.710948 
L 58.685282 84.710948 
L 58.685282 83.56008 
L 58.778617 83.56008 
L 59.618627 83.56008 
L 59.618627 81.258344 
L 59.711961 81.258344 
L 59.89863 81.258344 
L 59.89863 78.956609 
L 59.991964 78.956609 
L 60.645306 78.956609 
L 60.645306 77.805741 
L 60.73864 77.805741 
L 61.485316 77.805741 
L 61.485316 76.654873 
L 61.57865 76.654873 
L 61.765319 76.654873 
L 61.765319 75.504005 
L 61.858653 75.504005 
L 62.325326 75.504005 
L 62.325326 74.353138 
L 62.41866 74.353138 
L 63.538674 74.353138 
L 63.538674 73.20227 
L 63.632008 73.20227 
L 66.338707 73.20227 
L 66.338707 70.900534 
L 66.432042 70.900534 
L 66.618711 70.900534 
L 66.618711 69.749666 
L 66.712045 69.749666 
L 67.64539 69.749666 
L 67.738724 67.447931 
L 69.32541 67.447931 
L 69.32541 66.297063 
L 69.418744 66.297063 
L 69.978751 66.297063 
L 69.978751 65.146195 
L 70.072085 65.146195 
L 72.405447 65.146195 
L 72.405447 63.995327 
L 72.498781 63.995327 
L 74.085467 63.995327 
L 74.085467 62.844459 
L 74.178801 62.844459 
L 75.20548 62.844459 
L 75.20548 61.693591 
L 75.298815 61.693591 
L 77.352173 61.693591 
L 77.445507 59.391856 
L 79.965537 59.391856 
L 79.965537 58.240988 
L 80.058872 58.240988 
L 80.898882 58.240988 
L 80.898882 57.09012 
L 80.992216 57.09012 
L 82.485567 57.09012 
L 82.485567 55.939252 
L 82.578902 55.939252 
L 88.552307 55.939252 
L 88.552307 52.486649 
L 88.645641 52.486649 
L 89.018979 52.486649 
L 89.018979 51.335781 
L 89.112314 51.335781 
L 89.392317 51.335781 
L 89.485651 49.034045 
L 89.578986 49.034045 
L 89.578986 47.883178 
L 89.67232 47.883178 
L 89.952324 47.883178 
L 89.952324 46.73231 
L 90.045658 46.73231 
L 90.232327 46.73231 
L 90.232327 45.581442 
L 90.325662 45.581442 
L 90.885668 45.581442 
L 90.885668 44.430574 
L 90.979003 44.430574 
L 92.192351 44.430574 
L 92.192351 43.279706 
L 92.285685 43.279706 
L 93.032361 43.279706 
L 93.032361 42.128838 
L 93.125695 42.128838 
L 95.179053 42.128838 
L 95.179053 40.977971 
L 95.272388 40.977971 
L 97.139077 40.977971 
L 97.139077 39.827103 
L 97.232411 39.827103 
L 99.0991 39.827103 
L 99.0991 38.676235 
L 99.192435 38.676235 
L 103.019147 38.676235 
L 103.019147 37.525367 
L 103.112482 37.525367 
L 106.00585 37.525367 
L 106.00585 36.374499 
L 106.099184 36.374499 
L 107.125863 36.374499 
L 107.125863 35.223632 
L 107.219197 35.223632 
L 107.779204 35.223632 
L 107.779204 34.072764 
L 107.872539 34.072764 
L 110.2059 34.072764 
L 110.2059 32.921896 
L 110.299234 32.921896 
L 111.232579 32.921896 
L 111.232579 31.771028 
L 111.325913 31.771028 
L 115.432629 31.771028 
L 115.432629 30.62016 
L 115.525964 30.62016 
L 115.805967 30.62016 
L 115.805967 29.469292 
L 115.899302 29.469292 
L 117.112649 29.469292 
L 117.112649 28.318425 
L 117.205984 28.318425 
L 124.766075 28.318425 
L 124.766075 27.167557 
L 124.859409 27.167557 
L 126.446095 27.167557 
L 126.446095 26.016689 
L 126.539429 26.016689 
L 134.752861 26.016689 
L 134.752861 24.865821 
L 134.846195 24.865821 
L 138.392905 24.865821 
L 138.392905 23.714953 
L 138.486239 23.714953 
L 140.072925 23.714953 
L 140.072925 22.564085 
L 140.166259 22.564085 
L 142.219617 22.564085 
L 142.219617 21.413218 
L 142.312952 21.413218 
L 142.686289 21.413218 
L 142.686289 20.26235 
L 142.779624 20.26235 
L 143.806303 20.26235 
L 143.806303 19.111482 
L 143.899637 19.111482 
L 145.766326 19.111482 
L 145.766326 17.960614 
L 145.859661 17.960614 
L 149.219701 17.960614 
L 149.219701 16.809746 
L 149.313036 16.809746 
L 153.699755 16.809746 
L 153.699755 15.658879 
L 153.793089 15.658879 
L 156.219785 15.658879 
L 156.219785 14.508011 
L 156.31312 14.508011 
L 170.77996 14.508011 
L 170.77996 13.357143 
L 170.873294 13.357143 
L 174.14 13.357143 
L 174.14 13.357143 
" style="fill:none;stroke:#0000ff;stroke-linecap:round;stroke-width:2;"/>
   </g>
   <g id="line2d_26">
    <path clip-path="url(#p969b077394)" d="M 35.165 136.5 
L 36.007273 136.5 
L 36.007273 117.554945 
L 40.218636 117.554945 
L 40.218636 98.60989 
L 54.537273 98.60989 
L 54.537273 89.137363 
L 60.433182 89.137363 
L 60.433182 79.664835 
L 68.855909 79.664835 
L 68.855909 70.192308 
L 72.225 70.192308 
L 72.225 60.71978 
L 73.909545 60.71978 
L 73.909545 51.247253 
L 101.704545 51.247253 
L 101.704545 41.774725 
L 114.338636 41.774725 
L 114.338636 32.302198 
L 122.761364 32.302198 
L 122.761364 22.82967 
L 150.556364 22.82967 
L 150.556364 13.357143 
L 174.14 13.357143 
L 174.14 13.357143 
" style="fill:none;stroke:#008000;stroke-linecap:round;stroke-width:2;"/>
   </g>
   <g id="line2d_27">
    <path clip-path="url(#p969b077394)" d="M 35.165 136.5 
L 35.258334 136.5 
L 35.258334 135.349132 
L 35.351669 135.349132 
L 35.725007 135.349132 
L 35.818341 133.047397 
L 36.658351 133.047397 
L 36.658351 127.293057 
L 36.751686 127.293057 
L 37.218358 127.293057 
L 37.218358 126.14219 
L 37.311692 126.14219 
L 37.405027 126.14219 
L 37.498361 122.689586 
L 37.68503 122.689586 
L 37.68503 121.538718 
L 37.778365 121.538718 
L 37.965034 121.538718 
L 37.965034 120.38785 
L 38.058368 120.38785 
L 38.151702 120.38785 
L 38.151702 119.236983 
L 38.245037 119.236983 
L 38.618375 119.236983 
L 38.618375 118.086115 
L 38.711709 118.086115 
L 39.551719 118.086115 
L 39.551719 116.935247 
L 39.645054 116.935247 
L 40.391729 116.935247 
L 40.391729 115.784379 
L 40.485064 115.784379 
L 41.698412 115.784379 
L 41.698412 113.482644 
L 41.791746 113.482644 
L 41.885081 113.482644 
L 41.885081 111.180908 
L 41.978415 111.180908 
L 43.098428 111.180908 
L 43.191763 108.879172 
L 43.471766 108.879172 
L 43.471766 107.728304 
L 43.565101 107.728304 
L 44.405111 107.728304 
L 44.498445 105.426569 
L 46.2718 105.426569 
L 46.2718 104.275701 
L 46.365134 104.275701 
L 47.95182 104.275701 
L 47.95182 103.124833 
L 48.045154 103.124833 
L 48.605161 103.124833 
L 48.605161 101.973965 
L 48.698496 101.973965 
L 48.978499 101.973965 
L 48.978499 100.823097 
L 49.071833 100.823097 
L 51.031857 100.823097 
L 51.031857 99.67223 
L 51.125191 99.67223 
L 52.99188 99.67223 
L 52.99188 98.521362 
L 53.085215 98.521362 
L 53.738556 98.521362 
L 53.738556 97.370494 
L 53.831891 97.370494 
L 54.765235 97.370494 
L 54.765235 96.219626 
L 54.85857 96.219626 
L 56.165252 96.219626 
L 56.165252 95.068758 
L 56.258586 95.068758 
L 58.311944 95.068758 
L 58.311944 93.917891 
L 58.405279 93.917891 
L 59.431958 93.917891 
L 59.431958 91.616155 
L 59.525292 91.616155 
L 59.711961 91.616155 
L 59.711961 90.465287 
L 59.805296 90.465287 
L 60.365302 90.465287 
L 60.365302 89.314419 
L 60.458637 89.314419 
L 61.391981 89.314419 
L 61.391981 87.012684 
L 61.485316 87.012684 
L 62.698664 87.012684 
L 62.698664 84.710948 
L 62.791998 84.710948 
L 63.072001 84.710948 
L 63.072001 83.56008 
L 63.165336 83.56008 
L 63.912011 83.56008 
L 63.912011 82.409212 
L 64.005346 82.409212 
L 68.952072 82.409212 
L 68.952072 81.258344 
L 69.045406 81.258344 
L 69.978751 81.258344 
L 69.978751 80.107477 
L 70.072085 80.107477 
L 71.658771 80.107477 
L 71.752105 77.805741 
L 71.938774 77.805741 
L 71.938774 76.654873 
L 72.032109 76.654873 
L 73.058788 76.654873 
L 73.058788 75.504005 
L 73.152122 75.504005 
L 74.085467 75.504005 
L 74.085467 74.353138 
L 74.178801 74.353138 
L 76.232159 74.353138 
L 76.232159 73.20227 
L 76.325494 73.20227 
L 76.8855 73.20227 
L 76.8855 72.051402 
L 76.978835 72.051402 
L 81.458889 72.051402 
L 81.458889 70.900534 
L 81.552223 70.900534 
L 81.832226 70.900534 
L 81.832226 69.749666 
L 81.925561 69.749666 
L 85.845608 69.749666 
L 85.845608 68.598798 
L 85.938942 68.598798 
L 86.405615 68.598798 
L 86.405615 67.447931 
L 86.498949 67.447931 
L 88.365638 67.447931 
L 88.365638 66.297063 
L 88.458972 66.297063 
L 90.325662 66.297063 
L 90.325662 65.146195 
L 90.418996 65.146195 
L 92.192351 65.146195 
L 92.192351 63.995327 
L 92.285685 63.995327 
L 92.752357 63.995327 
L 92.752357 61.693591 
L 92.845692 61.693591 
L 93.592367 61.693591 
L 93.592367 60.542724 
L 93.685702 60.542724 
L 94.89905 60.542724 
L 94.992384 58.240988 
L 96.485735 58.240988 
L 96.485735 57.09012 
L 96.57907 57.09012 
L 97.045742 57.09012 
L 97.045742 55.939252 
L 97.139077 55.939252 
L 97.41908 55.939252 
L 97.41908 54.788385 
L 97.512414 54.788385 
L 103.765823 54.788385 
L 103.765823 53.637517 
L 103.859157 53.637517 
L 104.792502 53.637517 
L 104.885836 51.335781 
L 107.779204 51.335781 
L 107.779204 50.184913 
L 107.872539 50.184913 
L 108.152542 50.184913 
L 108.152542 49.034045 
L 108.245876 49.034045 
L 109.272555 49.034045 
L 109.272555 47.883178 
L 109.36589 47.883178 
L 109.739228 47.883178 
L 109.739228 46.73231 
L 109.832562 46.73231 
L 111.325913 46.73231 
L 111.325913 45.581442 
L 111.419248 45.581442 
L 112.912599 45.581442 
L 112.912599 44.430574 
L 113.005934 44.430574 
L 113.192602 44.430574 
L 113.192602 43.279706 
L 113.285937 43.279706 
L 116.552643 43.279706 
L 116.552643 42.128838 
L 116.645977 42.128838 
L 116.832646 42.128838 
L 116.832646 40.977971 
L 116.925981 40.977971 
L 119.539345 40.977971 
L 119.539345 39.827103 
L 119.63268 39.827103 
L 122.432713 39.827103 
L 122.432713 38.676235 
L 122.526048 38.676235 
L 124.112733 38.676235 
L 124.112733 37.525367 
L 124.206068 37.525367 
L 127.099436 37.525367 
L 127.099436 36.374499 
L 127.19277 36.374499 
L 129.152794 36.374499 
L 129.152794 35.223632 
L 129.246128 35.223632 
L 131.206152 35.223632 
L 131.206152 34.072764 
L 131.299486 34.072764 
L 131.859493 34.072764 
L 131.859493 32.921896 
L 131.952827 32.921896 
L 132.232831 32.921896 
L 132.232831 31.771028 
L 132.326165 31.771028 
L 132.792837 31.771028 
L 132.792837 30.62016 
L 132.886172 30.62016 
L 134.192854 30.62016 
L 134.192854 28.318425 
L 134.286189 28.318425 
L 139.419584 28.318425 
L 139.419584 27.167557 
L 139.512918 27.167557 
L 142.779624 27.167557 
L 142.779624 26.016689 
L 142.872958 26.016689 
L 149.593039 26.016689 
L 149.593039 24.865821 
L 149.686373 24.865821 
L 154.633099 24.865821 
L 154.633099 23.714953 
L 154.726434 23.714953 
L 157.433133 23.714953 
L 157.433133 22.564085 
L 157.526467 22.564085 
L 161.446514 22.564085 
L 161.446514 21.413218 
L 161.539849 21.413218 
L 162.006521 21.413218 
L 162.006521 20.26235 
L 162.099856 20.26235 
L 166.39324 20.26235 
L 166.39324 19.111482 
L 166.486575 19.111482 
L 166.766578 19.111482 
L 166.766578 17.960614 
L 166.859913 17.960614 
L 167.139916 17.960614 
L 167.139916 16.809746 
L 167.233251 16.809746 
L 167.326585 16.809746 
L 167.326585 15.658879 
L 167.419919 15.658879 
L 167.886592 15.658879 
L 167.886592 14.508011 
L 167.979926 14.508011 
L 173.673328 14.508011 
L 173.673328 13.357143 
L 173.766662 13.357143 
L 174.14 13.357143 
L 174.14 13.357143 
" style="fill:none;stroke:#ffa500;stroke-linecap:round;stroke-width:2;"/>
   </g>
   <g id="patch_3">
    <path d="M 35.165 136.5 
L 35.165 7.2 
" style="fill:none;stroke:#cccccc;stroke-linecap:square;stroke-linejoin:miter;"/>
   </g>
   <g id="patch_4">
    <path d="M 174.14 136.5 
L 174.14 7.2 
" style="fill:none;stroke:#cccccc;stroke-linecap:square;stroke-linejoin:miter;"/>
   </g>
   <g id="patch_5">
    <path d="M 35.165 136.5 
L 174.14 136.5 
" style="fill:none;stroke:#cccccc;stroke-linecap:square;stroke-linejoin:miter;"/>
   </g>
   <g id="patch_6">
    <path d="M 35.165 7.2 
L 174.14 7.2 
" style="fill:none;stroke:#cccccc;stroke-linecap:square;stroke-linejoin:miter;"/>
   </g>
   <g id="legend_1">
    <g id="line2d_28">
     <path d="M 35.478828 174.640228 
L 50.478828 174.640228 
" style="fill:none;stroke:#0000ff;stroke-linecap:round;stroke-width:2;"/>
    </g>
    <g id="line2d_29"/>
    <g id="text_15">
     <!-- Training (AUROC = 71.7%) -->
     <defs>
      <path d="M 54.890625 33.015625 
L 54.890625 0 
L 45.90625 0 
L 45.90625 32.71875 
Q 45.90625 40.484375 42.875 44.328125 
Q 39.84375 48.1875 33.796875 48.1875 
Q 26.515625 48.1875 22.3125 43.546875 
Q 18.109375 38.921875 18.109375 30.90625 
L 18.109375 0 
L 9.078125 0 
L 9.078125 54.6875 
L 18.109375 54.6875 
L 18.109375 46.1875 
Q 21.34375 51.125 25.703125 53.5625 
Q 30.078125 56 35.796875 56 
Q 45.21875 56 50.046875 50.171875 
Q 54.890625 44.34375 54.890625 33.015625 
" id="DejaVuSans-6e"/>
      <path d="M 45.40625 27.984375 
Q 45.40625 37.75 41.375 43.109375 
Q 37.359375 48.484375 30.078125 48.484375 
Q 22.859375 48.484375 18.828125 43.109375 
Q 14.796875 37.75 14.796875 27.984375 
Q 14.796875 18.265625 18.828125 12.890625 
Q 22.859375 7.515625 30.078125 7.515625 
Q 37.359375 7.515625 41.375 12.890625 
Q 45.40625 18.265625 45.40625 27.984375 
M 54.390625 6.78125 
Q 54.390625 -7.171875 48.1875 -13.984375 
Q 42 -20.796875 29.203125 -20.796875 
Q 24.46875 -20.796875 20.265625 -20.09375 
Q 16.0625 -19.390625 12.109375 -17.921875 
L 12.109375 -9.1875 
Q 16.0625 -11.328125 19.921875 -12.34375 
Q 23.78125 -13.375 27.78125 -13.375 
Q 36.625 -13.375 41.015625 -8.765625 
Q 45.40625 -4.15625 45.40625 5.171875 
L 45.40625 9.625 
Q 42.625 4.78125 38.28125 2.390625 
Q 33.9375 0 27.875 0 
Q 17.828125 0 11.671875 7.65625 
Q 5.515625 15.328125 5.515625 27.984375 
Q 5.515625 40.671875 11.671875 48.328125 
Q 17.828125 56 27.875 56 
Q 33.9375 56 38.28125 53.609375 
Q 42.625 51.21875 45.40625 46.390625 
L 45.40625 54.6875 
L 54.390625 54.6875 
z
" id="DejaVuSans-67"/>
      <path d="M 31 75.875 
Q 24.46875 64.65625 21.28125 53.65625 
Q 18.109375 42.671875 18.109375 31.390625 
Q 18.109375 20.125 21.3125 9.0625 
Q 24.515625 -2 31 -13.1875 
L 23.1875 -13.1875 
Q 15.875 -1.703125 12.234375 9.375 
Q 8.59375 20.453125 8.59375 31.390625 
Q 8.59375 42.28125 12.203125 53.3125 
Q 15.828125 64.359375 23.1875 75.875 
z
" id="DejaVuSans-28"/>
      <path d="M 34.1875 63.1875 
L 20.796875 26.90625 
L 47.609375 26.90625 
z
M 28.609375 72.90625 
L 39.796875 72.90625 
L 67.578125 0 
L 57.328125 0 
L 50.6875 18.703125 
L 17.828125 18.703125 
L 11.1875 0 
L 0.78125 0 
z
" id="DejaVuSans-41"/>
      <path d="M 8.6875 72.90625 
L 18.609375 72.90625 
L 18.609375 28.609375 
Q 18.609375 16.890625 22.84375 11.734375 
Q 27.09375 6.59375 36.625 6.59375 
Q 46.09375 6.59375 50.34375 11.734375 
Q 54.59375 16.890625 54.59375 28.609375 
L 54.59375 72.90625 
L 64.5 72.90625 
L 64.5 27.390625 
Q 64.5 13.140625 57.4375 5.859375 
Q 50.390625 -1.421875 36.625 -1.421875 
Q 22.796875 -1.421875 15.734375 5.859375 
Q 8.6875 13.140625 8.6875 27.390625 
z
" id="DejaVuSans-55"/>
      <path d="M 39.40625 66.21875 
Q 28.65625 66.21875 22.328125 58.203125 
Q 16.015625 50.203125 16.015625 36.375 
Q 16.015625 22.609375 22.328125 14.59375 
Q 28.65625 6.59375 39.40625 6.59375 
Q 50.140625 6.59375 56.421875 14.59375 
Q 62.703125 22.609375 62.703125 36.375 
Q 62.703125 50.203125 56.421875 58.203125 
Q 50.140625 66.21875 39.40625 66.21875 
M 39.40625 74.21875 
Q 54.734375 74.21875 63.90625 63.9375 
Q 73.09375 53.65625 73.09375 36.375 
Q 73.09375 19.140625 63.90625 8.859375 
Q 54.734375 -1.421875 39.40625 -1.421875 
Q 24.03125 -1.421875 14.8125 8.828125 
Q 5.609375 19.09375 5.609375 36.375 
Q 5.609375 53.65625 14.8125 63.9375 
Q 24.03125 74.21875 39.40625 74.21875 
" id="DejaVuSans-4f"/>
      <path d="M 64.40625 67.28125 
L 64.40625 56.890625 
Q 59.421875 61.53125 53.78125 63.8125 
Q 48.140625 66.109375 41.796875 66.109375 
Q 29.296875 66.109375 22.65625 58.46875 
Q 16.015625 50.828125 16.015625 36.375 
Q 16.015625 21.96875 22.65625 14.328125 
Q 29.296875 6.6875 41.796875 6.6875 
Q 48.140625 6.6875 53.78125 8.984375 
Q 59.421875 11.28125 64.40625 15.921875 
L 64.40625 5.609375 
Q 59.234375 2.09375 53.4375 0.328125 
Q 47.65625 -1.421875 41.21875 -1.421875 
Q 24.65625 -1.421875 15.125 8.703125 
Q 5.609375 18.84375 5.609375 36.375 
Q 5.609375 53.953125 15.125 64.078125 
Q 24.65625 74.21875 41.21875 74.21875 
Q 47.75 74.21875 53.53125 72.484375 
Q 59.328125 70.75 64.40625 67.28125 
" id="DejaVuSans-43"/>
      <path d="M 10.59375 45.40625 
L 73.1875 45.40625 
L 73.1875 37.203125 
L 10.59375 37.203125 
z
M 10.59375 25.484375 
L 73.1875 25.484375 
L 73.1875 17.1875 
L 10.59375 17.1875 
z
" id="DejaVuSans-3d"/>
      <path d="M 8.203125 72.90625 
L 55.078125 72.90625 
L 55.078125 68.703125 
L 28.609375 0 
L 18.3125 0 
L 43.21875 64.59375 
L 8.203125 64.59375 
z
" id="DejaVuSans-37"/>
      <path d="M 72.703125 32.078125 
Q 68.453125 32.078125 66.03125 28.46875 
Q 63.625 24.859375 63.625 18.40625 
Q 63.625 12.0625 66.03125 8.421875 
Q 68.453125 4.78125 72.703125 4.78125 
Q 76.859375 4.78125 79.265625 8.421875 
Q 81.6875 12.0625 81.6875 18.40625 
Q 81.6875 24.8125 79.265625 28.4375 
Q 76.859375 32.078125 72.703125 32.078125 
M 72.703125 38.28125 
Q 80.421875 38.28125 84.953125 32.90625 
Q 89.5 27.546875 89.5 18.40625 
Q 89.5 9.28125 84.9375 3.921875 
Q 80.375 -1.421875 72.703125 -1.421875 
Q 64.890625 -1.421875 60.34375 3.921875 
Q 55.8125 9.28125 55.8125 18.40625 
Q 55.8125 27.59375 60.375 32.9375 
Q 64.9375 38.28125 72.703125 38.28125 
M 22.3125 68.015625 
Q 18.109375 68.015625 15.6875 64.375 
Q 13.28125 60.75 13.28125 54.390625 
Q 13.28125 47.953125 15.671875 44.328125 
Q 18.0625 40.71875 22.3125 40.71875 
Q 26.5625 40.71875 28.96875 44.328125 
Q 31.390625 47.953125 31.390625 54.390625 
Q 31.390625 60.6875 28.953125 64.34375 
Q 26.515625 68.015625 22.3125 68.015625 
M 66.40625 74.21875 
L 74.21875 74.21875 
L 28.609375 -1.421875 
L 20.796875 -1.421875 
z
M 22.3125 74.21875 
Q 30.03125 74.21875 34.609375 68.875 
Q 39.203125 63.53125 39.203125 54.390625 
Q 39.203125 45.171875 34.640625 39.84375 
Q 30.078125 34.515625 22.3125 34.515625 
Q 14.546875 34.515625 10.03125 39.859375 
Q 5.515625 45.21875 5.515625 54.390625 
Q 5.515625 63.484375 10.046875 68.84375 
Q 14.59375 74.21875 22.3125 74.21875 
" id="DejaVuSans-25"/>
      <path d="M 8.015625 75.875 
L 15.828125 75.875 
Q 23.140625 64.359375 26.78125 53.3125 
Q 30.421875 42.28125 30.421875 31.390625 
Q 30.421875 20.453125 26.78125 9.375 
Q 23.140625 -1.703125 15.828125 -13.1875 
L 8.015625 -13.1875 
Q 14.5 -2 17.703125 9.0625 
Q 20.90625 20.125 20.90625 31.390625 
Q 20.90625 42.671875 17.703125 53.65625 
Q 14.5 64.65625 8.015625 75.875 
" id="DejaVuSans-29"/>
     </defs>
     <g style="fill:#262626;" transform="translate(56.478828 177.265228)scale(0.075 -0.075)">
      <use xlink:href="#DejaVuSans-54"/>
      <use x="60.865234" xlink:href="#DejaVuSans-72"/>
      <use x="101.978516" xlink:href="#DejaVuSans-61"/>
      <use x="163.257812" xlink:href="#DejaVuSans-69"/>
      <use x="191.041016" xlink:href="#DejaVuSans-6e"/>
      <use x="254.419922" xlink:href="#DejaVuSans-69"/>
      <use x="282.203125" xlink:href="#DejaVuSans-6e"/>
      <use x="345.582031" xlink:href="#DejaVuSans-67"/>
      <use x="409.058594" xlink:href="#DejaVuSans-20"/>
      <use x="440.845703" xlink:href="#DejaVuSans-28"/>
      <use x="479.859375" xlink:href="#DejaVuSans-41"/>
      <use x="548.267578" xlink:href="#DejaVuSans-55"/>
      <use x="621.460938" xlink:href="#DejaVuSans-52"/>
      <use x="690.943359" xlink:href="#DejaVuSans-4f"/>
      <use x="769.654297" xlink:href="#DejaVuSans-43"/>
      <use x="839.478516" xlink:href="#DejaVuSans-20"/>
      <use x="871.265625" xlink:href="#DejaVuSans-3d"/>
      <use x="955.054688" xlink:href="#DejaVuSans-20"/>
      <use x="986.841797" xlink:href="#DejaVuSans-37"/>
      <use x="1050.464844" xlink:href="#DejaVuSans-31"/>
      <use x="1114.087891" xlink:href="#DejaVuSans-2e"/>
      <use x="1145.875" xlink:href="#DejaVuSans-37"/>
      <use x="1209.498047" xlink:href="#DejaVuSans-25"/>
      <use x="1304.517578" xlink:href="#DejaVuSans-29"/>
     </g>
    </g>
    <g id="line2d_30">
     <path d="M 35.478828 185.648822 
L 50.478828 185.648822 
" style="fill:none;stroke:#008000;stroke-linecap:round;stroke-width:2;"/>
    </g>
    <g id="line2d_31"/>
    <g id="text_16">
     <!-- Testing (AUROC = 71.5%) -->
     <defs>
      <path d="M 10.796875 72.90625 
L 49.515625 72.90625 
L 49.515625 64.59375 
L 19.828125 64.59375 
L 19.828125 46.734375 
Q 21.96875 47.46875 24.109375 47.828125 
Q 26.265625 48.1875 28.421875 48.1875 
Q 40.625 48.1875 47.75 41.5 
Q 54.890625 34.8125 54.890625 23.390625 
Q 54.890625 11.625 47.5625 5.09375 
Q 40.234375 -1.421875 26.90625 -1.421875 
Q 22.3125 -1.421875 17.546875 -0.640625 
Q 12.796875 0.140625 7.71875 1.703125 
L 7.71875 11.625 
Q 12.109375 9.234375 16.796875 8.0625 
Q 21.484375 6.890625 26.703125 6.890625 
Q 35.15625 6.890625 40.078125 11.328125 
Q 45.015625 15.765625 45.015625 23.390625 
Q 45.015625 31 40.078125 35.4375 
Q 35.15625 39.890625 26.703125 39.890625 
Q 22.75 39.890625 18.8125 39.015625 
Q 14.890625 38.140625 10.796875 36.28125 
z
" id="DejaVuSans-35"/>
     </defs>
     <g style="fill:#262626;" transform="translate(56.478828 188.273822)scale(0.075 -0.075)">
      <use xlink:href="#DejaVuSans-54"/>
      <use x="60.818359" xlink:href="#DejaVuSans-65"/>
      <use x="122.341797" xlink:href="#DejaVuSans-73"/>
      <use x="174.441406" xlink:href="#DejaVuSans-74"/>
      <use x="213.650391" xlink:href="#DejaVuSans-69"/>
      <use x="241.433594" xlink:href="#DejaVuSans-6e"/>
      <use x="304.8125" xlink:href="#DejaVuSans-67"/>
      <use x="368.289062" xlink:href="#DejaVuSans-20"/>
      <use x="400.076172" xlink:href="#DejaVuSans-28"/>
      <use x="439.089844" xlink:href="#DejaVuSans-41"/>
      <use x="507.498047" xlink:href="#DejaVuSans-55"/>
      <use x="580.691406" xlink:href="#DejaVuSans-52"/>
      <use x="650.173828" xlink:href="#DejaVuSans-4f"/>
      <use x="728.884766" xlink:href="#DejaVuSans-43"/>
      <use x="798.708984" xlink:href="#DejaVuSans-20"/>
      <use x="830.496094" xlink:href="#DejaVuSans-3d"/>
      <use x="914.285156" xlink:href="#DejaVuSans-20"/>
      <use x="946.072266" xlink:href="#DejaVuSans-37"/>
      <use x="1009.695312" xlink:href="#DejaVuSans-31"/>
      <use x="1073.318359" xlink:href="#DejaVuSans-2e"/>
      <use x="1105.105469" xlink:href="#DejaVuSans-35"/>
      <use x="1168.728516" xlink:href="#DejaVuSans-25"/>
      <use x="1263.748047" xlink:href="#DejaVuSans-29"/>
     </g>
    </g>
    <g id="line2d_32">
     <path d="M 35.478828 196.657416 
L 50.478828 196.657416 
" style="fill:none;stroke:#ffa500;stroke-linecap:round;stroke-width:2;"/>
    </g>
    <g id="line2d_33"/>
    <g id="text_17">
     <!-- CV (AUROC = 64.6%) -->
     <defs>
      <path d="M 28.609375 0 
L 0.78125 72.90625 
L 11.078125 72.90625 
L 34.1875 11.53125 
L 57.328125 72.90625 
L 67.578125 72.90625 
L 39.796875 0 
z
" id="DejaVuSans-56"/>
     </defs>
     <g style="fill:#262626;" transform="translate(56.478828 199.282416)scale(0.075 -0.075)">
      <use xlink:href="#DejaVuSans-43"/>
      <use x="69.824219" xlink:href="#DejaVuSans-56"/>
      <use x="138.232422" xlink:href="#DejaVuSans-20"/>
      <use x="170.019531" xlink:href="#DejaVuSans-28"/>
      <use x="209.033203" xlink:href="#DejaVuSans-41"/>
      <use x="277.441406" xlink:href="#DejaVuSans-55"/>
      <use x="350.634766" xlink:href="#DejaVuSans-52"/>
      <use x="420.117188" xlink:href="#DejaVuSans-4f"/>
      <use x="498.828125" xlink:href="#DejaVuSans-43"/>
      <use x="568.652344" xlink:href="#DejaVuSans-20"/>
      <use x="600.439453" xlink:href="#DejaVuSans-3d"/>
      <use x="684.228516" xlink:href="#DejaVuSans-20"/>
      <use x="716.015625" xlink:href="#DejaVuSans-36"/>
      <use x="779.638672" xlink:href="#DejaVuSans-34"/>
      <use x="843.261719" xlink:href="#DejaVuSans-2e"/>
      <use x="875.048828" xlink:href="#DejaVuSans-36"/>
      <use x="938.671875" xlink:href="#DejaVuSans-25"/>
      <use x="1033.691406" xlink:href="#DejaVuSans-29"/>
     </g>
    </g>
   </g>
  </g>
 </g>
 <defs>
  <clipPath id="p969b077394">
   <rect height="129.3" width="138.975" x="35.165" y="7.2"/>
  </clipPath>
 </defs>
</svg>
