<?xml version="1.0" encoding="utf-8" standalone="no"?>
<!DOCTYPE svg PUBLIC "-//W3C//DTD SVG 1.1//EN"
  "http://www.w3.org/Graphics/SVG/1.1/DTD/svg11.dtd">
<!-- Created with matplotlib (http://matplotlib.org/) -->
<svg height="211pt" version="1.1" viewBox="0 0 187 211" width="187pt" xmlns="http://www.w3.org/2000/svg" xmlns:xlink="http://www.w3.org/1999/xlink">
 <defs>
  <style type="text/css">
*{stroke-linecap:butt;stroke-linejoin:round;}
  </style>
 </defs>
 <g id="figure_1">
  <g id="patch_1">
   <path d="M 0 211.042181 
L 187.70125 211.042181 
L 187.70125 0 
L 0 0 
z
" style="fill:#ffffff;"/>
  </g>
  <g id="axes_1">
   <g id="patch_2">
    <path d="M 35.165 136.5 
L 174.14 136.5 
L 174.14 7.2 
L 35.165 7.2 
z
" style="fill:#ffffff;"/>
   </g>
   <g id="matplotlib.axis_1">
    <g id="xtick_1">
     <g id="line2d_1">
      <path clip-path="url(#pefc5d37764)" d="M 35.165 136.5 
L 35.165 7.2 
" style="fill:none;stroke:#cccccc;stroke-linecap:round;stroke-width:0.8;"/>
     </g>
     <g id="line2d_2"/>
     <g id="text_1">
      <!-- 0.0 -->
      <defs>
       <path d="M 31.78125 66.40625 
Q 24.171875 66.40625 20.328125 58.90625 
Q 16.5 51.421875 16.5 36.375 
Q 16.5 21.390625 20.328125 13.890625 
Q 24.171875 6.390625 31.78125 6.390625 
Q 39.453125 6.390625 43.28125 13.890625 
Q 47.125 21.390625 47.125 36.375 
Q 47.125 51.421875 43.28125 58.90625 
Q 39.453125 66.40625 31.78125 66.40625 
M 31.78125 74.21875 
Q 44.046875 74.21875 50.515625 64.515625 
Q 56.984375 54.828125 56.984375 36.375 
Q 56.984375 17.96875 50.515625 8.265625 
Q 44.046875 -1.421875 31.78125 -1.421875 
Q 19.53125 -1.421875 13.0625 8.265625 
Q 6.59375 17.96875 6.59375 36.375 
Q 6.59375 54.828125 13.0625 64.515625 
Q 19.53125 74.21875 31.78125 74.21875 
" id="DejaVuSans-30"/>
       <path d="M 10.6875 12.40625 
L 21 12.40625 
L 21 0 
L 10.6875 0 
z
" id="DejaVuSans-2e"/>
      </defs>
      <g style="fill:#262626;" transform="translate(28.80375 146.07875)scale(0.08 -0.08)">
       <use xlink:href="#DejaVuSans-30"/>
       <use x="63.623047" xlink:href="#DejaVuSans-2e"/>
       <use x="95.410156" xlink:href="#DejaVuSans-30"/>
      </g>
     </g>
    </g>
    <g id="xtick_2">
     <g id="line2d_3">
      <path clip-path="url(#pefc5d37764)" d="M 62.96 136.5 
L 62.96 7.2 
" style="fill:none;stroke:#cccccc;stroke-linecap:round;stroke-width:0.8;"/>
     </g>
     <g id="line2d_4"/>
     <g id="text_2">
      <!-- 0.2 -->
      <defs>
       <path d="M 19.1875 8.296875 
L 53.609375 8.296875 
L 53.609375 0 
L 7.328125 0 
L 7.328125 8.296875 
Q 12.9375 14.109375 22.625 23.890625 
Q 32.328125 33.6875 34.8125 36.53125 
Q 39.546875 41.84375 41.421875 45.53125 
Q 43.3125 49.21875 43.3125 52.78125 
Q 43.3125 58.59375 39.234375 62.25 
Q 35.15625 65.921875 28.609375 65.921875 
Q 23.96875 65.921875 18.8125 64.3125 
Q 13.671875 62.703125 7.8125 59.421875 
L 7.8125 69.390625 
Q 13.765625 71.78125 18.9375 73 
Q 24.125 74.21875 28.421875 74.21875 
Q 39.75 74.21875 46.484375 68.546875 
Q 53.21875 62.890625 53.21875 53.421875 
Q 53.21875 48.921875 51.53125 44.890625 
Q 49.859375 40.875 45.40625 35.40625 
Q 44.1875 33.984375 37.640625 27.21875 
Q 31.109375 20.453125 19.1875 8.296875 
" id="DejaVuSans-32"/>
      </defs>
      <g style="fill:#262626;" transform="translate(56.59875 146.07875)scale(0.08 -0.08)">
       <use xlink:href="#DejaVuSans-30"/>
       <use x="63.623047" xlink:href="#DejaVuSans-2e"/>
       <use x="95.410156" xlink:href="#DejaVuSans-32"/>
      </g>
     </g>
    </g>
    <g id="xtick_3">
     <g id="line2d_5">
      <path clip-path="url(#pefc5d37764)" d="M 90.755 136.5 
L 90.755 7.2 
" style="fill:none;stroke:#cccccc;stroke-linecap:round;stroke-width:0.8;"/>
     </g>
     <g id="line2d_6"/>
     <g id="text_3">
      <!-- 0.4 -->
      <defs>
       <path d="M 37.796875 64.3125 
L 12.890625 25.390625 
L 37.796875 25.390625 
z
M 35.203125 72.90625 
L 47.609375 72.90625 
L 47.609375 25.390625 
L 58.015625 25.390625 
L 58.015625 17.1875 
L 47.609375 17.1875 
L 47.609375 0 
L 37.796875 0 
L 37.796875 17.1875 
L 4.890625 17.1875 
L 4.890625 26.703125 
z
" id="DejaVuSans-34"/>
      </defs>
      <g style="fill:#262626;" transform="translate(84.39375 146.07875)scale(0.08 -0.08)">
       <use xlink:href="#DejaVuSans-30"/>
       <use x="63.623047" xlink:href="#DejaVuSans-2e"/>
       <use x="95.410156" xlink:href="#DejaVuSans-34"/>
      </g>
     </g>
    </g>
    <g id="xtick_4">
     <g id="line2d_7">
      <path clip-path="url(#pefc5d37764)" d="M 118.55 136.5 
L 118.55 7.2 
" style="fill:none;stroke:#cccccc;stroke-linecap:round;stroke-width:0.8;"/>
     </g>
     <g id="line2d_8"/>
     <g id="text_4">
      <!-- 0.6 -->
      <defs>
       <path d="M 33.015625 40.375 
Q 26.375 40.375 22.484375 35.828125 
Q 18.609375 31.296875 18.609375 23.390625 
Q 18.609375 15.53125 22.484375 10.953125 
Q 26.375 6.390625 33.015625 6.390625 
Q 39.65625 6.390625 43.53125 10.953125 
Q 47.40625 15.53125 47.40625 23.390625 
Q 47.40625 31.296875 43.53125 35.828125 
Q 39.65625 40.375 33.015625 40.375 
M 52.59375 71.296875 
L 52.59375 62.3125 
Q 48.875 64.0625 45.09375 64.984375 
Q 41.3125 65.921875 37.59375 65.921875 
Q 27.828125 65.921875 22.671875 59.328125 
Q 17.53125 52.734375 16.796875 39.40625 
Q 19.671875 43.65625 24.015625 45.921875 
Q 28.375 48.1875 33.59375 48.1875 
Q 44.578125 48.1875 50.953125 41.515625 
Q 57.328125 34.859375 57.328125 23.390625 
Q 57.328125 12.15625 50.6875 5.359375 
Q 44.046875 -1.421875 33.015625 -1.421875 
Q 20.359375 -1.421875 13.671875 8.265625 
Q 6.984375 17.96875 6.984375 36.375 
Q 6.984375 53.65625 15.1875 63.9375 
Q 23.390625 74.21875 37.203125 74.21875 
Q 40.921875 74.21875 44.703125 73.484375 
Q 48.484375 72.75 52.59375 71.296875 
" id="DejaVuSans-36"/>
      </defs>
      <g style="fill:#262626;" transform="translate(112.18875 146.07875)scale(0.08 -0.08)">
       <use xlink:href="#DejaVuSans-30"/>
       <use x="63.623047" xlink:href="#DejaVuSans-2e"/>
       <use x="95.410156" xlink:href="#DejaVuSans-36"/>
      </g>
     </g>
    </g>
    <g id="xtick_5">
     <g id="line2d_9">
      <path clip-path="url(#pefc5d37764)" d="M 146.345 136.5 
L 146.345 7.2 
" style="fill:none;stroke:#cccccc;stroke-linecap:round;stroke-width:0.8;"/>
     </g>
     <g id="line2d_10"/>
     <g id="text_5">
      <!-- 0.8 -->
      <defs>
       <path d="M 31.78125 34.625 
Q 24.75 34.625 20.71875 30.859375 
Q 16.703125 27.09375 16.703125 20.515625 
Q 16.703125 13.921875 20.71875 10.15625 
Q 24.75 6.390625 31.78125 6.390625 
Q 38.8125 6.390625 42.859375 10.171875 
Q 46.921875 13.96875 46.921875 20.515625 
Q 46.921875 27.09375 42.890625 30.859375 
Q 38.875 34.625 31.78125 34.625 
M 21.921875 38.8125 
Q 15.578125 40.375 12.03125 44.71875 
Q 8.5 49.078125 8.5 55.328125 
Q 8.5 64.0625 14.71875 69.140625 
Q 20.953125 74.21875 31.78125 74.21875 
Q 42.671875 74.21875 48.875 69.140625 
Q 55.078125 64.0625 55.078125 55.328125 
Q 55.078125 49.078125 51.53125 44.71875 
Q 48 40.375 41.703125 38.8125 
Q 48.828125 37.15625 52.796875 32.3125 
Q 56.78125 27.484375 56.78125 20.515625 
Q 56.78125 9.90625 50.3125 4.234375 
Q 43.84375 -1.421875 31.78125 -1.421875 
Q 19.734375 -1.421875 13.25 4.234375 
Q 6.78125 9.90625 6.78125 20.515625 
Q 6.78125 27.484375 10.78125 32.3125 
Q 14.796875 37.15625 21.921875 38.8125 
M 18.3125 54.390625 
Q 18.3125 48.734375 21.84375 45.5625 
Q 25.390625 42.390625 31.78125 42.390625 
Q 38.140625 42.390625 41.71875 45.5625 
Q 45.3125 48.734375 45.3125 54.390625 
Q 45.3125 60.0625 41.71875 63.234375 
Q 38.140625 66.40625 31.78125 66.40625 
Q 25.390625 66.40625 21.84375 63.234375 
Q 18.3125 60.0625 18.3125 54.390625 
" id="DejaVuSans-38"/>
      </defs>
      <g style="fill:#262626;" transform="translate(139.98375 146.07875)scale(0.08 -0.08)">
       <use xlink:href="#DejaVuSans-30"/>
       <use x="63.623047" xlink:href="#DejaVuSans-2e"/>
       <use x="95.410156" xlink:href="#DejaVuSans-38"/>
      </g>
     </g>
    </g>
    <g id="xtick_6">
     <g id="line2d_11">
      <path clip-path="url(#pefc5d37764)" d="M 174.14 136.5 
L 174.14 7.2 
" style="fill:none;stroke:#cccccc;stroke-linecap:round;stroke-width:0.8;"/>
     </g>
     <g id="line2d_12"/>
     <g id="text_6">
      <!-- 1.0 -->
      <defs>
       <path d="M 12.40625 8.296875 
L 28.515625 8.296875 
L 28.515625 63.921875 
L 10.984375 60.40625 
L 10.984375 69.390625 
L 28.421875 72.90625 
L 38.28125 72.90625 
L 38.28125 8.296875 
L 54.390625 8.296875 
L 54.390625 0 
L 12.40625 0 
z
" id="DejaVuSans-31"/>
      </defs>
      <g style="fill:#262626;" transform="translate(167.77875 146.07875)scale(0.08 -0.08)">
       <use xlink:href="#DejaVuSans-31"/>
       <use x="63.623047" xlink:href="#DejaVuSans-2e"/>
       <use x="95.410156" xlink:href="#DejaVuSans-30"/>
      </g>
     </g>
    </g>
    <g id="text_7">
     <!-- Recall -->
     <defs>
      <path d="M 44.390625 34.1875 
Q 47.5625 33.109375 50.5625 29.59375 
Q 53.5625 26.078125 56.59375 19.921875 
L 66.609375 0 
L 56 0 
L 46.6875 18.703125 
Q 43.0625 26.03125 39.671875 28.421875 
Q 36.28125 30.8125 30.421875 30.8125 
L 19.671875 30.8125 
L 19.671875 0 
L 9.8125 0 
L 9.8125 72.90625 
L 32.078125 72.90625 
Q 44.578125 72.90625 50.734375 67.671875 
Q 56.890625 62.453125 56.890625 51.90625 
Q 56.890625 45.015625 53.6875 40.46875 
Q 50.484375 35.9375 44.390625 34.1875 
M 19.671875 64.796875 
L 19.671875 38.921875 
L 32.078125 38.921875 
Q 39.203125 38.921875 42.84375 42.21875 
Q 46.484375 45.515625 46.484375 51.90625 
Q 46.484375 58.296875 42.84375 61.546875 
Q 39.203125 64.796875 32.078125 64.796875 
z
" id="DejaVuSans-52"/>
      <path d="M 56.203125 29.59375 
L 56.203125 25.203125 
L 14.890625 25.203125 
Q 15.484375 15.921875 20.484375 11.0625 
Q 25.484375 6.203125 34.421875 6.203125 
Q 39.59375 6.203125 44.453125 7.46875 
Q 49.3125 8.734375 54.109375 11.28125 
L 54.109375 2.78125 
Q 49.265625 0.734375 44.1875 -0.34375 
Q 39.109375 -1.421875 33.890625 -1.421875 
Q 20.796875 -1.421875 13.15625 6.1875 
Q 5.515625 13.8125 5.515625 26.8125 
Q 5.515625 40.234375 12.765625 48.109375 
Q 20.015625 56 32.328125 56 
Q 43.359375 56 49.78125 48.890625 
Q 56.203125 41.796875 56.203125 29.59375 
M 47.21875 32.234375 
Q 47.125 39.59375 43.09375 43.984375 
Q 39.0625 48.390625 32.421875 48.390625 
Q 24.90625 48.390625 20.390625 44.140625 
Q 15.875 39.890625 15.1875 32.171875 
z
" id="DejaVuSans-65"/>
      <path d="M 48.78125 52.59375 
L 48.78125 44.1875 
Q 44.96875 46.296875 41.140625 47.34375 
Q 37.3125 48.390625 33.40625 48.390625 
Q 24.65625 48.390625 19.8125 42.84375 
Q 14.984375 37.3125 14.984375 27.296875 
Q 14.984375 17.28125 19.8125 11.734375 
Q 24.65625 6.203125 33.40625 6.203125 
Q 37.3125 6.203125 41.140625 7.25 
Q 44.96875 8.296875 48.78125 10.40625 
L 48.78125 2.09375 
Q 45.015625 0.34375 40.984375 -0.53125 
Q 36.96875 -1.421875 32.421875 -1.421875 
Q 20.0625 -1.421875 12.78125 6.34375 
Q 5.515625 14.109375 5.515625 27.296875 
Q 5.515625 40.671875 12.859375 48.328125 
Q 20.21875 56 33.015625 56 
Q 37.15625 56 41.109375 55.140625 
Q 45.0625 54.296875 48.78125 52.59375 
" id="DejaVuSans-63"/>
      <path d="M 34.28125 27.484375 
Q 23.390625 27.484375 19.1875 25 
Q 14.984375 22.515625 14.984375 16.5 
Q 14.984375 11.71875 18.140625 8.90625 
Q 21.296875 6.109375 26.703125 6.109375 
Q 34.1875 6.109375 38.703125 11.40625 
Q 43.21875 16.703125 43.21875 25.484375 
L 43.21875 27.484375 
z
M 52.203125 31.203125 
L 52.203125 0 
L 43.21875 0 
L 43.21875 8.296875 
Q 40.140625 3.328125 35.546875 0.953125 
Q 30.953125 -1.421875 24.3125 -1.421875 
Q 15.921875 -1.421875 10.953125 3.296875 
Q 6 8.015625 6 15.921875 
Q 6 25.140625 12.171875 29.828125 
Q 18.359375 34.515625 30.609375 34.515625 
L 43.21875 34.515625 
L 43.21875 35.40625 
Q 43.21875 41.609375 39.140625 45 
Q 35.0625 48.390625 27.6875 48.390625 
Q 23 48.390625 18.546875 47.265625 
Q 14.109375 46.140625 10.015625 43.890625 
L 10.015625 52.203125 
Q 14.9375 54.109375 19.578125 55.046875 
Q 24.21875 56 28.609375 56 
Q 40.484375 56 46.34375 49.84375 
Q 52.203125 43.703125 52.203125 31.203125 
" id="DejaVuSans-61"/>
      <path d="M 9.421875 75.984375 
L 18.40625 75.984375 
L 18.40625 0 
L 9.421875 0 
z
" id="DejaVuSans-6c"/>
     </defs>
     <g style="fill:#262626;" transform="translate(92.54125 157.82125)scale(0.08 -0.08)">
      <use xlink:href="#DejaVuSans-52"/>
      <use x="69.419922" xlink:href="#DejaVuSans-65"/>
      <use x="130.943359" xlink:href="#DejaVuSans-63"/>
      <use x="185.923828" xlink:href="#DejaVuSans-61"/>
      <use x="247.203125" xlink:href="#DejaVuSans-6c"/>
      <use x="274.986328" xlink:href="#DejaVuSans-6c"/>
     </g>
    </g>
   </g>
   <g id="matplotlib.axis_2">
    <g id="ytick_1">
     <g id="line2d_13">
      <path clip-path="url(#pefc5d37764)" d="M 35.165 136.5 
L 174.14 136.5 
" style="fill:none;stroke:#cccccc;stroke-linecap:round;stroke-width:0.8;"/>
     </g>
     <g id="line2d_14"/>
     <g id="text_8">
      <!-- 0.0 -->
      <g style="fill:#262626;" transform="translate(18.9425 139.539375)scale(0.08 -0.08)">
       <use xlink:href="#DejaVuSans-30"/>
       <use x="63.623047" xlink:href="#DejaVuSans-2e"/>
       <use x="95.410156" xlink:href="#DejaVuSans-30"/>
      </g>
     </g>
    </g>
    <g id="ytick_2">
     <g id="line2d_15">
      <path clip-path="url(#pefc5d37764)" d="M 35.165 111.871429 
L 174.14 111.871429 
" style="fill:none;stroke:#cccccc;stroke-linecap:round;stroke-width:0.8;"/>
     </g>
     <g id="line2d_16"/>
     <g id="text_9">
      <!-- 0.2 -->
      <g style="fill:#262626;" transform="translate(18.9425 114.910804)scale(0.08 -0.08)">
       <use xlink:href="#DejaVuSans-30"/>
       <use x="63.623047" xlink:href="#DejaVuSans-2e"/>
       <use x="95.410156" xlink:href="#DejaVuSans-32"/>
      </g>
     </g>
    </g>
    <g id="ytick_3">
     <g id="line2d_17">
      <path clip-path="url(#pefc5d37764)" d="M 35.165 87.242857 
L 174.14 87.242857 
" style="fill:none;stroke:#cccccc;stroke-linecap:round;stroke-width:0.8;"/>
     </g>
     <g id="line2d_18"/>
     <g id="text_10">
      <!-- 0.4 -->
      <g style="fill:#262626;" transform="translate(18.9425 90.282232)scale(0.08 -0.08)">
       <use xlink:href="#DejaVuSans-30"/>
       <use x="63.623047" xlink:href="#DejaVuSans-2e"/>
       <use x="95.410156" xlink:href="#DejaVuSans-34"/>
      </g>
     </g>
    </g>
    <g id="ytick_4">
     <g id="line2d_19">
      <path clip-path="url(#pefc5d37764)" d="M 35.165 62.614286 
L 174.14 62.614286 
" style="fill:none;stroke:#cccccc;stroke-linecap:round;stroke-width:0.8;"/>
     </g>
     <g id="line2d_20"/>
     <g id="text_11">
      <!-- 0.6 -->
      <g style="fill:#262626;" transform="translate(18.9425 65.653661)scale(0.08 -0.08)">
       <use xlink:href="#DejaVuSans-30"/>
       <use x="63.623047" xlink:href="#DejaVuSans-2e"/>
       <use x="95.410156" xlink:href="#DejaVuSans-36"/>
      </g>
     </g>
    </g>
    <g id="ytick_5">
     <g id="line2d_21">
      <path clip-path="url(#pefc5d37764)" d="M 35.165 37.985714 
L 174.14 37.985714 
" style="fill:none;stroke:#cccccc;stroke-linecap:round;stroke-width:0.8;"/>
     </g>
     <g id="line2d_22"/>
     <g id="text_12">
      <!-- 0.8 -->
      <g style="fill:#262626;" transform="translate(18.9425 41.025089)scale(0.08 -0.08)">
       <use xlink:href="#DejaVuSans-30"/>
       <use x="63.623047" xlink:href="#DejaVuSans-2e"/>
       <use x="95.410156" xlink:href="#DejaVuSans-38"/>
      </g>
     </g>
    </g>
    <g id="ytick_6">
     <g id="line2d_23">
      <path clip-path="url(#pefc5d37764)" d="M 35.165 13.357143 
L 174.14 13.357143 
" style="fill:none;stroke:#cccccc;stroke-linecap:round;stroke-width:0.8;"/>
     </g>
     <g id="line2d_24"/>
     <g id="text_13">
      <!-- 1.0 -->
      <g style="fill:#262626;" transform="translate(18.9425 16.396518)scale(0.08 -0.08)">
       <use xlink:href="#DejaVuSans-31"/>
       <use x="63.623047" xlink:href="#DejaVuSans-2e"/>
       <use x="95.410156" xlink:href="#DejaVuSans-30"/>
      </g>
     </g>
    </g>
    <g id="text_14">
     <!-- Precision -->
     <defs>
      <path d="M 19.671875 64.796875 
L 19.671875 37.40625 
L 32.078125 37.40625 
Q 38.96875 37.40625 42.71875 40.96875 
Q 46.484375 44.53125 46.484375 51.125 
Q 46.484375 57.671875 42.71875 61.234375 
Q 38.96875 64.796875 32.078125 64.796875 
z
M 9.8125 72.90625 
L 32.078125 72.90625 
Q 44.34375 72.90625 50.609375 67.359375 
Q 56.890625 61.8125 56.890625 51.125 
Q 56.890625 40.328125 50.609375 34.8125 
Q 44.34375 29.296875 32.078125 29.296875 
L 19.671875 29.296875 
L 19.671875 0 
L 9.8125 0 
z
" id="DejaVuSans-50"/>
      <path d="M 41.109375 46.296875 
Q 39.59375 47.171875 37.8125 47.578125 
Q 36.03125 48 33.890625 48 
Q 26.265625 48 22.1875 43.046875 
Q 18.109375 38.09375 18.109375 28.8125 
L 18.109375 0 
L 9.078125 0 
L 9.078125 54.6875 
L 18.109375 54.6875 
L 18.109375 46.1875 
Q 20.953125 51.171875 25.484375 53.578125 
Q 30.03125 56 36.53125 56 
Q 37.453125 56 38.578125 55.875 
Q 39.703125 55.765625 41.0625 55.515625 
z
" id="DejaVuSans-72"/>
      <path d="M 9.421875 54.6875 
L 18.40625 54.6875 
L 18.40625 0 
L 9.421875 0 
z
M 9.421875 75.984375 
L 18.40625 75.984375 
L 18.40625 64.59375 
L 9.421875 64.59375 
z
" id="DejaVuSans-69"/>
      <path d="M 44.28125 53.078125 
L 44.28125 44.578125 
Q 40.484375 46.53125 36.375 47.5 
Q 32.28125 48.484375 27.875 48.484375 
Q 21.1875 48.484375 17.84375 46.4375 
Q 14.5 44.390625 14.5 40.28125 
Q 14.5 37.15625 16.890625 35.375 
Q 19.28125 33.59375 26.515625 31.984375 
L 29.59375 31.296875 
Q 39.15625 29.25 43.1875 25.515625 
Q 47.21875 21.78125 47.21875 15.09375 
Q 47.21875 7.46875 41.1875 3.015625 
Q 35.15625 -1.421875 24.609375 -1.421875 
Q 20.21875 -1.421875 15.453125 -0.5625 
Q 10.6875 0.296875 5.421875 2 
L 5.421875 11.28125 
Q 10.40625 8.6875 15.234375 7.390625 
Q 20.0625 6.109375 24.8125 6.109375 
Q 31.15625 6.109375 34.5625 8.28125 
Q 37.984375 10.453125 37.984375 14.40625 
Q 37.984375 18.0625 35.515625 20.015625 
Q 33.0625 21.96875 24.703125 23.78125 
L 21.578125 24.515625 
Q 13.234375 26.265625 9.515625 29.90625 
Q 5.8125 33.546875 5.8125 39.890625 
Q 5.8125 47.609375 11.28125 51.796875 
Q 16.75 56 26.8125 56 
Q 31.78125 56 36.171875 55.265625 
Q 40.578125 54.546875 44.28125 53.078125 
" id="DejaVuSans-73"/>
      <path d="M 30.609375 48.390625 
Q 23.390625 48.390625 19.1875 42.75 
Q 14.984375 37.109375 14.984375 27.296875 
Q 14.984375 17.484375 19.15625 11.84375 
Q 23.34375 6.203125 30.609375 6.203125 
Q 37.796875 6.203125 41.984375 11.859375 
Q 46.1875 17.53125 46.1875 27.296875 
Q 46.1875 37.015625 41.984375 42.703125 
Q 37.796875 48.390625 30.609375 48.390625 
M 30.609375 56 
Q 42.328125 56 49.015625 48.375 
Q 55.71875 40.765625 55.71875 27.296875 
Q 55.71875 13.875 49.015625 6.21875 
Q 42.328125 -1.421875 30.609375 -1.421875 
Q 18.84375 -1.421875 12.171875 6.21875 
Q 5.515625 13.875 5.515625 27.296875 
Q 5.515625 40.765625 12.171875 48.375 
Q 18.84375 56 30.609375 56 
" id="DejaVuSans-6f"/>
      <path d="M 54.890625 33.015625 
L 54.890625 0 
L 45.90625 0 
L 45.90625 32.71875 
Q 45.90625 40.484375 42.875 44.328125 
Q 39.84375 48.1875 33.796875 48.1875 
Q 26.515625 48.1875 22.3125 43.546875 
Q 18.109375 38.921875 18.109375 30.90625 
L 18.109375 0 
L 9.078125 0 
L 9.078125 54.6875 
L 18.109375 54.6875 
L 18.109375 46.1875 
Q 21.34375 51.125 25.703125 53.5625 
Q 30.078125 56 35.796875 56 
Q 45.21875 56 50.046875 50.171875 
Q 54.890625 44.34375 54.890625 33.015625 
" id="DejaVuSans-6e"/>
     </defs>
     <g style="fill:#262626;" transform="translate(13.27875 89.85375)rotate(-90)scale(0.08 -0.08)">
      <use xlink:href="#DejaVuSans-50"/>
      <use x="60.287109" xlink:href="#DejaVuSans-72"/>
      <use x="101.369141" xlink:href="#DejaVuSans-65"/>
      <use x="162.892578" xlink:href="#DejaVuSans-63"/>
      <use x="217.873047" xlink:href="#DejaVuSans-69"/>
      <use x="245.65625" xlink:href="#DejaVuSans-73"/>
      <use x="297.755859" xlink:href="#DejaVuSans-69"/>
      <use x="325.539062" xlink:href="#DejaVuSans-6f"/>
      <use x="386.720703" xlink:href="#DejaVuSans-6e"/>
     </g>
    </g>
   </g>
   <g id="line2d_25">
    <path clip-path="url(#pefc5d37764)" d="M 174.14 127.475147 
L 172.841168 127.553363 
L 172.841168 127.553363 
L 172.841168 127.553363 
L 172.841168 127.068538 
L 171.542336 127.150759 
L 171.542336 127.041331 
L 171.542336 126.778195 
L 168.944673 126.898399 
L 168.944673 126.839898 
L 168.944673 126.312278 
L 167.645841 126.403078 
L 167.645841 126.296449 
L 167.645841 125.971441 
L 165.048178 126.064165 
L 165.048178 126.055313 
L 165.048178 125.983958 
L 162.450514 126.132302 
L 162.450514 126.069576 
L 162.450514 125.68638 
L 161.151682 125.787124 
L 161.151682 125.680383 
L 161.151682 125.641039 
L 159.85285 125.743208 
L 159.85285 125.634454 
L 159.85285 125.553968 
L 157.255187 125.742167 
L 157.255187 125.651426 
L 157.255187 125.337581 
L 155.956355 125.44567 
L 155.956355 125.337928 
L 155.956355 124.825907 
L 154.657523 124.93965 
L 154.657523 124.8325 
L 154.657523 124.820471 
L 153.358692 124.935501 
L 153.358692 124.827083 
L 153.358692 124.279716 
L 152.05986 124.400811 
L 152.05986 124.29421 
L 152.05986 124.213019 
L 149.462196 124.459365 
L 149.462196 124.351377 
L 149.462196 124.199692 
L 148.163364 124.325649 
L 148.163364 124.228031 
L 148.163364 123.925553 
L 144.266869 124.287485 
L 144.266869 124.214964 
L 144.266869 123.976998 
L 142.968037 124.111082 
L 142.968037 124.005065 
L 142.968037 123.97444 
L 141.669206 124.110167 
L 141.669206 124.002829 
L 141.669206 123.587322 
L 140.370374 123.728462 
L 140.370374 123.629585 
L 140.370374 123.075274 
L 139.071542 123.223142 
L 139.071542 123.114907 
L 139.071542 121.969869 
L 137.77271 122.130302 
L 137.77271 122.023384 
L 137.77271 121.804704 
L 136.473879 121.96877 
L 136.473879 121.858014 
L 136.473879 121.561986 
L 135.175047 121.73053 
L 135.175047 121.637931 
L 135.175047 121.132091 
L 133.876215 121.30705 
L 133.876215 121.20775 
L 133.876215 120.66437 
L 132.577383 120.846247 
L 132.577383 120.739395 
L 132.577383 120.685421 
L 129.97972 120.974217 
L 129.97972 120.947355 
L 129.97972 119.944883 
L 128.680888 120.141539 
L 128.680888 120.05049 
L 128.680888 119.865318 
L 126.083224 120.205104 
L 126.083224 120.174242 
L 126.083224 118.908163 
L 124.784393 119.124014 
L 124.784393 119.016755 
L 124.784393 118.227189 
L 122.186729 118.64162 
L 122.186729 118.602882 
L 122.186729 118.446233 
L 120.887897 118.676692 
L 120.887897 118.598175 
L 120.887897 117.816256 
L 118.290234 118.214286 
L 118.290234 118.171761 
L 116.991402 118.416084 
L 116.991402 118.331382 
L 116.991402 117.056391 
L 115.69257 117.316942 
L 115.69257 117.220058 
L 115.69257 114.932607 
L 114.393738 115.220356 
L 114.393738 115.159903 
L 114.393738 114.599958 
L 113.094907 114.89599 
L 113.094907 114.832635 
L 113.094907 113.410714 
L 110.497243 114.039982 
L 110.497243 113.96913 
L 110.497243 113.005639 
L 109.198411 113.334512 
L 109.198411 113.257805 
L 109.198411 113.180589 
L 107.899579 113.513333 
L 107.899579 113.436455 
L 107.899579 112.72069 
L 106.600748 113.064508 
L 106.600748 112.983135 
L 106.600748 112.137205 
L 105.301916 112.493811 
L 105.301916 112.406832 
L 105.301916 111.594703 
L 104.003084 111.964017 
L 104.003084 111.871429 
L 104.003084 111.589422 
L 102.704252 111.965791 
L 102.704252 111.871429 
L 102.704252 111.776338 
L 100.106589 112.448661 
L 100.106589 110.951689 
L 98.807757 111.358333 
L 98.807757 111.253138 
L 98.807757 110.823404 
L 97.508925 111.239927 
L 97.508925 111.131514 
L 97.508925 110.911874 
L 96.210093 111.336025 
L 96.210093 111.226138 
L 96.210093 109.950852 
L 94.911262 110.395984 
L 94.911262 109.266484 
L 92.313598 110.197642 
L 92.313598 109.676803 
L 91.014766 110.156006 
L 91.014766 109.345421 
L 88.417103 110.340118 
L 88.417103 109.78647 
L 87.118271 110.299392 
L 87.118271 108.827448 
L 85.819439 109.366828 
L 85.819439 109.056735 
L 84.520607 109.606732 
L 84.520607 109.134921 
L 83.221776 109.698319 
L 83.221776 107.662749 
L 81.922944 108.263421 
L 81.922944 105.926601 
L 80.624112 106.569444 
L 80.624112 104.808824 
L 79.32528 105.486243 
L 79.32528 104.539258 
L 78.026449 105.240659 
L 78.026449 104.752232 
L 76.727617 105.471879 
L 76.727617 105.225624 
L 75.428785 105.960571 
L 75.428785 104.688095 
L 74.129953 105.455582 
L 74.129953 105.192494 
L 72.831121 105.977411 
L 72.831121 105.714286 
L 70.233458 107.334586 
L 70.233458 106.546332 
L 68.934626 107.393506 
L 68.934626 106.295148 
L 66.336963 108.082418 
L 66.336963 106.342566 
L 65.038131 107.301178 
L 65.038131 106.045315 
L 63.739299 107.052795 
L 63.739299 106.060193 
L 61.141636 108.191297 
L 61.141636 107.180272 
L 59.842804 108.310671 
L 59.842804 103.546278 
L 58.543972 104.834694 
L 58.543972 104.375776 
L 57.24514 105.714286 
L 57.24514 96.241758 
L 54.647477 99.557143 
L 54.647477 96.34472 
L 53.348645 98.188889 
L 53.348645 94.45122 
L 52.049813 96.478571 
L 52.049813 95.452381 
L 50.750981 97.612782 
L 50.750981 95.452381 
L 48.153318 100.281513 
L 48.153318 95.452381 
L 46.854486 98.283251 
L 46.854486 96.918367 
L 44.256822 103.346154 
L 42.957991 106.945714 
L 42.957991 105.714286 
L 41.659159 109.729814 
L 41.659159 105.714286 
L 40.360327 110.575188 
L 40.360327 98.60989 
L 39.061495 105.714286 
L 39.061495 102.915584 
L 37.762664 111.871429 
L 37.762664 105.714286 
L 36.463832 118.908163 
L 36.463832 13.357143 
L 35.165 13.357143 
L 35.165 13.357143 
" style="fill:none;stroke:#0000ff;stroke-linecap:round;stroke-width:2;"/>
   </g>
   <g id="line2d_26">
    <path clip-path="url(#pefc5d37764)" d="M 174.14 126.238095 
L 163.449615 126.966359 
L 163.449615 126.966359 
L 163.449615 126.966359 
L 163.449615 124.864454 
L 152.759231 125.749433 
L 152.759231 125.663429 
L 152.759231 124.82266 
L 142.068846 125.791925 
L 142.068846 125.697995 
L 142.068846 124.659341 
L 131.378462 125.739945 
L 131.378462 125.634454 
L 131.378462 113.410714 
L 120.688077 115.539514 
L 120.688077 103.661905 
L 109.997692 106.775862 
L 109.997692 97.318182 
L 99.307308 101.316327 
L 88.616923 105.714286 
L 88.616923 102.293651 
L 77.926538 107.52521 
L 77.926538 103.661905 
L 67.236154 110.112245 
L 56.545769 117.554945 
L 56.545769 74.928571 
L 45.855385 95.452381 
L 35.165 136.5 
L 35.165 136.5 
L 35.165 13.357143 
L 35.165 13.357143 
" style="fill:none;stroke:#008000;stroke-linecap:round;stroke-width:2;"/>
   </g>
   <g id="line2d_27">
    <path clip-path="url(#pefc5d37764)" d="M 174.14 128.223439 
L 172.841168 128.295636 
L 172.841168 128.295636 
L 172.841168 128.295636 
L 172.841168 128.248962 
L 167.645841 128.45351 
L 167.645841 128.432838 
L 167.645841 128.391174 
L 165.048178 128.488103 
L 165.048178 128.43035 
L 165.048178 128.382475 
L 163.749346 128.458349 
L 163.749346 128.35084 
L 163.749346 128.301518 
L 162.450514 128.378869 
L 162.450514 128.268076 
L 162.450514 128.182977 
L 159.85285 128.273337 
L 159.85285 128.233067 
L 159.85285 128.227282 
L 155.956355 128.366274 
L 155.956355 128.360493 
L 155.956355 128.225227 
L 154.657523 128.308284 
L 154.657523 128.200262 
L 154.657523 128.169748 
L 152.05986 128.332825 
L 152.05986 128.229211 
L 152.05986 128.173285 
L 146.864533 128.421979 
L 146.864533 128.409637 
L 146.864533 128.347355 
L 145.565701 128.435945 
L 145.565701 128.328928 
L 145.565701 128.152996 
L 142.968037 128.297065 
L 142.968037 128.230698 
L 142.968037 127.961272 
L 140.370374 128.096823 
L 140.370374 128.046973 
L 140.370374 127.641588 
L 135.175047 127.98833 
L 135.175047 127.942238 
L 135.175047 127.460915 
L 133.876215 127.569793 
L 133.876215 127.466354 
L 133.876215 127.169135 
L 129.97972 127.419769 
L 129.97972 127.401388 
L 129.97972 127.336464 
L 128.680888 127.45277 
L 128.680888 127.350066 
L 128.680888 127.254655 
L 126.083224 127.397571 
L 126.083224 127.387949 
L 126.083224 127.08952 
L 123.485561 127.25749 
L 123.485561 127.226784 
L 123.485561 127.206199 
L 119.589065 127.516514 
L 119.589065 127.476003 
L 119.589065 127.320773 
L 118.290234 127.451616 
L 118.290234 127.346524 
L 118.290234 127.249832 
L 115.69257 127.421692 
L 115.69257 127.410884 
L 115.69257 126.811095 
L 114.393738 126.955255 
L 114.393738 126.84484 
L 114.393738 126.266057 
L 113.094907 126.420094 
L 113.094907 126.308867 
L 113.094907 126.280676 
L 111.796075 126.43708 
L 111.796075 126.338561 
L 111.796075 125.736402 
L 109.198411 126.054847 
L 109.198411 125.960746 
L 109.198411 125.881024 
L 107.899579 126.051515 
L 107.899579 125.93951 
L 107.899579 125.588608 
L 105.301916 125.843407 
L 105.301916 125.687456 
L 104.003084 125.870405 
L 104.003084 125.765508 
L 104.003084 125.64048 
L 102.704252 125.827619 
L 102.704252 125.719817 
L 102.704252 125.665095 
L 101.405421 125.855448 
L 101.405421 125.746086 
L 101.405421 125.344963 
L 98.807757 125.705725 
L 98.807757 125.647482 
L 98.807757 124.714844 
L 97.508925 124.932765 
L 97.508925 124.841505 
L 97.508925 123.187259 
L 96.210093 123.435182 
L 96.210093 123.346104 
L 96.210093 123.008825 
L 94.911262 123.26502 
L 94.911262 123.171597 
L 94.911262 122.231558 
L 93.61243 122.506494 
L 93.61243 122.399673 
L 93.61243 122.181063 
L 91.014766 122.638369 
L 91.014766 122.565414 
L 87.118271 123.329641 
L 87.118271 121.155096 
L 84.520607 121.784816 
L 84.520607 121.738396 
L 84.520607 121.597361 
L 81.922944 122.291209 
L 81.922944 122.199539 
L 81.922944 121.472397 
L 75.428785 123.24504 
L 75.428785 123.198855 
L 75.428785 122.718669 
L 72.831121 123.418891 
L 72.831121 123.370798 
L 71.53229 123.776753 
L 71.53229 123.682156 
L 71.53229 121.764957 
L 70.233458 122.230227 
L 70.233458 122.168719 
L 70.233458 119.875714 
L 68.934626 120.410983 
L 68.934626 120.329726 
L 68.934626 119.193436 
L 67.635794 119.768634 
L 67.635794 119.677205 
L 67.635794 119.396825 
L 66.336963 119.989226 
L 66.336963 119.896469 
L 66.336963 119.012257 
L 62.440467 120.827273 
L 62.440467 119.598039 
L 61.141636 120.296992 
L 61.141636 120.189688 
L 61.141636 119.631115 
L 59.842804 120.364039 
L 59.842804 120.251984 
L 59.842804 119.787755 
L 58.543972 120.553443 
L 58.543972 120.437888 
L 58.543972 120.080952 
L 57.24514 120.877399 
L 57.24514 120.759936 
L 57.24514 120.640693 
L 55.946308 121.459651 
L 55.946308 121.343956 
L 55.946308 121.226467 
L 54.647477 122.069196 
L 54.647477 121.955568 
L 54.647477 121.234357 
L 53.348645 122.133333 
L 53.348645 122.012605 
L 53.348645 117.962366 
L 52.049813 119.099379 
L 52.049813 118.712698 
L 50.750981 119.896469 
L 50.750981 118.028571 
L 49.45215 119.353526 
L 49.45215 116.86853 
L 48.153318 118.390756 
L 48.153318 113.265499 
L 46.854486 115.186813 
L 46.854486 110.112245 
L 44.256822 114.95 
L 44.256822 111.147059 
L 42.957991 114.11039 
L 42.957991 108.082418 
L 41.659159 111.871429 
L 41.659159 107.180272 
L 40.360327 111.871429 
L 40.360327 107.52521 
L 39.061495 113.410714 
L 39.061495 110.112245 
L 37.762664 117.554945 
L 36.463832 126.238095 
L 36.463832 13.357143 
L 35.165 13.357143 
L 35.165 13.357143 
" style="fill:none;stroke:#ffa500;stroke-linecap:round;stroke-width:2;"/>
   </g>
   <g id="patch_3">
    <path d="M 35.165 136.5 
L 35.165 7.2 
" style="fill:none;stroke:#cccccc;stroke-linecap:square;stroke-linejoin:miter;"/>
   </g>
   <g id="patch_4">
    <path d="M 174.14 136.5 
L 174.14 7.2 
" style="fill:none;stroke:#cccccc;stroke-linecap:square;stroke-linejoin:miter;"/>
   </g>
   <g id="patch_5">
    <path d="M 35.165 136.5 
L 174.14 136.5 
" style="fill:none;stroke:#cccccc;stroke-linecap:square;stroke-linejoin:miter;"/>
   </g>
   <g id="patch_6">
    <path d="M 35.165 7.2 
L 174.14 7.2 
" style="fill:none;stroke:#cccccc;stroke-linecap:square;stroke-linejoin:miter;"/>
   </g>
   <g id="legend_1">
    <g id="line2d_28">
     <path d="M 42.097578 174.640228 
L 57.097578 174.640228 
" style="fill:none;stroke:#0000ff;stroke-linecap:round;stroke-width:2;"/>
    </g>
    <g id="line2d_29"/>
    <g id="text_15">
     <!-- Training (AUPR = 19.2%) -->
     <defs>
      <path d="M -0.296875 72.90625 
L 61.375 72.90625 
L 61.375 64.59375 
L 35.5 64.59375 
L 35.5 0 
L 25.59375 0 
L 25.59375 64.59375 
L -0.296875 64.59375 
z
" id="DejaVuSans-54"/>
      <path d="M 45.40625 27.984375 
Q 45.40625 37.75 41.375 43.109375 
Q 37.359375 48.484375 30.078125 48.484375 
Q 22.859375 48.484375 18.828125 43.109375 
Q 14.796875 37.75 14.796875 27.984375 
Q 14.796875 18.265625 18.828125 12.890625 
Q 22.859375 7.515625 30.078125 7.515625 
Q 37.359375 7.515625 41.375 12.890625 
Q 45.40625 18.265625 45.40625 27.984375 
M 54.390625 6.78125 
Q 54.390625 -7.171875 48.1875 -13.984375 
Q 42 -20.796875 29.203125 -20.796875 
Q 24.46875 -20.796875 20.265625 -20.09375 
Q 16.0625 -19.390625 12.109375 -17.921875 
L 12.109375 -9.1875 
Q 16.0625 -11.328125 19.921875 -12.34375 
Q 23.78125 -13.375 27.78125 -13.375 
Q 36.625 -13.375 41.015625 -8.765625 
Q 45.40625 -4.15625 45.40625 5.171875 
L 45.40625 9.625 
Q 42.625 4.78125 38.28125 2.390625 
Q 33.9375 0 27.875 0 
Q 17.828125 0 11.671875 7.65625 
Q 5.515625 15.328125 5.515625 27.984375 
Q 5.515625 40.671875 11.671875 48.328125 
Q 17.828125 56 27.875 56 
Q 33.9375 56 38.28125 53.609375 
Q 42.625 51.21875 45.40625 46.390625 
L 45.40625 54.6875 
L 54.390625 54.6875 
z
" id="DejaVuSans-67"/>
      <path id="DejaVuSans-20"/>
      <path d="M 31 75.875 
Q 24.46875 64.65625 21.28125 53.65625 
Q 18.109375 42.671875 18.109375 31.390625 
Q 18.109375 20.125 21.3125 9.0625 
Q 24.515625 -2 31 -13.1875 
L 23.1875 -13.1875 
Q 15.875 -1.703125 12.234375 9.375 
Q 8.59375 20.453125 8.59375 31.390625 
Q 8.59375 42.28125 12.203125 53.3125 
Q 15.828125 64.359375 23.1875 75.875 
z
" id="DejaVuSans-28"/>
      <path d="M 34.1875 63.1875 
L 20.796875 26.90625 
L 47.609375 26.90625 
z
M 28.609375 72.90625 
L 39.796875 72.90625 
L 67.578125 0 
L 57.328125 0 
L 50.6875 18.703125 
L 17.828125 18.703125 
L 11.1875 0 
L 0.78125 0 
z
" id="DejaVuSans-41"/>
      <path d="M 8.6875 72.90625 
L 18.609375 72.90625 
L 18.609375 28.609375 
Q 18.609375 16.890625 22.84375 11.734375 
Q 27.09375 6.59375 36.625 6.59375 
Q 46.09375 6.59375 50.34375 11.734375 
Q 54.59375 16.890625 54.59375 28.609375 
L 54.59375 72.90625 
L 64.5 72.90625 
L 64.5 27.390625 
Q 64.5 13.140625 57.4375 5.859375 
Q 50.390625 -1.421875 36.625 -1.421875 
Q 22.796875 -1.421875 15.734375 5.859375 
Q 8.6875 13.140625 8.6875 27.390625 
z
" id="DejaVuSans-55"/>
      <path d="M 10.59375 45.40625 
L 73.1875 45.40625 
L 73.1875 37.203125 
L 10.59375 37.203125 
z
M 10.59375 25.484375 
L 73.1875 25.484375 
L 73.1875 17.1875 
L 10.59375 17.1875 
z
" id="DejaVuSans-3d"/>
      <path d="M 10.984375 1.515625 
L 10.984375 10.5 
Q 14.703125 8.734375 18.5 7.8125 
Q 22.3125 6.890625 25.984375 6.890625 
Q 35.75 6.890625 40.890625 13.453125 
Q 46.046875 20.015625 46.78125 33.40625 
Q 43.953125 29.203125 39.59375 26.953125 
Q 35.25 24.703125 29.984375 24.703125 
Q 19.046875 24.703125 12.671875 31.3125 
Q 6.296875 37.9375 6.296875 49.421875 
Q 6.296875 60.640625 12.9375 67.421875 
Q 19.578125 74.21875 30.609375 74.21875 
Q 43.265625 74.21875 49.921875 64.515625 
Q 56.59375 54.828125 56.59375 36.375 
Q 56.59375 19.140625 48.40625 8.859375 
Q 40.234375 -1.421875 26.421875 -1.421875 
Q 22.703125 -1.421875 18.890625 -0.6875 
Q 15.09375 0.046875 10.984375 1.515625 
M 30.609375 32.421875 
Q 37.25 32.421875 41.125 36.953125 
Q 45.015625 41.5 45.015625 49.421875 
Q 45.015625 57.28125 41.125 61.84375 
Q 37.25 66.40625 30.609375 66.40625 
Q 23.96875 66.40625 20.09375 61.84375 
Q 16.21875 57.28125 16.21875 49.421875 
Q 16.21875 41.5 20.09375 36.953125 
Q 23.96875 32.421875 30.609375 32.421875 
" id="DejaVuSans-39"/>
      <path d="M 72.703125 32.078125 
Q 68.453125 32.078125 66.03125 28.46875 
Q 63.625 24.859375 63.625 18.40625 
Q 63.625 12.0625 66.03125 8.421875 
Q 68.453125 4.78125 72.703125 4.78125 
Q 76.859375 4.78125 79.265625 8.421875 
Q 81.6875 12.0625 81.6875 18.40625 
Q 81.6875 24.8125 79.265625 28.4375 
Q 76.859375 32.078125 72.703125 32.078125 
M 72.703125 38.28125 
Q 80.421875 38.28125 84.953125 32.90625 
Q 89.5 27.546875 89.5 18.40625 
Q 89.5 9.28125 84.9375 3.921875 
Q 80.375 -1.421875 72.703125 -1.421875 
Q 64.890625 -1.421875 60.34375 3.921875 
Q 55.8125 9.28125 55.8125 18.40625 
Q 55.8125 27.59375 60.375 32.9375 
Q 64.9375 38.28125 72.703125 38.28125 
M 22.3125 68.015625 
Q 18.109375 68.015625 15.6875 64.375 
Q 13.28125 60.75 13.28125 54.390625 
Q 13.28125 47.953125 15.671875 44.328125 
Q 18.0625 40.71875 22.3125 40.71875 
Q 26.5625 40.71875 28.96875 44.328125 
Q 31.390625 47.953125 31.390625 54.390625 
Q 31.390625 60.6875 28.953125 64.34375 
Q 26.515625 68.015625 22.3125 68.015625 
M 66.40625 74.21875 
L 74.21875 74.21875 
L 28.609375 -1.421875 
L 20.796875 -1.421875 
z
M 22.3125 74.21875 
Q 30.03125 74.21875 34.609375 68.875 
Q 39.203125 63.53125 39.203125 54.390625 
Q 39.203125 45.171875 34.640625 39.84375 
Q 30.078125 34.515625 22.3125 34.515625 
Q 14.546875 34.515625 10.03125 39.859375 
Q 5.515625 45.21875 5.515625 54.390625 
Q 5.515625 63.484375 10.046875 68.84375 
Q 14.59375 74.21875 22.3125 74.21875 
" id="DejaVuSans-25"/>
      <path d="M 8.015625 75.875 
L 15.828125 75.875 
Q 23.140625 64.359375 26.78125 53.3125 
Q 30.421875 42.28125 30.421875 31.390625 
Q 30.421875 20.453125 26.78125 9.375 
Q 23.140625 -1.703125 15.828125 -13.1875 
L 8.015625 -13.1875 
Q 14.5 -2 17.703125 9.0625 
Q 20.90625 20.125 20.90625 31.390625 
Q 20.90625 42.671875 17.703125 53.65625 
Q 14.5 64.65625 8.015625 75.875 
" id="DejaVuSans-29"/>
     </defs>
     <g style="fill:#262626;" transform="translate(63.097578 177.265228)scale(0.075 -0.075)">
      <use xlink:href="#DejaVuSans-54"/>
      <use x="60.865234" xlink:href="#DejaVuSans-72"/>
      <use x="101.978516" xlink:href="#DejaVuSans-61"/>
      <use x="163.257812" xlink:href="#DejaVuSans-69"/>
      <use x="191.041016" xlink:href="#DejaVuSans-6e"/>
      <use x="254.419922" xlink:href="#DejaVuSans-69"/>
      <use x="282.203125" xlink:href="#DejaVuSans-6e"/>
      <use x="345.582031" xlink:href="#DejaVuSans-67"/>
      <use x="409.058594" xlink:href="#DejaVuSans-20"/>
      <use x="440.845703" xlink:href="#DejaVuSans-28"/>
      <use x="479.859375" xlink:href="#DejaVuSans-41"/>
      <use x="548.267578" xlink:href="#DejaVuSans-55"/>
      <use x="621.460938" xlink:href="#DejaVuSans-50"/>
      <use x="681.763672" xlink:href="#DejaVuSans-52"/>
      <use x="751.246094" xlink:href="#DejaVuSans-20"/>
      <use x="783.033203" xlink:href="#DejaVuSans-3d"/>
      <use x="866.822266" xlink:href="#DejaVuSans-20"/>
      <use x="898.609375" xlink:href="#DejaVuSans-31"/>
      <use x="962.232422" xlink:href="#DejaVuSans-39"/>
      <use x="1025.855469" xlink:href="#DejaVuSans-2e"/>
      <use x="1057.642578" xlink:href="#DejaVuSans-32"/>
      <use x="1121.265625" xlink:href="#DejaVuSans-25"/>
      <use x="1216.285156" xlink:href="#DejaVuSans-29"/>
     </g>
    </g>
    <g id="line2d_30">
     <path d="M 42.097578 185.648822 
L 57.097578 185.648822 
" style="fill:none;stroke:#008000;stroke-linecap:round;stroke-width:2;"/>
    </g>
    <g id="line2d_31"/>
    <g id="text_16">
     <!-- Testing (AUPR = 20.2%) -->
     <defs>
      <path d="M 18.3125 70.21875 
L 18.3125 54.6875 
L 36.8125 54.6875 
L 36.8125 47.703125 
L 18.3125 47.703125 
L 18.3125 18.015625 
Q 18.3125 11.328125 20.140625 9.421875 
Q 21.96875 7.515625 27.59375 7.515625 
L 36.8125 7.515625 
L 36.8125 0 
L 27.59375 0 
Q 17.1875 0 13.234375 3.875 
Q 9.28125 7.765625 9.28125 18.015625 
L 9.28125 47.703125 
L 2.6875 47.703125 
L 2.6875 54.6875 
L 9.28125 54.6875 
L 9.28125 70.21875 
z
" id="DejaVuSans-74"/>
     </defs>
     <g style="fill:#262626;" transform="translate(63.097578 188.273822)scale(0.075 -0.075)">
      <use xlink:href="#DejaVuSans-54"/>
      <use x="60.818359" xlink:href="#DejaVuSans-65"/>
      <use x="122.341797" xlink:href="#DejaVuSans-73"/>
      <use x="174.441406" xlink:href="#DejaVuSans-74"/>
      <use x="213.650391" xlink:href="#DejaVuSans-69"/>
      <use x="241.433594" xlink:href="#DejaVuSans-6e"/>
      <use x="304.8125" xlink:href="#DejaVuSans-67"/>
      <use x="368.289062" xlink:href="#DejaVuSans-20"/>
      <use x="400.076172" xlink:href="#DejaVuSans-28"/>
      <use x="439.089844" xlink:href="#DejaVuSans-41"/>
      <use x="507.498047" xlink:href="#DejaVuSans-55"/>
      <use x="580.691406" xlink:href="#DejaVuSans-50"/>
      <use x="640.994141" xlink:href="#DejaVuSans-52"/>
      <use x="710.476562" xlink:href="#DejaVuSans-20"/>
      <use x="742.263672" xlink:href="#DejaVuSans-3d"/>
      <use x="826.052734" xlink:href="#DejaVuSans-20"/>
      <use x="857.839844" xlink:href="#DejaVuSans-32"/>
      <use x="921.462891" xlink:href="#DejaVuSans-30"/>
      <use x="985.085938" xlink:href="#DejaVuSans-2e"/>
      <use x="1016.873047" xlink:href="#DejaVuSans-32"/>
      <use x="1080.496094" xlink:href="#DejaVuSans-25"/>
      <use x="1175.515625" xlink:href="#DejaVuSans-29"/>
     </g>
    </g>
    <g id="line2d_32">
     <path d="M 42.097578 196.657416 
L 57.097578 196.657416 
" style="fill:none;stroke:#ffa500;stroke-linecap:round;stroke-width:2;"/>
    </g>
    <g id="line2d_33"/>
    <g id="text_17">
     <!-- CV (AUPR = 11.0%) -->
     <defs>
      <path d="M 64.40625 67.28125 
L 64.40625 56.890625 
Q 59.421875 61.53125 53.78125 63.8125 
Q 48.140625 66.109375 41.796875 66.109375 
Q 29.296875 66.109375 22.65625 58.46875 
Q 16.015625 50.828125 16.015625 36.375 
Q 16.015625 21.96875 22.65625 14.328125 
Q 29.296875 6.6875 41.796875 6.6875 
Q 48.140625 6.6875 53.78125 8.984375 
Q 59.421875 11.28125 64.40625 15.921875 
L 64.40625 5.609375 
Q 59.234375 2.09375 53.4375 0.328125 
Q 47.65625 -1.421875 41.21875 -1.421875 
Q 24.65625 -1.421875 15.125 8.703125 
Q 5.609375 18.84375 5.609375 36.375 
Q 5.609375 53.953125 15.125 64.078125 
Q 24.65625 74.21875 41.21875 74.21875 
Q 47.75 74.21875 53.53125 72.484375 
Q 59.328125 70.75 64.40625 67.28125 
" id="DejaVuSans-43"/>
      <path d="M 28.609375 0 
L 0.78125 72.90625 
L 11.078125 72.90625 
L 34.1875 11.53125 
L 57.328125 72.90625 
L 67.578125 72.90625 
L 39.796875 0 
z
" id="DejaVuSans-56"/>
     </defs>
     <g style="fill:#262626;" transform="translate(63.097578 199.282416)scale(0.075 -0.075)">
      <use xlink:href="#DejaVuSans-43"/>
      <use x="69.824219" xlink:href="#DejaVuSans-56"/>
      <use x="138.232422" xlink:href="#DejaVuSans-20"/>
      <use x="170.019531" xlink:href="#DejaVuSans-28"/>
      <use x="209.033203" xlink:href="#DejaVuSans-41"/>
      <use x="277.441406" xlink:href="#DejaVuSans-55"/>
      <use x="350.634766" xlink:href="#DejaVuSans-50"/>
      <use x="410.9375" xlink:href="#DejaVuSans-52"/>
      <use x="480.419922" xlink:href="#DejaVuSans-20"/>
      <use x="512.207031" xlink:href="#DejaVuSans-3d"/>
      <use x="595.996094" xlink:href="#DejaVuSans-20"/>
      <use x="627.783203" xlink:href="#DejaVuSans-31"/>
      <use x="691.40625" xlink:href="#DejaVuSans-31"/>
      <use x="755.029297" xlink:href="#DejaVuSans-2e"/>
      <use x="786.816406" xlink:href="#DejaVuSans-30"/>
      <use x="850.439453" xlink:href="#DejaVuSans-25"/>
      <use x="945.458984" xlink:href="#DejaVuSans-29"/>
     </g>
    </g>
   </g>
  </g>
 </g>
 <defs>
  <clipPath id="pefc5d37764">
   <rect height="129.3" width="138.975" x="35.165" y="7.2"/>
  </clipPath>
 </defs>
</svg>
